<?xml version="1.0" standalone="no"?>
<!DOCTYPE svg PUBLIC "-//W3C//DTD SVG 1.1//EN" "http://www.w3.org/Graphics/SVG/1.1/DTD/svg11.dtd" >
<svg>
<metadata>
Created by FontForge 20120731 at Sat Oct 25 16:21:50 2014
 By World Wide Web Server
Copyright (c) 2011 by Brian J. Bonislawsky DBA Astigmatic (AOETI). All rights reserved. Available under the Apache 2.0 licence.http://www.apache.org/licenses/LICENSE-2.0.html
</metadata>
<defs>
<font id="Redressed" horiz-adv-x="1464" >
  <font-face 
    font-family="Redressed"
    font-weight="400"
    font-stretch="normal"
    units-per-em="2048"
    panose-1="2 0 5 6 0 0 0 2 0 3"
    ascent="1638"
    descent="-410"
    x-height="784"
    cap-height="1475"
    bbox="-299 -494 2142 2353"
    underline-thickness="41"
    underline-position="-232"
    unicode-range="U+0020-FB02"
  />
<missing-glyph horiz-adv-x="432" 
 />
    <glyph glyph-name="fi" unicode="fi" horiz-adv-x="1038" 
d="M1022 117q-23 -49 -53.5 -75t-58.5 -38q-33 -14 -67 -16q-44 0 -73 14t-46 37t-23.5 52t-6.5 59v524h-368v-877l-185 -78v955h-100l43 100h57v213q0 82 18 164.5t60 148.5t110 107t167 41q30 0 61.5 -7t61.5 -20.5t56.5 -33t45.5 -44.5l-125 -81q-17 46 -51.5 79
t-87.5 33q-43 0 -69 -19.5t-39.5 -50t-18 -67t-4.5 -70.5v-393h551v-1l1 1v-629q0 -24 11 -38t28.5 -14.5t38 12.5t39.5 42zM884 1305l-53 -365l-98 -31l-60 324z" />
    <glyph glyph-name="fl" unicode="fl" horiz-adv-x="1042" 
d="M1026 117q-12 -26 -30.5 -49t-41.5 -41t-50.5 -28.5t-56.5 -10.5q-78 0 -113.5 43.5t-35.5 118.5v1178l-102 -66q-17 46 -51.5 79t-87.5 33q-43 0 -69 -19.5t-39.5 -50t-18 -67t-4.5 -70.5v-393h262l-43 -100h-219v-877l-185 -78v955h-100l43 100h57v213q0 82 18 164.5
t60 148.5t110 107t167 41q51 0 106 -21t96 -59v2l184 64v-1289q0 -20 9 -36.5t32 -16.5t43.5 18.5t32.5 36.5z" />
    <glyph glyph-name=".notdef" horiz-adv-x="432" 
 />
    <glyph glyph-name=".null" horiz-adv-x="0" 
 />
    <glyph glyph-name="nonmarkingreturn" horiz-adv-x="432" 
 />
    <glyph glyph-name="space" unicode=" " horiz-adv-x="432" 
 />
    <glyph glyph-name="lslash" unicode="&#x142;" horiz-adv-x="514" 
d="M514 852v-109l-170 -65v-533q0 -20 9.5 -36.5t31.5 -16.5q25 0 45 18.5t33 36.5l26 -30q-11 -26 -29.5 -49t-41.5 -41t-50.5 -28.5t-56.5 -10.5q-78 0 -113.5 43.5t-35.5 118.5v458l-170 -65v108l170 66v653l182 64v-648z" />
    <glyph glyph-name="Thorn" unicode="&#xde;" horiz-adv-x="1247" 
d="M401 4l-206 -76v985q-23 -17 -44.5 -34t-41.5 -35l-31 35q54 53 117 98v424l206 74v-373q101 49 203.5 76.5t196.5 27.5q87 0 162.5 -30.5t131 -85.5t87.5 -131t32 -166q0 -86 -32.5 -165.5t-88 -148t-128.5 -125t-155 -96.5t-167 -62t-164 -22h-16.5t-16.5 2l11 55
q65 11 131.5 33.5t127.5 56t114 78t92 99t61.5 119.5t22.5 139q0 70 -23 130t-64.5 104t-99.5 68.5t-129 24.5q-69 0 -142.5 -15.5t-146.5 -43.5v-1020z" />
    <glyph glyph-name="thorn" unicode="&#xfe;" horiz-adv-x="868" 
d="M449 -18q-36 0 -68 9.5t-59 31.5l77 112q19 -26 44.5 -40.5t56.5 -14.5q32 0 55 16.5t38.5 43.5t25.5 60.5t15 67.5t7 65.5t2 53.5q0 42 -11.5 91t-35 92t-60 71.5t-87.5 28.5q-36 0 -60.5 -17.5t-41 -46t-26 -65t-14 -73t-5.5 -71t-1 -59.5v-768l-182 -64v1741
q0 20 -10 36.5t-31 16.5q-25 0 -45.5 -18t-32.5 -37l-27 31q12 25 30.5 48.5t42 41.5t51 28.5t57.5 10.5q40 0 68 -11.5t45 -32.5t25 -50t9 -64v-635q16 31 37.5 62.5t48.5 56t59.5 40t71.5 15.5q69 0 122.5 -30.5t90 -80t55.5 -111.5t19 -126q0 -79 -22.5 -160t-67 -147
t-111 -107.5t-155.5 -41.5z" />
    <glyph glyph-name="onehalf" unicode="&#xbd;" horiz-adv-x="1272" 
d="M1010 1339l-813 -1308l-105 69l821 1305zM223 649v623l-86 -47l-26 47l235 137v-715zM1083 53q-72 10 -142 20.5t-138 10.5q-23 2 -48 -5.5t-42 -29.5l-43 31q54 54 104.5 96.5t99.5 87.5q28 25 57 58t53 69.5t39 75t15 76.5q0 31 -11 58t-30 47t-46 31t-58 11
q-48 0 -92.5 -23.5t-81.5 -66.5l-31 29q21 31 49.5 61t62 53.5t70 37.5t74.5 14q51 0 93 -15.5t72.5 -44t47.5 -70.5t17 -94q0 -54 -21.5 -101.5t-55 -89t-74 -76.5t-79.5 -62q-17 -13 -33.5 -23.5t-33.5 -21.5h4q32 0 63.5 -7t63.5 -12q9 -2 19 -3t20 -1q24 0 49 21t47 47
l33 -23z" />
    <glyph glyph-name="onequarter" unicode="&#xbc;" horiz-adv-x="1186" 
d="M1014 1339l-813 -1308l-105 69l822 1305zM227 649v623l-86 -47l-26 47l235 137v-715zM1049 231h-48v-157l-122 -43v200h-349q48 54 86 107.5t67.5 110t52 116t40.5 125.5l84 -43q-8 -36 -24 -76t-36 -79.5t-43.5 -75.5t-47.5 -64h170v381l122 43v-424h93z" />
    <glyph glyph-name="onesuperior" unicode="&#xb9;" horiz-adv-x="410" 
d="M164 649v623l-84 -47l-29 47l236 137v-715z" />
    <glyph glyph-name="threequarters" unicode="&#xbe;" horiz-adv-x="1352" 
d="M1180 1339l-813 -1308l-105 69l823 1305zM1217 231h-50v-157l-120 -43v200h-349q48 54 85.5 107.5t67 110t52 116t39.5 125.5l84 -43q-8 -36 -24 -76t-36.5 -79.5t-44 -75.5t-47.5 -64h173v381l120 43v-424h93zM313 627q-75 -23 -151 -23h-16.5t-20.5 2l-10 41
q51 6 108 25.5t104 50t78 73t31 95.5q0 31 -11 55.5t-31 41.5t-47 26.5t-58 9.5q-32 0 -64.5 -8.5t-70.5 -22.5l-15 41q34 16 72.5 38.5t70.5 50.5t53 61t21 71q0 31 -15 44.5t-46 13.5q-20 0 -42.5 -6t-45 -16.5t-43.5 -25t-37 -32.5l-31 29q23 28 53 55t63.5 48t69.5 33.5
t72 12.5q27 0 53.5 -7.5t47.5 -23t34 -38.5t13 -54q0 -33 -15.5 -62.5t-39.5 -55t-53.5 -47t-57.5 -38.5q6 2 13.5 2h15.5q42 0 80 -13.5t67 -39t46 -61t17 -80.5q0 -54 -24.5 -97t-62.5 -76.5t-84.5 -56.5t-90.5 -36z" />
    <glyph glyph-name="threesuperior" unicode="&#xb3;" horiz-adv-x="635" 
d="M309 627q-75 -23 -151 -23h-16.5t-20.5 2l-10 41q51 6 108 25.5t104 50t78 73t31 95.5q0 31 -11 55.5t-31 41.5t-47 26.5t-58 9.5q-32 0 -64.5 -8.5t-70.5 -22.5l-15 41q34 16 72.5 38.5t70.5 50.5t53 61t21 71q0 31 -15 44.5t-46 13.5q-20 0 -42.5 -6t-45 -16.5
t-43.5 -25t-37 -32.5l-31 29q23 28 53 55t63.5 48t69.5 33.5t72 12.5q27 0 53.5 -7.5t47.5 -23t34 -38.5t13 -54q0 -33 -15.5 -62.5t-39.5 -55t-53.5 -47t-57.5 -38.5q6 2 13 2h15q42 0 80.5 -13.5t67.5 -39t46 -61t17 -80.5q0 -54 -24.5 -97t-62.5 -76.5t-84.5 -56.5
t-90.5 -36z" />
    <glyph glyph-name="twosuperior" unicode="&#xb2;" horiz-adv-x="682" 
d="M498 672q-73 9 -143.5 18.5t-139.5 11.5q-22 2 -46.5 -5.5t-43.5 -28.5l-41 30q54 53 104.5 96.5t98.5 88.5q27 25 56.5 57.5t54 68.5t40 75t15.5 77q0 31 -11 58.5t-30.5 47t-46.5 31t-58 11.5q-48 0 -92.5 -23.5t-81.5 -66.5l-31 28q21 31 49.5 61t62 53.5t70 37.5
t74.5 14q51 0 93.5 -15.5t72.5 -44t47 -70t17 -93.5q0 -55 -21.5 -103t-55 -89.5t-75 -76t-80.5 -61.5q-15 -12 -31.5 -23t-33.5 -22h4q32 0 63.5 -6.5t63.5 -11.5q9 -2 18.5 -3t20.5 -1q23 0 48.5 20t47.5 45l33 -22z" />
    <glyph glyph-name="brokenbar" unicode="&#xa6;" horiz-adv-x="475" 
d="M342 725l-207 -74v781l207 73v-780zM342 -209l-207 -74v781l207 73v-780z" />
    <glyph glyph-name="minus" unicode="&#x2212;" horiz-adv-x="1008" 
d="M887 836l-62 -162h-684l64 162h682z" />
    <glyph glyph-name="multiply" unicode="&#xd7;" horiz-adv-x="887" 
d="M764 1044l-236 -288l236 -289l-158 -70l-162 238l-163 -238l-158 70l235 289l-235 288l158 70l163 -237l162 237z" />
    <glyph glyph-name="exclam" unicode="!" horiz-adv-x="492" 
d="M371 1434l-82 -1121l-107 -26l-84 1073zM350 76q0 -24 -9 -45t-24.5 -36.5t-36 -24.5t-44.5 -9t-45.5 9t-37 24.5t-25 36.5t-9.5 45t9.5 45t25 37t37 25.5t45.5 9.5t44.5 -9.5t36 -25.5t24.5 -37t9 -45z" />
    <glyph glyph-name="quotedbl" unicode="&#x22;" horiz-adv-x="625" 
d="M301 1434l-63 -492l-91 -33l-69 441zM547 1434l-64 -492l-90 -33l-69 441z" />
    <glyph glyph-name="numbersign" unicode="#" horiz-adv-x="1231" 
d="M506 588h166l45 143h-160zM84 520l27 68h227l45 143h-217l27 66h210l86 282l205 37l-112 -319h155l86 282l205 37l-113 -319h222l-27 -66h-219l-51 -143h215l-27 -68h-211l-96 -270l-158 -17l88 287h-168l-96 -270l-158 -17l88 287h-233z" />
    <glyph glyph-name="dollar" unicode="$" horiz-adv-x="831" 
d="M631 911q-15 45 -37.5 84t-53 68t-69 46t-86.5 17q-34 0 -63 -12t-50.5 -33.5t-34 -50.5t-12.5 -63q0 -49 20 -83.5t52.5 -60t74 -45t85 -38t85 -39.5t74 -49.5t52.5 -68t20 -94.5q0 -49 -18.5 -89.5t-49.5 -71t-72.5 -50.5t-86.5 -28l39 -242l-150 -57l37 291
q-37 1 -74.5 12t-72.5 30t-65.5 44.5t-53.5 54.5l110 125q9 -32 33.5 -67.5t56.5 -65t68 -49t70 -19.5q19 0 39.5 10.5t37.5 26t28 34.5t11 36q0 44 -20 76t-53.5 57t-75.5 44.5t-86.5 40t-86.5 44t-75.5 55t-53.5 74t-20 100.5q0 56 22.5 104.5t60 86.5t86.5 63.5t102 36.5
l-37 238l149 55l-36 -287q88 -2 163 -41.5t129 -111.5z" />
    <glyph glyph-name="percent" unicode="%" horiz-adv-x="1460" 
d="M1065 25q-71 0 -127 32.5t-96 85t-61 118.5t-21 134q0 69 21 135.5t61 119.5t96 85.5t127 32.5q70 0 126.5 -33t96.5 -86t61 -120t21 -134q0 -68 -21 -134t-61 -118.5t-96.5 -85t-126.5 -32.5zM375 31l-105 69l822 1305l96 -66zM395 668q-71 0 -127 32.5t-96 85
t-61 118.5t-21 134t21 134.5t61 119.5t96 86t127 33t127.5 -33t96 -86t60.5 -119.5t21 -134.5t-21 -134t-60.5 -118.5t-96 -85t-127.5 -32.5zM1032 698q-40 0 -69 -21.5t-47.5 -55t-27.5 -76t-9 -84.5q0 -54 15.5 -116t44 -115.5t69.5 -88.5t92 -35q40 0 68.5 21.5t47.5 56
t28 77.5t9 85q0 55 -15.5 116.5t-44 114t-69.5 87t-92 34.5zM362 1341q-40 0 -69 -21t-47.5 -55t-27.5 -76.5t-9 -84.5q0 -36 7 -76t20 -79.5t32 -75.5t43.5 -63t54.5 -43.5t64 -16.5q40 0 69 21.5t48 56t28 77t9 84.5q0 55 -15.5 116.5t-44 114t-69.5 87t-93 34.5z" />
    <glyph glyph-name="ampersand" unicode="&#x26;" horiz-adv-x="938" 
d="M629 133l-207 469q-29 -22 -58.5 -50t-54 -62.5t-40 -76t-15.5 -91.5q0 -55 22 -99t59 -74t85.5 -44t101.5 -9q31 3 56 14.5t51 22.5zM514 817q12 12 31 32.5t36 43.5t29.5 46.5t12.5 41.5q0 14 -5.5 28t-15 25.5t-22 19t-27.5 7.5q-21 0 -35.5 -10.5t-23.5 -27t-13 -36
t-4 -37.5q0 -34 11 -68t26 -65zM883 303q-14 -34 -31 -66t-39 -61l57 -127l-157 -86l-39 88q-23 -15 -50.5 -28t-56 -23.5t-58 -16.5t-56.5 -6q-75 0 -141 18.5t-115.5 55.5t-78 93t-28.5 132q0 78 26.5 140.5t68.5 112.5t93.5 89.5t100.5 71.5q-25 48 -40 98t-15 103
q0 48 13 92t39.5 77.5t65.5 54t90 20.5q36 0 65.5 -14t50.5 -38t32.5 -55.5t11.5 -66.5q0 -36 -12 -67.5t-31 -60t-43 -54t-47 -50.5q58 -138 105 -245q20 -46 39.5 -90t35 -78.5t25.5 -55t12 -20.5q38 39 60 88z" />
    <glyph glyph-name="quotesingle" unicode="'" horiz-adv-x="379" 
d="M301 1434l-63 -492l-91 -33l-69 441z" />
    <glyph glyph-name="parenleft" unicode="(" horiz-adv-x="645" 
d="M645 -248l-29 -51q-80 43 -152.5 102t-134 130t-111.5 152t-84.5 168t-53.5 178t-19 183q0 138 41.5 274t115.5 257t176 220.5t222 164.5l29 -43q-88 -75 -155.5 -177.5t-113.5 -219t-69.5 -239t-23.5 -237.5q0 -114 23 -235.5t69 -236.5t113.5 -216.5t156.5 -173.5z" />
    <glyph glyph-name="parenright" unicode=")" horiz-adv-x="641" 
d="M582 618q0 -138 -42 -274t-116 -257t-175.5 -221t-221.5 -165l-29 43q88 75 155.5 177.5t113 219t68.5 239.5t23 238q0 113 -23 234.5t-68.5 236.5t-113 216.5t-155.5 173.5l29 51q120 -65 222 -163.5t176 -219t115.5 -256t41.5 -273.5z" />
    <glyph glyph-name="asterisk" unicode="*" horiz-adv-x="803" 
d="M305 768l37 213l-139 -143l-105 127l207 129l-207 131l105 127l145 -162l-43 244h178l-41 -258l158 176l105 -127l-207 -131l207 -129l-105 -127l-160 166l43 -236h-178z" />
    <glyph glyph-name="plus" unicode="+" horiz-adv-x="918" 
d="M541 444l-162 -63v293h-293l64 162h229v229l162 63v-292h290l-61 -162h-229v-230z" />
    <glyph glyph-name="comma" unicode="," horiz-adv-x="440" 
d="M336 76q0 -39 -13 -74t-35.5 -65t-52 -55t-61.5 -44l-37 31q19 17 35 43t21 51q-39 11 -64 42t-25 71q0 24 9 45t25 37t36.5 25.5t44.5 9.5t45.5 -9.5t37 -25.5t25 -37t9.5 -45z" />
    <glyph glyph-name="hyphen" unicode="-" horiz-adv-x="950" 
d="M864 836l-61 -162h-684l63 162h682z" />
    <glyph glyph-name="period" unicode="." horiz-adv-x="438" 
d="M336 76q0 -24 -9.5 -45t-25 -36.5t-37 -24.5t-45.5 -9t-44.5 9t-36.5 24.5t-25 36.5t-9 45t9 45t25 37t36.5 25.5t44.5 9.5t45.5 -9.5t37 -25.5t25 -37t9.5 -45z" />
    <glyph glyph-name="slash" unicode="/" horiz-adv-x="1163" 
d="M184 -49l-125 82l934 1446l113 -78z" />
    <glyph glyph-name="zero" unicode="0" horiz-adv-x="1378" 
d="M1292 719q0 -91 -19 -181t-55.5 -172t-89 -152.5t-119.5 -122.5t-147 -81.5t-172 -29.5t-172.5 29.5t-147.5 81.5t-119 122.5t-88.5 152.5t-55.5 172t-19 181q0 90 19 180t55.5 172.5t88.5 153t119 122.5t147.5 81.5t172.5 29.5t172 -29.5t147 -81.5t119.5 -122.5
t89 -153t55.5 -172.5t19 -180zM1098 616q0 74 -14 157.5t-41.5 166t-68 158t-93.5 133.5t-117.5 92.5t-140.5 34.5q-60 0 -107.5 -22t-84.5 -59.5t-63.5 -87.5t-43.5 -106t-25 -115.5t-8 -115.5q0 -74 14 -158t41 -167t67 -159.5t92.5 -135t116.5 -93.5t140 -35q60 0 108 22
t85.5 60t64.5 88.5t44 107.5t25.5 117t8.5 117z" />
    <glyph glyph-name="one" unicode="1" horiz-adv-x="635" 
d="M451 33l-207 -74v1274l-189 -103l-35 60l431 250v-1407z" />
    <glyph glyph-name="two" unicode="2" horiz-adv-x="1114" 
d="M1016 1018q0 -107 -42.5 -202t-109 -177.5t-148.5 -152.5t-161 -126q-51 -35 -101 -69.5t-100 -69.5q22 5 43.5 6.5t42.5 1.5q44 0 87 -6.5t85 -15t83 -15t81 -6.5q29 0 58 12t55.5 31t49 41t38.5 43l37 -24l-170 -309q-69 9 -140 19.5t-142 20t-142 16t-141 7.5
q-24 1 -50.5 -1.5t-52 -10t-48 -20t-38.5 -31.5l-49 34q96 96 196.5 182.5t200.5 176.5q57 51 118 118t111 143.5t82.5 158.5t32.5 163q0 69 -23.5 128.5t-66 103t-100.5 68t-127 24.5q-51 0 -101 -13t-96 -36t-86.5 -55.5t-72.5 -71.5l-35 31q38 58 92.5 114t119.5 100.5
t137 71.5t146 27q99 0 181.5 -29.5t141.5 -85t91.5 -135.5t32.5 -180z" />
    <glyph glyph-name="three" unicode="3" horiz-adv-x="1055" 
d="M985 426q0 -70 -22 -131t-59.5 -113.5t-88 -96.5t-108 -78.5t-119.5 -61t-121 -43.5q-74 -22 -150.5 -33.5t-154.5 -11.5h-29t-31 2l-10 45q64 8 137.5 28.5t145.5 52.5t138 75t117 98t81 120.5t30 141.5q0 67 -25 121.5t-68 92.5t-101 58.5t-125 20.5
q-68 0 -134.5 -16.5t-129.5 -39.5l-17 45q42 20 91.5 46.5t98 59.5t93.5 72t80 83.5t55.5 94.5t20.5 105q0 73 -38 107.5t-110 34.5q-43 0 -91 -13t-94 -34.5t-87 -50.5t-70 -60l-33 31q42 51 99 102t122.5 91.5t136.5 65.5t142 25q51 0 101 -15t89.5 -44t64 -72t24.5 -100
q0 -54 -22.5 -103.5t-59.5 -94t-85 -84t-98.5 -72t-100.5 -58.5t-91 -45q49 13 98 20t98 7q84 0 158.5 -26.5t130.5 -75.5t88.5 -118.5t32.5 -154.5z" />
    <glyph glyph-name="four" unicode="4" horiz-adv-x="1118" 
d="M1069 586l-74 -207h-104v-326l-207 -76v402h-686q87 98 158.5 201.5t129 213.5t101.5 228t76 246l137 -72q-18 -72 -53 -156t-80.5 -167t-97.5 -158t-103 -129h418v782l207 74v-856h178z" />
    <glyph glyph-name="five" unicode="5" horiz-adv-x="1032" 
d="M954 432q0 -71 -24.5 -133.5t-66.5 -117t-98 -101t-117.5 -84t-125.5 -66t-123 -47.5q-74 -25 -151 -38.5t-156 -16.5l-20 61q69 16 144 41t146.5 60t136.5 80t113.5 102t77.5 127t29 154q0 5 -0.5 16t-1.5 23.5t-3 24.5t-5 18q-25 58 -63 100.5t-86.5 70t-105.5 41
t-118 13.5q-66 0 -137 -16.5t-127 -51.5l180 742h702l-71 -228h-615l-102 -403q34 18 74 30t82.5 20t84.5 11.5t80 3.5q101 0 186.5 -28.5t148 -84t97.5 -137t35 -186.5z" />
    <glyph glyph-name="six" unicode="6" horiz-adv-x="1251" 
d="M338 702q-11 -49 -17 -100t-6 -100q0 -86 19.5 -166t62 -141.5t110 -98.5t163.5 -37q78 0 135 27.5t94.5 74.5t55.5 110t18 135q0 75 -25 149t-71 133.5t-111.5 96t-147.5 36.5q-81 0 -149.5 -34.5t-130.5 -84.5zM1202 477q0 -71 -23.5 -137t-64 -124.5t-95 -107
t-118 -83.5t-132 -54.5t-136.5 -19.5q-125 0 -227 45t-174 123.5t-111 184.5t-39 228q0 119 38.5 228.5t105 205.5t156.5 176.5t193 141.5t214.5 101.5t220.5 56.5l18 -62q-64 -9 -135.5 -42t-140.5 -78.5t-130 -98t-104 -100.5q-49 -56 -87 -120.5t-62 -135.5q42 30 91 54
t100.5 40.5t103.5 25.5t100 9q118 0 209 -49.5t151 -149.5q35 -59 56.5 -124t21.5 -134z" />
    <glyph glyph-name="seven" unicode="7" horiz-adv-x="1012" 
d="M1055 1440q-72 -63 -138.5 -150t-124 -184t-104.5 -198t-78 -191q-19 -58 -39.5 -129t-37 -145t-27 -145.5t-10.5 -129.5q0 -25 2 -49t10 -47l-283 -115v12q-2 71 10.5 143.5t30.5 141.5q34 130 87.5 257t121.5 247t149.5 232t170.5 212h-433q-41 0 -85 -8.5t-84.5 -26
t-74 -45t-52.5 -65.5l-54 43l193 330h667q38 0 76.5 12.5t69.5 34.5z" />
    <glyph glyph-name="eight" unicode="8" horiz-adv-x="1180" 
d="M1100 406q0 -111 -46.5 -198.5t-123 -147.5t-175 -91.5t-202.5 -31.5q-91 0 -176.5 27.5t-152 80.5t-106.5 129t-40 174q0 71 27 133t71.5 114t100.5 93.5t114 71.5q-42 27 -80 60.5t-66.5 74t-45.5 87.5t-17 99q0 64 21.5 117t58 95t85.5 72.5t103.5 50.5t112.5 30
t113 10q70 0 130.5 -18.5t105.5 -56t70.5 -93t25.5 -129.5q0 -66 -30 -120t-76 -97.5t-102 -77.5t-108 -59q42 -18 89 -39t92.5 -47.5t86.5 -58t72 -70t49.5 -84.5t18.5 -100zM819 1122q0 50 -16.5 97t-46.5 83t-72.5 58t-95.5 22q-46 0 -88 -13.5t-74 -39.5t-51 -64
t-19 -87q0 -54 21 -102.5t55 -90t76.5 -75t85.5 -58.5q40 21 80 47t72 59t52.5 73.5t20.5 90.5zM946 256q0 54 -22 103t-59 92.5t-84.5 81t-97.5 69.5t-100 58t-91 45q-39 -29 -72 -66t-57 -80t-38 -90t-14 -96q0 -68 29.5 -130t79 -109.5t113 -76t131.5 -28.5q49 0 99.5 15
t91 43.5t66 71t25.5 97.5z" />
    <glyph glyph-name="nine" unicode="9" horiz-adv-x="1251" 
d="M911 692q13 50 18 100.5t5 100.5q0 85 -19 165t-61 141.5t-109.5 98.5t-164.5 37q-77 0 -134 -27t-95 -74t-56.5 -110t-18.5 -135q0 -75 25 -149.5t71.5 -134t112.5 -96t148 -36.5q40 0 77.5 9.5t72 25.5t66.5 38t62 46zM1169 862q0 -119 -38.5 -228.5t-105 -205.5
t-156.5 -176t-193 -141.5t-214 -102.5t-220 -57l-21 63q43 6 89.5 23.5t93.5 42t93.5 55.5t89 64.5t80 68t66.5 66.5q50 56 87 120.5t63 135.5q-43 -30 -92 -54t-101 -40.5t-104 -25.5t-101 -9q-115 0 -206.5 49t-153.5 149q-34 59 -55 124t-21 135t23.5 136.5t64 124.5
t95 106.5t118 83.5t132 54t136.5 19q124 0 226 -45t174 -123t111.5 -184t39.5 -228z" />
    <glyph glyph-name="colon" unicode=":" horiz-adv-x="449" 
d="M340 76q0 -24 -9.5 -45t-25 -36.5t-37 -24.5t-45.5 -9t-44.5 9t-36 24.5t-24.5 36.5t-9 45t9 45t24.5 37t36 25.5t44.5 9.5t45.5 -9.5t37 -25.5t25 -37t9.5 -45zM340 690q0 -24 -9.5 -44.5t-25 -36.5t-37 -25t-45.5 -9t-44.5 9t-36 25t-24.5 36.5t-9 44.5t9 45.5t24.5 37
t36 25t44.5 9.5t45.5 -9.5t37 -25t25 -37t9.5 -45.5z" />
    <glyph glyph-name="semicolon" unicode=";" horiz-adv-x="449" 
d="M340 76q0 -39 -13 -74t-35.5 -65t-52 -55t-61.5 -44l-37 31q19 17 35 43t21 51q-39 11 -63.5 42t-24.5 71q0 24 9 45t24.5 37t36 25.5t44.5 9.5t45.5 -9.5t37 -25.5t25 -37t9.5 -45zM340 690q0 -24 -9.5 -44.5t-25 -36.5t-37 -25t-45.5 -9t-44.5 9t-36 25t-24.5 36.5
t-9 44.5t9 45.5t24.5 37t36 25t44.5 9.5t45.5 -9.5t37 -25t25 -37t9.5 -45.5z" />
    <glyph glyph-name="less" unicode="&#x3c;" horiz-adv-x="754" 
d="M629 387l-35 -43l-485 361l485 391l35 -29l-269 -362z" />
    <glyph glyph-name="equal" unicode="=" horiz-adv-x="1028" 
d="M887 999l-62 -161h-684l64 161h682zM887 672l-62 -162h-684l64 162h682z" />
    <glyph glyph-name="greater" unicode="&#x3e;" horiz-adv-x="754" 
d="M645 705l-485 -361l-35 43l268 318l-268 362l35 29z" />
    <glyph glyph-name="question" unicode="?" horiz-adv-x="1016" 
d="M928 1059q0 -52 -9.5 -102.5t-29 -97t-49.5 -87.5t-70 -74q-44 -37 -94 -78.5t-93 -89t-73.5 -102t-34.5 -115.5l-106 -26v18q-2 87 23 154t64 123.5t85 107.5t85.5 104.5t66 115.5t26.5 141q0 58 -21 113.5t-58 98.5t-89 69t-113 26q-42 0 -81.5 -15t-70 -42t-49 -64
t-18.5 -82q0 -56 25 -106t65 -88l-139 -121q-21 21 -37.5 48t-27 57t-16 61.5t-5.5 60.5q0 84 37.5 154.5t98.5 122.5t138 81t156 29q45 0 92 -9.5t91.5 -27.5t83.5 -44t69 -60q21 -25 36 -56t24.5 -64.5t13.5 -68t4 -65.5zM539 76q0 -24 -9.5 -45t-25.5 -36.5t-37 -24.5
t-45 -9t-45 9t-36.5 24.5t-24.5 36.5t-9 45t9 45t24.5 37t36.5 25.5t45 9.5t45 -9.5t37 -25.5t25.5 -37t9.5 -45z" />
    <glyph glyph-name="at" unicode="@" horiz-adv-x="1272" 
d="M1192 461q0 -33 -7.5 -74t-22.5 -84t-36.5 -83.5t-49.5 -72.5t-62 -51.5t-74 -19.5q-34 0 -57 10t-37.5 28.5t-20.5 44t-6 56.5q-28 -57 -73 -93t-113 -36q-52 0 -91.5 17t-66 47t-40 71.5t-13.5 91.5q0 70 24 139t68.5 123.5t106.5 88.5t137 34q30 0 60.5 -5.5t58.5 -18
t50.5 -32.5t37.5 -48l-119 -51q-19 31 -49.5 54.5t-67.5 23.5q-42 0 -74 -26t-54.5 -64t-34 -81t-11.5 -77q0 -30 6 -64t20.5 -63.5t39 -48.5t61.5 -19q35 0 59 15t39 39t23 55t11.5 63t4 63.5t0.5 55.5l148 51v-317q0 -16 7.5 -28.5t24.5 -12.5q23 0 42.5 17t35.5 44t28 60
t20.5 65.5t13 60.5t4.5 44q0 90 -35 164t-94.5 127t-137.5 82.5t-165 29.5q-67 0 -127.5 -21.5t-112.5 -59t-94 -88t-71.5 -108.5t-45.5 -121.5t-16 -125.5q0 -81 23 -156.5t68.5 -133t113 -92t155.5 -34.5q47 0 92 10t88 27l15 -35q-28 -15 -62 -26t-70.5 -18t-73 -10
t-67.5 -3q-89 0 -169 38t-140 101t-95.5 145t-35.5 170q0 132 48 240.5t131.5 186t197 119.5t244.5 42q92 0 179 -32t155 -90t109.5 -139.5t41.5 -180.5z" />
    <glyph glyph-name="A" unicode="A" horiz-adv-x="1391" 
d="M1395 137q-15 -29 -37.5 -56t-51 -47.5t-60.5 -33t-66 -12.5q-56 0 -97.5 21t-70 56.5t-42.5 81.5t-14 97v387q-14 -64 -32 -137.5t-44 -146t-61 -139.5t-82.5 -118.5t-108.5 -82t-139 -30.5q-95 0 -170 36t-127.5 99t-80 149.5t-27.5 187.5q0 120 38 240.5t104.5 231.5
t158 206t199.5 165t227.5 109t241.5 37h12v-45q-105 -5 -202 -45.5t-181.5 -106t-154.5 -151.5t-119.5 -183t-77 -200t-27.5 -203q0 -39 5 -83.5t17 -89t31 -85t47.5 -72t66.5 -50t87 -18.5q59 0 107 36t87 97t69.5 142t53.5 171t38.5 183.5t25 179.5t14 159.5t4.5 123.5
l207 76v-1063q0 -20 4 -40t14 -36.5t25.5 -26.5t38.5 -10q35 0 66 21t51 47z" />
    <glyph glyph-name="B" unicode="B" horiz-adv-x="1296" 
d="M1231 453q0 -101 -41.5 -184t-111 -149.5t-159 -115.5t-186 -82.5t-193 -51t-178.5 -20.5l-14 50q66 14 140 36.5t146.5 55t138 75.5t115.5 98.5t79.5 123t29.5 149.5q0 62 -28.5 112.5t-74 86t-103 55t-115.5 19.5q-69 0 -136 -16.5t-132 -41.5l-17 41q45 20 95.5 48
t99 62.5t92.5 76t77.5 89t53.5 100t20 110.5q0 37 -11.5 67.5t-33.5 53t-52.5 35t-67.5 12.5q-60 0 -105.5 -26t-79 -69t-56 -98.5t-36 -113.5t-19.5 -114.5t-6 -101.5v-772l-206 -73v735q0 97 22 189t63.5 174.5t101 151.5t134 118.5t163 77.5t187.5 28q45 0 87 -12
t73.5 -37t50.5 -62t19 -86q0 -53 -21.5 -104.5t-57.5 -100.5t-82 -93.5t-95.5 -82.5t-98.5 -68t-90 -50q102 24 209 24q78 0 151.5 -18.5t131 -58t92.5 -102t35 -150.5z" />
    <glyph glyph-name="C" unicode="C" horiz-adv-x="1235" 
d="M1171 1190q0 -76 -30 -151t-80.5 -139t-116.5 -112t-137 -69l-21 35q42 21 77 54t60 74.5t38.5 88t13.5 94.5q0 55 -16 104t-47 85.5t-76.5 57.5t-104.5 21q-72 0 -132 -28t-108 -75.5t-83.5 -109t-59 -129t-35.5 -136.5t-12 -130q0 -62 13 -128t38 -130t62 -121
t85.5 -100t108 -68.5t129.5 -25.5q48 0 93.5 13t87.5 35t79.5 52t69.5 65l33 -32q-44 -58 -104.5 -111.5t-130.5 -95t-146.5 -66t-151.5 -24.5q-73 0 -137.5 25.5t-118.5 69t-96.5 102t-72 124.5t-45 136t-15.5 137q0 97 32.5 199.5t89.5 199t134.5 182.5t167 150t187 101.5
t194.5 37.5q60 0 112 -17.5t90 -50.5t60 -82t22 -112z" />
    <glyph glyph-name="D" unicode="D" horiz-adv-x="1358" 
d="M1276 932q0 -127 -47.5 -245.5t-128.5 -222.5t-188.5 -191t-227.5 -151t-246 -102t-243 -45v1121l206 73v-1089q141 41 258.5 118.5t202.5 183.5t132.5 237t47.5 280q0 85 -21.5 162.5t-66 136t-112.5 93t-162 34.5q-77 0 -154.5 -17t-151 -47.5t-141 -72.5t-124.5 -92
l-31 34q60 65 142 122.5t175 101t191 69t190 25.5q124 0 218 -37t156.5 -105t94 -163t31.5 -211z" />
    <glyph glyph-name="E" unicode="E" horiz-adv-x="1092" 
d="M1063 393q-44 -81 -106.5 -154t-139 -129t-165 -89t-185.5 -33q-75 0 -146 25t-126.5 71t-89 110.5t-33.5 143.5q0 77 31 143.5t80.5 121.5t112 98t126.5 73q-45 8 -81 33t-61 60t-38 78t-13 87q0 61 22 115.5t59.5 101t87.5 84t105.5 63.5t114 40t113.5 14
q82 0 150 -32.5t120 -94.5l-145 -106q-21 29 -45.5 54.5t-53 44t-61 29.5t-69.5 11q-46 0 -90.5 -16.5t-79.5 -46t-56.5 -70.5t-21.5 -90q0 -51 22 -94.5t58 -75.5t82.5 -50t95.5 -18q56 0 104 18l15 -41q-81 -26 -161.5 -66.5t-144.5 -97.5t-103.5 -132t-39.5 -170
q0 -55 16 -102t46.5 -82t75 -55t100.5 -20q58 0 130 23.5t141 62.5t126 89t86 102z" />
    <glyph glyph-name="F" unicode="F" horiz-adv-x="1192" 
d="M1237 1468q-31 -48 -75 -90t-96 -74t-110 -50.5t-116 -18.5l-197 -2q-40 -48 -59 -93t-19 -106v-280h29q40 0 97 -1.5t115.5 2.5t111.5 17.5t86 42.5l24 -29q-31 -47 -75 -79t-96 -52.5t-110 -30t-116 -10.5h-66v-381q0 -133 -57 -236.5t-166 -178.5l-35 39q17 19 27 43
t15.5 50t7 52.5t1.5 50.5v561h-194l106 140h88v164q0 47 19.5 91.5t49.5 84.5t66 75t70 64q-42 0 -79.5 0.5t-75.5 0.5t-78 0.5t-88 0.5q-38 0 -67.5 -7.5t-54.5 -21.5t-48 -35t-47 -49l-29 31q34 47 81 96.5t101.5 90.5t115 67.5t122.5 26.5h387q39 0 96 1t116 6.5t112 18
t85 35.5z" />
    <glyph glyph-name="G" unicode="G" horiz-adv-x="1329" 
d="M1206 1255q0 -57 -30.5 -107t-76 -91.5t-99 -73t-99.5 -49.5q-49 -19 -99.5 -30.5t-101.5 -14.5l-20 35q43 11 88 35t82 58.5t60.5 77.5t23.5 93q0 35 -12.5 62t-34 45.5t-50.5 28t-63 9.5q-83 0 -147.5 -31t-113.5 -83.5t-83 -120.5t-55.5 -142.5t-31 -150.5t-9.5 -143
q0 -50 5.5 -105.5t19.5 -110.5t37 -105t58 -88t82.5 -60.5t110.5 -22.5q54 0 101 20t86 53t69.5 77t52 92t32.5 97t11 93l207 74v-819l-207 -74v623q-19 -82 -63.5 -158t-104.5 -134.5t-130.5 -94t-141.5 -35.5q-108 0 -196 44.5t-150 118.5t-95.5 170t-33.5 199
q0 111 30 223.5t85 215.5t132 193t170.5 156t201 104t223.5 38q43 0 92.5 -9.5t91 -31.5t69 -58.5t27.5 -91.5z" />
    <glyph glyph-name="H" unicode="H" horiz-adv-x="1325" 
d="M1137 43l-207 -74v568h-520v-494l-207 -74v568h-160l74 145h86v719l207 74v-793h520v719l207 74v-1432z" />
    <glyph glyph-name="I" unicode="I" horiz-adv-x="584" 
d="M395 43l-207 -74v1432l207 74v-1432z" />
    <glyph glyph-name="J" unicode="J" horiz-adv-x="854" 
d="M842 1434q-41 -50 -81.5 -99t-78.5 -100q-20 -26 -34.5 -48.5t-24.5 -45.5t-14.5 -49t-4.5 -58v-801q0 -99 -38.5 -189.5t-104.5 -160t-154 -110.5t-188 -41q-82 0 -154.5 29t-134.5 81l168 150q15 -31 42 -63.5t60 -59.5t69.5 -44.5t72.5 -17.5q49 0 79.5 24t47 60.5
t22.5 80t6 81.5v865q0 47 19.5 92t49.5 85.5t66 75.5t70 64h-221q-38 0 -68 -7.5t-55.5 -21.5t-48.5 -35t-47 -49l-29 33q34 46 81 95.5t101.5 90t115 67t122.5 26.5h289z" />
    <glyph glyph-name="K" unicode="K" horiz-adv-x="1257" 
d="M1245 240q-22 -39 -56.5 -84t-77.5 -83.5t-91.5 -64.5t-99.5 -26q-62 0 -113 27t-93.5 68t-78 91t-66.5 96q-43 63 -86.5 136.5t-87.5 138.5v-496l-207 -74v1432l207 74v-873l666 834l117 -11l-623 -739q75 -102 150 -213t153 -211q15 -20 33 -41.5t39 -39t45 -29
t53 -11.5q21 0 48 14.5t53 34.5t48 41.5t35 36.5z" />
    <glyph glyph-name="L" unicode="L" horiz-adv-x="1128" 
d="M1098 283l-201 -326q-68 12 -125.5 21t-113 16.5t-113.5 15.5t-125 19q-26 5 -51.5 7.5t-51.5 2.5q-55 0 -105.5 -15t-96.5 -47l-31 33q21 18 36 43t25.5 53.5t15.5 57.5t5 55v590q0 140 49 261t135.5 210.5t204 141t254.5 51.5q44 0 85 -10t72.5 -32t50.5 -57t19 -86
q0 -45 -17 -87t-46.5 -80t-68 -70.5t-80.5 -58.5t-86 -44t-83 -28l-16 38q34 20 70.5 46t66.5 57.5t49 69t19 81.5q0 35 -13 64.5t-35.5 50.5t-52 33t-63.5 12q-75 0 -132 -32t-96 -84t-59 -118t-20 -134v-644q0 -38 -11 -73.5t-29.5 -68t-43.5 -61.5t-53 -53q32 23 62 42.5
t61.5 33.5t65.5 21.5t75 7.5q50 0 89 -5t76.5 -10.5t76.5 -10.5t89 -5q35 0 67.5 10.5t61.5 28.5t54.5 41.5t46.5 50.5z" />
    <glyph glyph-name="M" unicode="M" horiz-adv-x="1794" 
d="M1794 137q-15 -29 -37.5 -56t-51 -47.5t-60.5 -33t-66 -12.5q-55 0 -97 21t-70 56.5t-42 81.5t-14 97v995q0 15 -3.5 30.5t-11.5 28t-20.5 20t-30.5 7.5q-30 0 -64.5 -24.5t-69 -70t-66.5 -109.5t-56.5 -142t-39.5 -168.5t-15 -189.5v-578l-207 -74v1270q0 15 -3.5 30.5
t-11.5 28t-20 20t-30 7.5q-30 0 -64.5 -36.5t-69 -97t-67 -139.5t-57 -163.5t-39.5 -168.5t-15 -155v-522l-207 -74v1432l207 74v-564q39 168 88.5 276t103 171t109.5 87.5t109 24.5q60 0 95 -14.5t53 -40t22.5 -60t3.5 -75.5v-297q30 124 78 215.5t104 152t115.5 90
t112.5 29.5q84 0 129 -35.5t45 -119.5v-1104q0 -20 4 -40t13.5 -35.5t25.5 -25.5t39 -10q34 0 65 20t51 46z" />
    <glyph glyph-name="N" unicode="N" horiz-adv-x="1264" 
d="M1270 137q-15 -29 -37.5 -56t-51 -47.5t-60.5 -33t-66 -12.5q-56 0 -97.5 21t-70 56.5t-42.5 81.5t-14 97v864v52.5t-2.5 56.5t-9.5 54t-21 45.5t-36.5 31.5t-56.5 12q-57 0 -102 -34t-79.5 -88.5t-59 -123t-40 -137.5t-22.5 -132t-7 -106v-692l-207 -76v1432l207 74
v-377q20 73 53.5 140.5t82 119.5t114 82.5t150.5 30.5q64 0 110 -23.5t75.5 -63.5t43.5 -93t14 -111v-971q0 -20 4.5 -40t14 -36.5t25.5 -26.5t40 -10q34 0 64.5 21t50.5 47z" />
    <glyph glyph-name="O" unicode="O" 
d="M1378 715q0 -92 -20 -183.5t-58.5 -174t-94 -153.5t-127.5 -123.5t-158.5 -82t-186.5 -29.5t-186.5 29.5t-158.5 82t-128 123.5t-95 153.5t-59 174t-20 183.5t20 183t59 173.5t95 154t128 123.5t158.5 81.5t186.5 29.5t186.5 -29.5t158.5 -81.5t127.5 -123.5t94 -154
t58.5 -173.5t20 -183zM643 1358q-65 0 -115.5 -22.5t-89.5 -61t-66 -89t-44 -106.5t-25 -114t-8 -111q0 -79 12 -167.5t38.5 -174.5t68 -164.5t100.5 -138.5t135.5 -95.5t173.5 -35.5q64 0 114.5 22.5t89.5 61t66 89.5t44.5 107t25.5 114.5t8 111.5q0 79 -12 167t-38.5 174
t-68 164.5t-100.5 138t-135.5 95t-173.5 35.5z" />
    <glyph glyph-name="P" unicode="P" horiz-adv-x="1247" 
d="M1214 1038q0 -86 -32.5 -165t-88 -148t-128.5 -125t-155 -96t-167 -62t-164 -22h-16.5t-16.5 2l11 55q65 11 131.5 33.5t127.5 56t114 78t92 99t61.5 119t22.5 138.5q0 71 -23 131t-64.5 104t-99.5 68.5t-129 24.5q-74 0 -151.5 -17t-153.5 -48t-146.5 -75.5
t-129.5 -98.5l-31 34q68 68 155.5 127.5t183.5 104t194.5 70.5t189.5 26q87 0 162.5 -30.5t131 -85.5t87.5 -131t32 -167zM401 45l-206 -76v1121l206 73v-1118z" />
    <glyph glyph-name="Q" unicode="Q" 
d="M1378 715q0 -108 -27.5 -213.5t-79 -198.5t-126.5 -166.5t-170 -116.5q32 -46 70 -78t81 -32q28 0 54 9.5t49 23.5l28 -41q-42 -44 -93 -74.5t-113 -30.5q-27 0 -55 7.5t-54.5 21t-49 32t-38.5 40.5q-19 26 -47 75q-19 -2 -37 -3t-37 -1q-100 0 -186.5 29.5t-158.5 82
t-128 123.5t-95 153.5t-59 174t-20 183.5t20 183t59 173.5t95 154t128 123.5t158.5 81.5t186.5 29.5t186.5 -29.5t158.5 -81.5t127.5 -123.5t94 -154t58.5 -173.5t20 -183zM643 1358q-65 0 -115.5 -22.5t-89.5 -61t-66 -89t-44 -106.5t-25 -114t-8 -111q0 -74 10.5 -155.5
t33 -162.5t58 -156t85.5 -136t115.5 -102.5t147.5 -55.5q-23 40 -47 78.5t-48.5 69t-48 49t-44.5 18.5q-12 0 -24.5 -2.5t-24.5 -5.5l-29 47q35 17 73.5 28t76.5 11q37 0 73 -12t67.5 -33t57 -49.5t41.5 -61.5q11 -25 26 -57.5t34 -67.5q67 25 113 79t75 121.5t42 142.5
t13 143q0 79 -12 167t-38.5 174t-68 164.5t-100.5 138t-135.5 95t-173.5 35.5z" />
    <glyph glyph-name="R" unicode="R" horiz-adv-x="1307" 
d="M1247 217q-27 -37 -64 -79.5t-81 -79t-93.5 -61t-101.5 -24.5q-35 0 -65 10.5t-55.5 28.5t-48 41.5t-42.5 48.5q-66 82 -128.5 165t-121.5 169l11 41q65 11 131.5 33.5t127.5 56t114 78t92 99t61.5 119t22.5 138.5q0 71 -23 131t-64.5 104t-99.5 68.5t-129 24.5
q-90 0 -168.5 -20t-149 -53.5t-135.5 -76.5t-128 -89l-31 34q60 58 129.5 116.5t156.5 105.5t194.5 76.5t242.5 29.5q91 0 167.5 -32t131.5 -89t86 -135t31 -170q0 -143 -72 -248.5t-195 -171.5q-15 -8 -37.5 -21t-49 -28t-54.5 -30t-54 -27.5t-48 -21.5t-37 -11
q21 -28 51.5 -67t63.5 -80t65.5 -78t58.5 -60q25 -21 50.5 -37t60.5 -16q27 0 54 11.5t52 29.5t47 39t39 39zM401 45l-206 -76v1121l206 73v-1118z" />
    <glyph glyph-name="S" unicode="S" horiz-adv-x="1106" 
d="M1065 1233l-168 -203q-22 66 -57 126t-83 105t-109 72t-136 27q-54 0 -100 -19.5t-80.5 -54t-54 -81.5t-19.5 -101q0 -56 21 -105t56 -88.5t80.5 -68.5t94.5 -45q49 -17 103 -38t106 -49t99 -62.5t83 -77.5t57 -95.5t21 -114.5q0 -90 -39.5 -161.5t-103.5 -120.5
t-146.5 -75t-167.5 -26q-58 0 -117.5 17t-114 46.5t-102 68.5t-82.5 84l162 186q15 -48 52.5 -102t87.5 -100t107.5 -76.5t111.5 -30.5q31 0 64 16t60.5 41.5t45.5 55.5t18 59q0 44 -18 83.5t-47.5 74.5t-68 64.5t-80 53t-83 41t-76.5 27.5q-69 21 -134.5 60t-116.5 94
t-82 123.5t-31 146.5q0 67 21 127t58 111t87 92.5t108 70t121 44t127 15.5q140 0 260 -62.5t205 -174.5z" />
    <glyph glyph-name="T" unicode="T" horiz-adv-x="1008" 
d="M1071 1468q-32 -48 -76 -90t-96.5 -74t-110.5 -50.5t-116 -18.5l-23 -2q-38 -48 -58 -93t-20 -106v-639q0 -133 -56.5 -236.5t-166.5 -178.5l-33 38q17 19 27 43.5t15 50.5t6.5 52.5t1.5 50.5v703q0 47 19.5 91.5t49.5 84.5t66.5 75t70.5 64l-331 2q-38 0 -67.5 -7.5
t-54.5 -21.5t-48 -35t-47 -49l-29 31q33 45 74.5 95t90 91t104 68t116.5 27h432q26 0 58.5 3t65.5 10t62.5 18.5t49.5 29.5z" />
    <glyph glyph-name="U" unicode="U" horiz-adv-x="1270" 
d="M1249 137q-15 -29 -37.5 -56t-51 -47.5t-60.5 -33t-66 -12.5q-55 0 -97 21t-70 56.5t-42 81.5t-14 97v118q-20 -74 -53 -142.5t-82 -122t-114.5 -85.5t-149.5 -32q-64 0 -110 23.5t-76 63.5t-44 92.5t-14 110.5v1104l207 74v-1104q0 -36 1 -80t12 -82t38 -64t78 -26
q57 0 101.5 34.5t79 90t58.5 125.5t39 139.5t22 133t7 106.5v653l207 74v-1237q0 -20 4 -40t14 -35.5t26 -25.5t40 -10q34 0 64.5 20t50.5 46z" />
    <glyph glyph-name="V" unicode="V" horiz-adv-x="1176" 
d="M600 -55l-588 1398l205 91l453 -1158q47 100 92 196q19 40 39.5 84t40 86t38 81t33.5 70q29 61 51.5 123.5t22.5 132.5q0 54 -15 102t-41.5 91.5t-63.5 82t-81 72.5l168 188q42 -27 76 -67t58 -86t37.5 -95t13.5 -94q0 -88 -28.5 -171.5t-66.5 -162.5q-29 -59 -63 -132
t-70.5 -151.5t-74 -159.5t-71.5 -157q-81 -178 -165 -364z" />
    <glyph glyph-name="W" unicode="W" horiz-adv-x="1591" 
d="M526 -35l-508 1378l203 91l377 -1084l143 389l-188 510l203 88l352 -1038q56 124 110.5 246.5t108.5 247.5q26 61 46 123.5t20 132.5q0 54 -13.5 102t-37.5 91.5t-57.5 82t-72.5 72.5l152 188q37 -27 67.5 -67t52.5 -86t34 -95t12 -94q0 -88 -26 -170.5t-60 -163.5
q-103 -238 -207 -472t-209 -472l-256 692z" />
    <glyph glyph-name="X" unicode="X" horiz-adv-x="1147" 
d="M53 1305l172 118l881 -1331l-172 -129zM37 -51l53 246q6 -2 13.5 -3.5t15.5 -1.5q52 0 100.5 36t89.5 88t72 109t49 99q37 91 75.5 181.5t80.5 181.5q23 49 51.5 109.5t63.5 122.5t76.5 120t90.5 103t105.5 72t122.5 26h12l-59 -250q-17 6 -34 8t-36 2q-36 0 -70.5 -12
t-65 -32.5t-56 -48t-42.5 -58.5q-38 -76 -73 -153.5t-70 -156.5q-56 -125 -111 -247t-114 -246q-21 -43 -54.5 -94.5t-76 -96t-92.5 -74.5t-103 -30h-14z" />
    <glyph glyph-name="Y" unicode="Y" horiz-adv-x="1264" 
d="M1073 53q0 -81 -20.5 -149t-59 -125t-94.5 -103.5t-127 -85.5q-18 -10 -41.5 -17t-48.5 -12t-49 -7.5t-45 -2.5q-81 0 -153 29t-134 82l168 148q15 -30 41 -62.5t59 -59t69.5 -44t72.5 -17.5q25 0 45 8q37 15 59 40.5t33.5 58t14.5 68.5t3 71v489q-20 -74 -53 -141.5
t-82 -119t-114.5 -82.5t-149.5 -31q-64 0 -110 24t-76 64t-44 92.5t-14 110.5v927q0 20 -4 40t-13.5 35.5t-25.5 25.5t-39 10q-34 0 -65 -20t-51 -46l-33 29q15 29 37.5 56t51 48t60.5 33.5t66 12.5q55 0 97 -21t70 -56.5t42 -81.5t14 -97v-820q0 -37 1 -81t12 -82.5
t38 -64.5t78 -26q57 0 101.5 34t79 88.5t58.5 123.5t39 138t22 131.5t7 105.5v653l207 74v-1395z" />
    <glyph glyph-name="Z" unicode="Z" horiz-adv-x="1159" 
d="M1116 1452q-85 -127 -160.5 -239.5t-147 -218.5t-141.5 -209t-143.5 -208.5t-152 -218t-168.5 -237.5q32 23 61.5 43t60 35t64.5 23.5t76 8.5q48 0 96.5 -8.5t96.5 -18t96.5 -18t97.5 -8.5q34 0 66.5 11t62 29t54.5 41.5t46 49.5l35 -26l-198 -324q-135 23 -266.5 44.5
t-264.5 41.5q-26 5 -51 7.5t-51 2.5q-56 0 -106.5 -14.5t-96.5 -46.5l-31 33q214 304 416 599.5t405 598.5h-215q-38 0 -96.5 0.5t-121 -1.5t-119.5 -8.5t-93 -21.5q-19 -8 -39 -20t-38 -27t-34 -31.5t-28 -32.5l-37 27l201 324h530q39 0 78.5 -1t78.5 3t76 15t70 34z" />
    <glyph glyph-name="bracketleft" unicode="[" horiz-adv-x="578" 
d="M539 -283h-387v1788h387v-71h-181v-1645h181v-72z" />
    <glyph glyph-name="backslash" unicode="\" horiz-adv-x="1163" 
d="M1104 33l-125 -82l-922 1450l113 78z" />
    <glyph glyph-name="bracketright" unicode="]" horiz-adv-x="578" 
d="M426 -283h-387v72h180v1645h-180v71h387v-1788z" />
    <glyph glyph-name="asciicircum" unicode="^" horiz-adv-x="565" 
d="M51 795l-51 41l279 413l286 -372l-100 -107l-227 307z" />
    <glyph glyph-name="underscore" unicode="_" horiz-adv-x="1118" 
d="M956 -147l-61 -162h-684l63 162h682z" />
    <glyph glyph-name="grave" unicode="`" horiz-adv-x="350" 
d="M0 1694l117 133l233 -279l-26 -37z" />
    <glyph glyph-name="a" unicode="a" horiz-adv-x="895" 
d="M891 119q-12 -26 -30 -49t-41.5 -41t-51 -28.5t-57.5 -10.5q-79 0 -113.5 43.5t-34.5 118.5v18q-18 -34 -40.5 -68t-51 -61t-63.5 -44t-78 -17q-65 0 -115 25t-84 67.5t-51 99.5t-17 121q0 87 30.5 173.5t86 154.5t133 110.5t172.5 42.5q38 0 76 -7t72.5 -22.5t63 -40.5
t46.5 -61l-149 -63q-12 19 -27.5 36.5t-34 30.5t-39.5 21t-44 8q-52 0 -92.5 -32t-69 -79t-43.5 -100t-15 -96q0 -38 7.5 -85.5t26.5 -89.5t50 -71t78 -29q37 0 64 16.5t46 43t31.5 61t19 70.5t9 71.5t2.5 63.5v69l182 64v-406q0 -20 10 -36.5t31 -16.5q25 0 45.5 18.5
t32.5 37.5z" />
    <glyph glyph-name="b" unicode="b" horiz-adv-x="850" 
d="M793 397q0 -71 -34.5 -144.5t-90.5 -134.5t-127.5 -99.5t-145.5 -38.5q-69 0 -122 23.5t-89 65t-54.5 98t-18.5 122.5v1081l184 64v-1178q0 -34 9 -67t27 -59.5t45.5 -43t65.5 -16.5q46 0 80.5 22.5t58 58t35 77.5t11.5 81q0 58 -21.5 117.5t-59.5 107.5t-89 80t-109 37
l166 123q54 -18 104.5 -56.5t89.5 -89.5t62 -111t23 -120z" />
    <glyph glyph-name="c" unicode="c" horiz-adv-x="805" 
d="M780 217q-35 -45 -76.5 -87.5t-90 -75.5t-102.5 -53.5t-112 -20.5q-74 0 -136 26t-107 74t-70 116t-25 152q0 88 35.5 167t95 138.5t138.5 94t166 34.5q34 0 68.5 -6.5t66 -20t58 -36t44.5 -53.5l-143 -78q-10 24 -28.5 42t-41.5 30t-48.5 18t-49.5 6q-48 0 -86 -21.5
t-64.5 -56t-40.5 -78t-14 -88.5q0 -86 21 -152t58 -111t87 -68t109 -23q34 0 70 17t69.5 42.5t64 54.5t54.5 52z" />
    <glyph glyph-name="d" unicode="d" horiz-adv-x="911" 
d="M897 119q-12 -26 -31 -49t-42 -41t-50.5 -28.5t-56.5 -10.5q-79 0 -114.5 43.5t-35.5 118.5v18q-17 -34 -39 -68t-50.5 -61t-64 -44t-79.5 -17q-67 0 -117.5 26.5t-84.5 71t-51.5 103.5t-17.5 124q0 84 26 169t76 154t123 112.5t167 43.5q58 0 112 -28v614l185 64v-1287
q0 -20 9.5 -36.5t31.5 -16.5q23 0 43 18.5t32 37.5zM567 420v213q-23 23 -51.5 38t-62.5 15q-59 0 -100 -32t-67 -80t-38 -103.5t-12 -103.5q0 -38 7.5 -85.5t26 -89t49 -70t76.5 -28.5q37 0 64.5 16.5t46.5 43t31 61t18.5 70.5t9 71.5t2.5 63.5z" />
    <glyph glyph-name="e" unicode="e" horiz-adv-x="813" 
d="M778 195q-35 -45 -76.5 -84t-90 -68t-102.5 -46t-112 -17q-74 0 -136 26.5t-107 73t-70 110t-25 136.5q0 60 17 118t48 109t73.5 94.5t93.5 74.5t108 48.5t117 17.5q42 0 79.5 -10t66.5 -31.5t46 -55t17 -79.5q0 -38 -22.5 -80t-59 -84t-82.5 -82.5t-93.5 -75
t-91.5 -60.5t-77 -40q37 -46 86 -75t104 -29q35 0 71 13.5t69.5 34.5t64 46t54.5 47zM537 575q0 23 -7.5 44t-21.5 36.5t-33.5 25t-44.5 9.5q-45 0 -83 -31.5t-65.5 -77.5t-43 -97.5t-15.5 -90.5q0 -38 12 -78t33 -77q40 22 87 61t87.5 85.5t67.5 96.5t27 94z" />
    <glyph glyph-name="f" unicode="f" horiz-adv-x="573" 
d="M721 1343l-125 -81q-17 46 -51.5 79t-87.5 33q-43 0 -69 -19.5t-39.5 -50t-18 -67t-4.5 -70.5v-393h262l-43 -100h-219v-877l-185 -78v955h-100l43 100h57v213q0 82 18 164.5t60 148.5t110 107t167 41q30 0 61.5 -7t61.5 -20.5t56.5 -33t45.5 -44.5z" />
    <glyph glyph-name="g" unicode="g" horiz-adv-x="850" 
d="M743 74q0 -59 -16 -120.5t-45.5 -120.5t-70.5 -111.5t-91.5 -91.5t-109 -62t-121.5 -23q-40 0 -76.5 13t-65.5 41l132 125q21 -28 49 -45t63 -17q51 0 83 19.5t51 52t27 74t10 85.5t0.5 86t-1.5 76v115q-18 -34 -40.5 -68t-51 -61t-63.5 -44t-78 -17q-65 0 -115 25
t-84 67.5t-51 99.5t-17 121q0 58 14 117.5t39.5 114.5t63 103t84 83.5t102.5 56t119 20.5q38 0 76 -9t72.5 -27.5t63 -45.5t46.5 -63l-149 -63q-12 19 -27.5 38.5t-34 35.5t-40 26t-44.5 10q-34 0 -63.5 -16t-54 -42t-43.5 -59.5t-32 -69.5t-19.5 -71t-6.5 -63
q0 -38 7.5 -85.5t26.5 -89.5t50 -71t78 -29q37 0 64 16.5t46 43t31.5 61t19 70.5t9 71.5t2.5 63.5v69l182 64v-479z" />
    <glyph glyph-name="h" unicode="h" horiz-adv-x="883" 
d="M870 117q-11 -26 -29.5 -49t-42 -41t-51 -28.5t-57.5 -10.5q-78 0 -113.5 43.5t-35.5 118.5v407q0 8 -1 17.5t-4.5 18t-9.5 14t-16 5.5q-26 0 -49 -21.5t-42 -58t-35.5 -83.5t-29.5 -98t-22.5 -102t-16.5 -96t-10.5 -79t-3.5 -51l-184 -64v1411l184 64v-1082
q6 36 19 82.5t32 94.5t44.5 95t57.5 83t70.5 58.5t83.5 22.5q46 0 70 -20.5t34.5 -52t11.5 -69.5t1 -73v-428q0 -20 9.5 -36.5t31.5 -16.5q25 0 45 18.5t33 36.5z" />
    <glyph glyph-name="i" unicode="i" horiz-adv-x="465" 
d="M311 1305l-53 -365l-98 -31l-60 324zM449 117q-23 -49 -53.5 -75t-58.5 -38q-33 -14 -67 -16q-44 0 -73 14t-46 37t-23.5 52t-6.5 59v561l184 63v-629q0 -24 11 -38t28.5 -14.5t38 12.5t39.5 42z" />
    <glyph glyph-name="j" unicode="j" horiz-adv-x="430" 
d="M319 1305l-55 -365l-96 -31l-59 324zM311 82q0 -70 -16.5 -132t-45 -116t-67.5 -100.5t-84 -83.5q-65 -50 -134 -77q-29 -12 -62 -19.5t-66.5 -7.5t-68 10t-66.5 34l113 142q52 -42 97.5 -51.5t79.5 -4.5q40 6 72 27q28 21 42 62.5t18.5 92.5t4 105.5t-0.5 102.5v645
l184 63v-692z" />
    <glyph glyph-name="k" unicode="k" horiz-adv-x="868" 
d="M846 111q-15 -26 -37 -49.5t-48.5 -40.5t-56.5 -27t-61 -10q-39 0 -81 29t-82 69.5t-76 83t-64 70.5l-16 -9q-5 -18 -9 -45t-7 -56t-4.5 -56.5t-2.5 -46.5l-184 -64v1411l184 64v-1110q11 37 27 85.5t37.5 100t49.5 101.5t62 89.5t75 63.5t89 24q29 0 52.5 -10.5
t40 -28.5t25.5 -42t9 -52q0 -57 -28 -109t-70.5 -97t-92 -81t-92.5 -61q14 -12 32 -32.5t37.5 -43.5t41 -47t42.5 -43t42.5 -31t40.5 -12q29 0 53 13t41 34zM578 582q0 17 -15 32t-31 15q-20 0 -40.5 -20t-39.5 -51t-36.5 -69t-31.5 -74t-24.5 -66.5t-15.5 -45.5
q14 10 36.5 30t48.5 45.5t52.5 54t48 56t35 52t13.5 41.5z" />
    <glyph glyph-name="l" unicode="l" horiz-adv-x="469" 
d="M453 117q-12 -26 -30.5 -49t-41.5 -41t-50.5 -28.5t-56.5 -10.5q-78 0 -113.5 43.5t-35.5 118.5v1220l184 64v-1289q0 -20 9 -36.5t32 -16.5t43.5 18.5t32.5 36.5z" />
    <glyph glyph-name="m" unicode="m" horiz-adv-x="1221" 
d="M1208 117q-23 -49 -54 -75t-59 -38q-33 -14 -67 -16q-45 0 -73.5 14t-45.5 37t-23.5 52t-6.5 59v419q0 16 -6 28.5t-16 14.5t-24 -10t-30 -43q-27 -80 -49 -168q-19 -76 -34.5 -171.5t-17.5 -196.5l-184 -64v610q0 16 -6 28.5t-16.5 14.5t-24.5 -10t-29 -43
q-30 -84 -52 -175q-10 -39 -19 -83t-15.5 -90.5t-10.5 -94t-3 -93.5l-182 -64v672q0 24 -11 38t-28.5 14.5t-38.5 -12.5t-41 -42l-27 30q23 48 53.5 74.5t59.5 38.5q33 14 68 16q44 0 72.5 -14t45 -36.5t23 -51.5t6.5 -59v-211q18 90 54 159t75.5 116.5t77.5 72t61 24.5
q29 0 47 -9.5t28 -28.5t13.5 -46.5t3.5 -64.5v-223q19 90 54.5 159t75.5 116.5t78 72t61 24.5q57 0 74.5 -37.5t17.5 -111.5v-494q0 -24 11 -38t28 -14.5t37.5 12.5t40.5 42z" />
    <glyph glyph-name="n" unicode="n" horiz-adv-x="946" 
d="M934 117q-12 -26 -31 -49t-42.5 -41t-50.5 -28.5t-56 -10.5q-79 0 -114.5 43.5t-35.5 118.5v407q0 7 -0.5 16.5t-3.5 18t-8 14.5t-14 6q-28 0 -56.5 -34t-55 -88t-49 -121t-39.5 -132.5t-26.5 -122.5t-9.5 -91l-182 -64v672q0 20 -10 36.5t-31 16.5q-25 0 -45.5 -18.5
t-32.5 -36.5l-27 30q12 25 30.5 48.5t42 41.5t51 28.5t57.5 10.5q78 0 112.5 -43.5t34.5 -117.5v-326q9 41 24.5 93.5t37.5 106.5t49.5 105.5t60.5 92t72 65t84 24.5q47 0 71 -20.5t34.5 -52t11.5 -69.5t1 -73v-428q0 -20 10 -36.5t31 -16.5q23 0 43.5 18.5t32.5 36.5z" />
    <glyph glyph-name="o" unicode="o" horiz-adv-x="856" 
d="M412 -23q-74 0 -138.5 26.5t-112 73.5t-75 110.5t-27.5 138.5q0 85 28 159.5t77.5 134.5t117 104t146.5 69l29 -35q-45 -33 -84 -75.5t-68 -92t-46 -104t-17 -111.5q0 -48 14 -101t42 -97t70.5 -72.5t98.5 -28.5q50 0 86.5 18t60.5 49t36 72.5t12 87.5q0 54 -21 110.5
t-57.5 104.5t-85.5 80t-105 37q35 40 77 74t85 65q58 -19 102.5 -56t75 -85t46.5 -104.5t16 -114.5q0 -79 -27.5 -157t-78 -140.5t-121 -101t-156.5 -38.5z" />
    <glyph glyph-name="p" unicode="p" horiz-adv-x="909" 
d="M489 -18q-35 0 -67 9.5t-60 31.5l78 112q19 -26 44.5 -40.5t56.5 -14.5q32 0 55 16.5t38.5 43.5t25.5 60.5t15 67.5t7 65.5t2 53.5q0 42 -11.5 91t-35 92t-60.5 71.5t-88 28.5q-35 0 -59.5 -17.5t-41 -46t-26 -65t-14 -73t-5.5 -71t-1 -59.5v-768l-182 -64v1123
q0 20 -10 36.5t-31 16.5q-25 0 -45.5 -18.5t-32.5 -36.5l-27 30q12 25 30.5 48.5t42 41.5t51 28.5t57.5 10.5q43 0 71 -12.5t45 -35.5t24 -55t7 -71q16 31 37.5 62.5t48.5 56t59.5 40t71.5 15.5q69 0 122.5 -30.5t90 -80t55.5 -111.5t19 -126q0 -79 -22.5 -160t-67 -147
t-111.5 -107.5t-156 -41.5z" />
    <glyph glyph-name="q" unicode="q" horiz-adv-x="850" 
d="M889 -324q-12 -25 -30.5 -48.5t-41.5 -42t-50.5 -29.5t-57.5 -11q-79 0 -113.5 44t-34.5 118v463q-18 -34 -40.5 -68t-51 -61t-63.5 -44t-78 -17q-65 0 -115 25t-84 67.5t-51 99.5t-17 121q0 58 14 117.5t39.5 114t63 102.5t84 83t102.5 55.5t119 20.5q38 0 76 -9
t72.5 -26.5t63 -44.5t46.5 -63l-149 -63q-12 19 -27.5 38.5t-34 35t-40 25t-44.5 9.5q-34 0 -63.5 -15.5t-54 -41.5t-43.5 -59.5t-32 -69t-19.5 -70t-6.5 -63.5q0 -38 7.5 -85.5t26.5 -89.5t50 -71t78 -29q55 0 89 35t52.5 85.5t24.5 106t6 97.5v71l182 64v-850
q0 -19 10 -35t31 -16q25 0 45.5 17.5t32.5 35.5z" />
    <glyph glyph-name="r" unicode="r" horiz-adv-x="686" 
d="M651 109q-18 -28 -44 -50.5t-57 -38.5t-65 -25t-67 -9q-44 0 -75.5 16.5t-51.5 43.5t-29.5 63t-9.5 75q0 51 15.5 109.5t42 115.5t60.5 106t72 81q-35 -23 -76.5 -36t-84.5 -13q-31 0 -54 5t-51 19l-104 -217l-43 17l108 221q-17 12 -36.5 30.5t-28.5 36.5l139 156
q9 -27 25 -54.5t37.5 -49t48 -35.5t57.5 -14q53 0 103 19.5t93 47.5l27 -27q-38 -35 -76.5 -77.5t-69.5 -90.5t-50 -101t-19 -107q0 -31 8.5 -69.5t26.5 -73t45 -58t65 -23.5q26 0 50.5 9.5t44.5 23.5z" />
    <glyph glyph-name="s" unicode="s" horiz-adv-x="602" 
d="M549 276q0 -62 -23 -116t-62.5 -94t-94 -63t-117.5 -23q-27 0 -58.5 5t-62.5 15t-58.5 25t-45.5 36l118 154q12 -19 29.5 -41.5t39 -41.5t46 -31.5t49.5 -12.5q29 0 54.5 10t44.5 28.5t30 43.5t11 55q0 40 -27.5 73.5t-65 65t-78 65t-65.5 73.5l-104 -152l-39 29l120 166
q-14 29 -22 61t-8 64q0 27 9 57t26 55t41.5 41.5t56.5 16.5q31 0 52.5 -19t21.5 -53q0 -18 -6 -36t-15 -36t-20 -34.5t-21 -30.5q24 -34 52 -59t55 -47t52 -44t43.5 -50t30 -65t11.5 -90zM322 750q0 14 -9.5 21t-21.5 7q-17 0 -24 -11.5t-7 -25.5q0 -20 6.5 -39t16.5 -36
q4 7 10.5 18t13 23.5t11 24t4.5 18.5z" />
    <glyph glyph-name="t" unicode="t" horiz-adv-x="537" 
d="M471 117q-23 -49 -53 -75t-59 -38q-33 -14 -68 -16q-45 0 -73.5 14t-45 37t-23 52t-6.5 59v524h-106l43 100h63v354l183 64v-418h190l-41 -100h-149v-529q0 -24 11 -38t28 -14.5t38 12.5t41 42z" />
    <glyph glyph-name="u" unicode="u" horiz-adv-x="924" 
d="M909 117q-23 -49 -54 -75t-59 -38q-33 -14 -67 -16q-45 0 -73.5 14t-45.5 37t-23.5 52t-6.5 59v319q-8 -36 -20.5 -86t-30.5 -104.5t-42 -108t-55.5 -95.5t-71 -68.5t-88.5 -26.5q-41 0 -64.5 15.5t-35 44t-14 68t-2.5 87.5v434q0 24 -11 38t-28.5 14.5t-38.5 -12.5
t-41 -42l-27 30q23 48 53 74.5t59 38.5q33 14 68 16q45 0 73.5 -14t45 -36.5t23 -51.5t6.5 -59v-414q0 -39 14 -51t36.5 3.5t50 57t55.5 109.5q18 65 35 134q14 59 28.5 130t22.5 137l184 64v-650q0 -24 11 -38t28 -14.5t37.5 12.5t40.5 42z" />
    <glyph glyph-name="v" unicode="v" horiz-adv-x="801" 
d="M430 -27q-12 0 -24.5 5.5t-18.5 17.5l-254 571q-5 9 -11.5 20.5t-15.5 21.5t-20 17t-23 7q-17 0 -29 -12.5t-22 -26.5l-20 27q10 30 28.5 57.5t43.5 48.5t55 34t63 13q25 0 45 -16.5t35.5 -40.5t27 -50t19.5 -44q48 -115 95.5 -228t97.5 -225l125 256q8 14 11 38t3 40
q0 59 -30 102.5t-83 69.5l115 158q56 -28 82.5 -75.5t26.5 -109.5q0 -31 -7.5 -68.5t-21.5 -66.5l-254 -520q-15 -21 -39 -21z" />
    <glyph glyph-name="w" unicode="w" horiz-adv-x="1118" 
d="M1065 649q0 -31 -7.5 -68.5t-21.5 -66.5l-233 -500q-6 -11 -16.5 -14.5t-22.5 -3.5q-14 0 -27 5t-18 19l-156 551l-139 -544q-8 -17 -22.5 -26t-32.5 -9q-13 0 -24.5 5t-14.5 19l-176 562q-4 12 -10.5 25.5t-16 25t-21 19t-26.5 7.5q-20 0 -36.5 -11t-29.5 -23l-20 26
q15 28 38 52.5t51 43.5t59.5 30t64.5 11q28 0 47 -16t32 -39t21.5 -49t14.5 -47q30 -94 59.5 -189t58.5 -188l99 401l-25 80l168 56l164 -582l94 215q6 15 10 38.5t4 39.5q0 60 -30.5 103t-81.5 69l114 158q56 -28 82.5 -75.5t26.5 -109.5z" />
    <glyph glyph-name="x" unicode="x" horiz-adv-x="874" 
d="M831 754l-75 -174q-22 18 -48.5 31.5t-54.5 13.5q-22 0 -41.5 -9t-35.5 -24t-28 -33.5t-20 -36.5l-20 -57q21 -44 41 -84q17 -34 35 -68.5t30 -54.5q19 -29 38 -59.5t42 -55.5q10 -11 24.5 -14.5t26.5 -3.5q19 0 36 5t32 13l25 -32q-14 -22 -34 -44t-43.5 -40t-50 -29.5
t-53.5 -11.5q-24 0 -42.5 7.5t-33.5 20t-28 29.5t-27 35q-11 17 -23.5 41.5t-25.5 50.5t-26 50.5t-25 41.5q-5 -17 -9 -34q-4 -14 -9 -29t-9 -23q-15 -32 -38 -66t-52.5 -61.5t-64.5 -45t-74 -17.5q-35 0 -68 13.5t-61 35.5l63 166q32 -20 70 -35.5t76 -15.5q12 0 25 2.5
t25.5 8t22.5 14t15 20.5q7 13 15 34l16 42q9 24 18 51l-188 301q-13 15 -31.5 24.5t-38.5 9.5q-17 0 -32 -6.5t-29 -17.5l-27 35q14 21 33.5 41.5t42.5 37t49 27t53 10.5q33 0 61 -16.5t52 -40.5t44 -52t36 -52q8 -11 17.5 -27.5t18.5 -32.5q11 -18 21 -39q10 24 21 48
q9 20 18.5 41.5t17.5 37.5q15 28 34 52t42.5 42t51.5 28.5t61 10.5q31 0 60 -8t56 -22z" />
    <glyph glyph-name="y" unicode="y" horiz-adv-x="883" 
d="M766 82q0 -72 -18 -140.5t-49.5 -129t-74.5 -111t-93.5 -87t-106.5 -57t-113 -20.5q-43 0 -81 14.5t-72 38.5l112 142q15 -12 33.5 -25t38.5 -23.5t41.5 -17t42.5 -6.5q38 0 64.5 23t43.5 59t27 81.5t14.5 90.5t5.5 85.5t1 66.5v403q-8 -35 -21 -84.5t-32.5 -104
t-44.5 -108t-56.5 -96.5t-70 -69.5t-83.5 -26.5q-46 0 -69.5 20.5t-34 52t-11.5 69.5t-1 73v432q0 18 -10 35.5t-31 17.5q-25 0 -45.5 -18.5t-32.5 -36.5l-27 30q12 25 30.5 48.5t42 41.5t51 28.5t57.5 10.5q78 0 112.5 -43.5t34.5 -117.5v-412q0 -6 0.5 -15.5t3.5 -18
t9 -15t16 -6.5q19 0 39 22t38 51t31 58t19 43q18 43 32 94t24.5 104.5t18 106t11.5 100.5l184 64v-717z" />
    <glyph glyph-name="z" unicode="z" horiz-adv-x="770" 
d="M205 139q19 13 44 21.5t51.5 14t53 7.5t49.5 2q35 0 77.5 -4t76.5 -4q45 0 88.5 7t85.5 24l-125 -205q-33 -12 -69 -12q-29 0 -59 5t-61 11.5t-61.5 11.5t-58.5 5q-57 0 -112 -11.5t-109 -29.5l-43 24l499 619q-29 -11 -61 -19q-28 -7 -62.5 -12.5t-72.5 -5.5
q-23 0 -43.5 1.5t-42 3.5t-45 3.5t-51.5 1.5q-16 0 -34 -2.5t-34 -5.5q-18 -4 -37 -8l127 192q31 0 58.5 -2t54.5 -4t54.5 -4t59.5 -2q72 0 143.5 7.5t139.5 27.5l25 -33z" />
    <glyph glyph-name="braceleft" unicode="{" horiz-adv-x="621" 
d="M596 -276q-39 -13 -84 -13q-95 0 -150.5 38.5t-84 99.5t-36.5 136t-8 148q0 48 2 98t-1 97t-13.5 90t-35.5 76.5t-67 56t-108 29.5v71q78 9 123 37t67 71t27.5 98.5t5.5 117.5q0 53 -1 114t4.5 122t20 116.5t45.5 98.5t82 68.5t128 25.5q22 0 43 -4.5t41 -10.5l-14 -55
q-17 6 -35 6q-44 0 -68.5 -14.5t-36 -39t-14 -56.5t-2.5 -66q0 -50 1 -98.5t1 -98.5q0 -55 -5 -110t-18.5 -106t-36.5 -95.5t-59 -78t-86.5 -54t-118.5 -23.5q70 2 121 -17.5t86.5 -54t58 -81.5t35 -100t17 -109.5t4.5 -110.5q0 -45 -1 -90t-1 -92q0 -35 2 -68.5t14 -59.5
t37 -42t70 -16q9 0 18 0.5t17 3.5z" />
    <glyph glyph-name="bar" unicode="|" horiz-adv-x="502" 
d="M354 -209l-207 -76v1717l207 73v-1714z" />
    <glyph glyph-name="braceright" unicode="}" horiz-adv-x="623" 
d="M610 580q-78 -9 -123 -37t-67 -71.5t-27.5 -99t-5.5 -118.5q0 -53 1 -113.5t-4.5 -121t-20 -116t-45 -98.5t-81.5 -68.5t-128 -25.5q-46 0 -84 13l14 55q9 -3 18 -3.5t19 -0.5q43 0 67 14.5t36 39t15 56t3 66.5q0 49 -2 97t-2 97q0 55 5 111t18.5 107t36.5 96t59 78.5
t87 53.5t119 23q-70 -2 -120.5 18t-86.5 54.5t-58.5 81t-35.5 99.5t-17.5 109t-4.5 109q0 47 1 92.5t1 90.5q0 36 -2 70t-13 60t-36 42t-70 16q-19 0 -37 -6l-14 55q20 6 41 10.5t43 4.5q64 0 109.5 -18t76.5 -49t50 -72t28.5 -88t12.5 -97t3 -98q0 -49 -2 -99t0.5 -97
t13 -89.5t35 -76t66.5 -56t108 -29.5v-71z" />
    <glyph glyph-name="asciitilde" unicode="~" horiz-adv-x="694" 
d="M594 711q-16 -35 -40 -56.5t-52.5 -30t-59 -4.5t-59.5 21q-29 18 -53 39t-44.5 37t-39.5 23.5t-39 -1.5q-17 -9 -25 -24q-7 -13 -6 -33.5t21 -50.5l-43 -21q-24 23 -35 46.5t-14 43.5q-4 22 -1 43q11 54 45 89t103 38q34 1 62.5 -10.5t52 -28t42.5 -34t35 -27.5
q17 -11 36.5 -10t33 13.5t17.5 36.5t-11 60l45 17q27 -32 35 -63.5t6 -56.5q-2 -30 -12 -56z" />
    <glyph glyph-name="dagger" unicode="&#x2020;" horiz-adv-x="786" 
d="M498 -209l-207 -76v1219h-209l20 72h189v426l207 73v-499h207l-19 -72h-188v-1143z" />
    <glyph glyph-name="degree" unicode="&#xb0;" horiz-adv-x="520" 
d="M451 1186q0 -39 -15 -73.5t-41 -60t-61 -40.5t-74 -15t-73.5 15t-60 40.5t-40 60t-14.5 73.5t14.5 73.5t40 60.5t60 41t73.5 15t74 -15t61 -41t41 -60.5t15 -73.5zM360 1139q0 25 -10 56.5t-27.5 59.5t-42.5 47t-55 19q-18 0 -30 -7.5t-19.5 -20t-10.5 -28t-3 -30.5
q0 -26 10 -57.5t27.5 -59t42 -46.5t53.5 -19q18 0 30.5 7.5t20 20t11 28t3.5 30.5z" />
    <glyph glyph-name="cent" unicode="&#xa2;" horiz-adv-x="891" 
d="M565 713l-14 26q28 14 50 35.5t38 47.5t24.5 55.5t8.5 58.5q0 35 -10 66t-29.5 54t-47.5 36.5t-65 13.5q-46 0 -84 -18t-68.5 -48t-53.5 -69.5t-38 -82.5t-22.5 -86.5t-7.5 -82.5q0 -59 18.5 -123t53.5 -118t86.5 -89t117.5 -35q62 0 115 32t96 77l25 -25
q-23 -30 -52 -58t-62 -52t-70 -42.5t-74 -29.5l35 -225l-150 -58l35 271q-75 -1 -134.5 36t-101 93.5t-63 125t-21.5 130.5q0 67 25 138.5t67.5 138.5t99.5 124t122 96l-41 265l149 55l-37 -285q32 14 65.5 20.5t67.5 6.5q39 0 73 -11.5t59 -33t39 -53.5t14 -72
q0 -49 -19.5 -97.5t-52.5 -90t-76 -72.5t-90 -45z" />
    <glyph glyph-name="sterling" unicode="&#xa3;" horiz-adv-x="903" 
d="M672 227q-44 8 -81.5 13.5t-73.5 10t-72.5 9.5t-79.5 12q-17 3 -33 5t-33 2q-68 0 -129 -39l-25 24q14 12 24 27.5t17 33.5t10 36.5t3 35.5v209h-93l44 111h49v57q0 90 32 168t87.5 136t131.5 91t164 33q28 0 55 -6.5t47.5 -21t33 -37.5t12.5 -56q0 -44 -24 -83
t-61 -70.5t-80.5 -53.5t-82.5 -32l-12 30q23 13 46.5 29.5t42 37t30.5 44.5t12 51q0 21 -8 39t-22 31.5t-32.5 21t-40.5 7.5q-46 0 -81.5 -20t-60 -53t-37.5 -75t-13 -86v-182h254l-41 -111h-213v-119q0 -38 -17 -74t-45 -65q32 22 65 34.5t77 12.5q31 0 56.5 -3t49 -7
t48.5 -7t57 -3q43 0 80 24.5t65 59.5l29 -21z" />
    <glyph glyph-name="section" unicode="&#xa7;" horiz-adv-x="995" 
d="M905 1337l-133 -163q-18 53 -46 101t-66 84t-87 57.5t-108 21.5q-43 0 -80.5 -15.5t-65 -43t-43.5 -65t-16 -81.5q0 -45 16.5 -84t44.5 -70.5t65 -55t77 -36.5q59 -20 125 -49t121.5 -70.5t92 -98.5t36.5 -132q0 -65 -25.5 -117t-69.5 -90q42 -40 68.5 -90t26.5 -113
q0 -72 -31.5 -128.5t-83.5 -96t-117.5 -60t-132.5 -20.5q-47 0 -94.5 13.5t-91.5 36.5t-82 54.5t-66 67.5l129 148q12 -38 42.5 -81t71 -80t86 -61t87.5 -24q25 0 51.5 13t49 33.5t37 44.5t14.5 46q0 53 -31 98t-76.5 81t-97 61t-92.5 37q-56 16 -108.5 47.5t-93.5 75
t-66 98t-25 117.5q0 60 20 112.5t58 95.5q-36 42 -57 92t-21 109q0 81 37 148.5t96 116.5t134 76.5t151 27.5q55 0 107.5 -13t99.5 -37.5t88.5 -59.5t74.5 -79zM707 543q0 53 -31 98t-76.5 80.5t-97 60.5t-92.5 37q-38 11 -73 28t-67 40q-5 -16 -7.5 -31.5t-2.5 -32.5
q0 -44 16.5 -83t44.5 -71t65 -55t77 -36q51 -17 107.5 -42t109.5 -57q12 16 19.5 32t7.5 32z" />
    <glyph glyph-name="bullet" unicode="&#x2022;" horiz-adv-x="582" 
d="M500 758q0 -43 -16.5 -81t-45 -66.5t-66.5 -45t-81 -16.5t-81 16.5t-66.5 45t-45 66.5t-16.5 81t16.5 81t45 66.5t66.5 45t81 16.5t81 -16.5t66.5 -45t45 -66.5t16.5 -81z" />
    <glyph glyph-name="paragraph" unicode="&#xb6;" horiz-adv-x="1346" 
d="M750 45l-207 -76v549q-64 12 -124 33.5t-112.5 53.5t-96 74.5t-73.5 96.5q-44 78 -53 160t13 157t73.5 138.5t128.5 105.5q79 45 178 70t204.5 32.5t211.5 -2.5t199 -36l-11 -45q-78 19 -161.5 23.5t-165 -5t-157.5 -32.5t-140 -58q-62 -35 -101 -84.5t-54.5 -108
t-7 -122t43.5 -125.5q37 -66 89.5 -112.5t115.5 -74.5v596l207 74v-721q45 -3 91 -0.5t91 10.5v637l207 74v-1282l-207 -76v563q-44 -12 -90 -18.5t-92 -9.5v-459z" />
    <glyph glyph-name="germandbls" unicode="&#xdf;" horiz-adv-x="991" 
d="M936 270q0 -63 -23 -117.5t-62.5 -95t-94 -63.5t-117.5 -23q-28 0 -59.5 5t-62.5 15.5t-58.5 26.5t-46.5 37l120 152q11 -19 28.5 -41.5t39 -41.5t46 -31.5t48.5 -12.5q30 0 56 10t45 28.5t29.5 43.5t9.5 55q-1 40 -29 74t-68.5 69t-88 75t-87.5 92.5t-67 122.5t-27 165
q0 46 19.5 97t43 103.5t43 105.5t19.5 104q0 27 -10 53t-28 47t-43 34t-54 13q-43 0 -69 -20t-40.5 -51t-19 -67.5t-4.5 -70.5v-1370l-185 -80v928h-100l43 100h57q0 66 1 143.5t10.5 156t31 151.5t62 129.5t104.5 90.5t158 34q51 0 94.5 -14t75 -42t49.5 -68.5t18 -94.5
q0 -39 -12 -73t-30 -66t-39.5 -63.5t-39.5 -64t-30 -67t-12 -74.5q0 -58 26.5 -102t66 -82t85.5 -74t85.5 -78t66 -93t26.5 -120z" />
    <glyph glyph-name="registered" unicode="&#xae;" horiz-adv-x="1171" 
d="M1055 700q0 -98 -37 -183t-101 -149t-149 -100.5t-182 -36.5t-182.5 36.5t-149 100.5t-100.5 149t-37 183q0 97 37 182t100.5 149t149 101t182.5 37t182 -37t149 -101t101 -149t37 -182zM1004 698q0 86 -33 162t-89.5 132.5t-132 89t-161.5 32.5t-162 -32.5t-132.5 -89
t-89 -132.5t-32.5 -162t32.5 -161.5t89 -132t132.5 -89t162 -32.5t161.5 32.5t132 89t89.5 132t33 161.5zM819 510q-12 -15 -27 -32.5t-33 -32.5t-38 -25t-41 -10q-29 0 -49 15.5t-37 37.5q-26 32 -52 66t-50 69l4 16q40 7 80.5 24.5t72.5 45t52 64t20 81.5q0 29 -9.5 54
t-26.5 43t-41 28.5t-52 10.5q-37 0 -69 -8t-61.5 -22t-56.5 -32t-53 -37l-12 15q25 24 53.5 48t64 43.5t79.5 31.5t100 12q37 0 68.5 -13t54 -36.5t35 -56t12.5 -70.5q0 -59 -29 -101.5t-80 -70.5q-10 -5 -26 -14t-32.5 -18.5t-32 -17t-23.5 -8.5q8 -11 20.5 -26.5t26 -32
t27 -31.5t24.5 -24q9 -10 19.5 -16.5t25.5 -6.5q22 0 43 16.5t35 30.5zM473 438l-84 -30v458l84 31v-459z" />
    <glyph glyph-name="copyright" unicode="&#xa9;" horiz-adv-x="1171" 
d="M762 913q0 -32 -12.5 -62.5t-33.5 -57t-48 -46t-56 -28.5l-8 14q35 17 56.5 53t21.5 74q0 47 -25.5 79t-74.5 32q-44 0 -77 -25t-55 -62.5t-33 -80.5t-11 -80q0 -38 12 -80t34.5 -76.5t56 -57t75.5 -22.5q40 0 74.5 20t62.5 48l12 -12q-18 -24 -42.5 -46t-53 -39.5
t-59.5 -27.5t-62 -10q-45 0 -82 23t-63 58.5t-40 78.5t-14 84q0 60 29 123t76 114.5t106 85t119 33.5q50 0 82.5 -28t32.5 -79zM1055 700q0 -98 -37 -183t-101 -149t-149 -100.5t-182 -36.5t-182.5 36.5t-149 100.5t-100.5 149t-37 183q0 97 37 182t100.5 149t149 101
t182.5 37t182 -37t149 -101t101 -149t37 -182zM1004 698q0 86 -33 162t-89.5 132.5t-132 89t-161.5 32.5t-162 -32.5t-132.5 -89t-89 -132.5t-32.5 -162t32.5 -161.5t89 -132t132.5 -89t162 -32.5t161.5 32.5t132 89t89.5 132t33 161.5z" />
    <glyph glyph-name="trademark" unicode="&#x2122;" horiz-adv-x="1128" 
d="M942 932q-20 0 -35 7.5t-25 20.5t-15 29t-5 33v328q0 9 -3.5 13.5t-8.5 4.5q-12 0 -28 -16.5t-30.5 -45.5t-25 -70t-10.5 -89v-174l-84 -31v408q0 18 -15 18q-11 0 -27 -24t-31 -60t-25.5 -78t-10.5 -78v-176l-84 -30v485l84 31v-138q13 38 28 63.5t31.5 41.5t33.5 22.5
t34 6.5q22 0 35.5 -6t20 -16t8.5 -23t2 -27v-45q23 57 58 87t67 30q31 0 48 -14t17 -46v-362q0 -13 4.5 -21t14.5 -8q19 0 36 27l23 -21q-12 -25 -34 -41t-48 -16zM328 1339h-4q-21 -25 -21 -57v-229q0 -93 -84 -148l-20 23q14 15 17 31.5t3 33.5v250q0 29 16.5 53.5
t36.5 42.5h-86q-23 0 -37 -9.5t-34 -31.5l-21 23q12 16 27 33.5t32 32.5t36.5 24.5t41.5 9.5h142q17 0 39.5 4.5t38.5 18.5l18 -19q-25 -37 -63 -61.5t-78 -24.5z" />
    <glyph glyph-name="acute" unicode="&#xb4;" horiz-adv-x="350" 
d="M25 1507l-25 35l233 279l117 -131z" />
    <glyph glyph-name="dieresis" unicode="&#xa8;" horiz-adv-x="483" 
d="M94 1692q19 0 36 -7.5t30 -20.5t20.5 -30.5t7.5 -36.5t-7.5 -36t-20.5 -30t-30 -20.5t-36 -7.5q-20 0 -37 7.5t-30 20.5t-20 30t-7 36t7 36.5t20 30.5t30 20.5t37 7.5zM391 1692q19 0 36 -7.5t29.5 -20.5t19.5 -30.5t7 -36.5t-7 -36t-19.5 -30t-29.5 -20.5t-36 -7.5
q-20 0 -37 7.5t-30 20.5t-20 30t-7 36t7 36.5t20 30.5t30 20.5t37 7.5z" />
    <glyph glyph-name="notequal" unicode="&#x2260;" horiz-adv-x="903" 
d="M283 176l-105 62l113 272h-215l63 162h217l68 166h-348l63 161h353l129 316l112 -37l-115 -279h203l-61 -161h-207l-68 -166h336l-61 -162h-340z" />
    <glyph glyph-name="AE" unicode="&#xc6;" horiz-adv-x="1976" 
d="M1163 688q34 26 71.5 47.5t72.5 38.5q-47 8 -83 33.5t-61 62.5v-182zM1948 393q-44 -81 -106.5 -154t-139 -129t-165 -89t-185.5 -33q-75 0 -146 25t-126.5 71t-89.5 110.5t-34 143.5v16v277q-14 -64 -32 -137.5t-44 -146t-61 -139.5t-82.5 -118.5t-108.5 -82t-139 -30.5
q-95 0 -170 36t-127.5 99t-80 149.5t-27.5 187.5q0 120 37.5 240.5t104.5 231.5t158 206t199 165t227.5 109t242.5 37h12v-45q-105 -5 -202 -45.5t-181.5 -106t-154.5 -151.5t-119.5 -183t-77 -200t-27.5 -203q0 -39 5 -83.5t17 -89t31 -85t47.5 -72t66.5 -50t87 -18.5
q59 0 107 36t87 97t69.5 142t53.5 171t38.5 183.5t25 179.5t14 159.5t4.5 123.5l207 76v-70q34 56 86.5 101.5t113 77.5t126 49.5t127.5 17.5q81 0 149.5 -32.5t120.5 -94.5l-145 -106q-21 29 -45.5 54.5t-53 44t-61.5 29.5t-70 11q-46 0 -90 -16.5t-79 -46t-56.5 -70.5
t-21.5 -90q0 -51 22 -94.5t58 -75.5t82.5 -50t95.5 -18q54 0 104 18l14 -41q-81 -26 -161.5 -66.5t-144 -97.5t-103 -132t-39.5 -170q0 -55 16 -102t46.5 -82t75 -55t100.5 -20q58 0 130 23.5t141 62.5t126 89t86 102z" />
    <glyph glyph-name="Oslash" unicode="&#xd8;" 
d="M1073 1049l-545 -854q59 -54 131.5 -85.5t163.5 -31.5q64 0 114.5 22.5t89.5 61t66 89.5t44.5 107t25.5 114.5t8 111.5q0 54 -6 112.5t-18 118.5t-30.5 119t-43.5 115zM432 315l559 867q-31 40 -67.5 72.5t-80 55.5t-93.5 35.5t-107 12.5q-65 0 -115.5 -22.5t-89.5 -61
t-66 -89t-44 -106.5t-25 -114t-8 -111q0 -64 8 -134t24.5 -140t42.5 -138t62 -127zM375 -49l-125 82l67 106q-55 54 -98 120.5t-72.5 141t-45 154t-15.5 160.5q0 92 20 183t59 173.5t95 154t128 123.5t158.5 81.5t186.5 29.5q105 0 195 -33t166 -90l90 142l112 -78
l-102 -162q45 -53 79 -114.5t57.5 -129t35.5 -138.5t12 -142q0 -92 -20 -183.5t-58.5 -174t-94 -153.5t-127.5 -123.5t-158.5 -82t-186.5 -29.5q-83 0 -157.5 21t-139.5 59z" />
    <glyph glyph-name="infinity" unicode="&#x221e;" horiz-adv-x="1186" 
d="M823 461q-81 0 -146 40t-110 105q-21 -27 -45.5 -51.5t-53 -43.5t-61 -30.5t-69.5 -11.5q-45 0 -86.5 14t-74 40.5t-52 65t-19.5 87.5q0 53 19 102.5t53 87.5t81 61t103 23q82 0 146.5 -40t107.5 -103q21 26 46 51t54 44t62 30.5t70 11.5q45 0 86.5 -14t73.5 -41
t51.5 -65.5t19.5 -86.5q0 -54 -19 -103.5t-53 -88t-81 -61.5t-103 -23zM817 819q-49 0 -89.5 -26.5t-72.5 -63.5q19 -32 43.5 -60.5t54 -50t63 -34.5t69.5 -13q49 0 82.5 30.5t33.5 80.5q0 31 -18 56.5t-45 43.5t-59.5 27.5t-61.5 9.5zM301 842q-24 0 -46 -8t-38 -23
t-25.5 -36t-9.5 -46q0 -31 18 -56t45.5 -43t60.5 -28t63 -10q49 0 88.5 27t70.5 65q-18 31 -42 59.5t-53 50.5t-62.5 35t-69.5 13z" />
    <glyph glyph-name="plusminus" unicode="&#xb1;" horiz-adv-x="956" 
d="M850 836l-62 -162h-229v-230l-162 -63v293h-293l64 162h229v229l162 63v-292h291zM850 283l-62 -162h-684l64 162h682z" />
    <glyph glyph-name="lessequal" unicode="&#x2264;" horiz-adv-x="758" 
d="M621 387l-35 -43l-486 361l486 391l35 -29l-248 -362zM641 283l-61 -162h-480l64 162h477z" />
    <glyph glyph-name="greaterequal" unicode="&#x2265;" horiz-adv-x="762" 
d="M662 705l-486 -361l-35 43l248 318l-248 362l35 29zM662 283l-62 -162h-479l63 162h478z" />
    <glyph glyph-name="yen" unicode="&#xa5;" horiz-adv-x="930" 
d="M580 594h135l-43 -109h-121v-180l-137 -49v229h-187l43 109h125l-311 547l137 61l311 -596l105 182q20 39 32.5 79t12.5 83q0 69 -23.5 124t-78.5 100l110 124q27 -18 49.5 -43.5t39 -55t25.5 -61.5t9 -63q0 -20 -12.5 -55t-33 -79t-46 -93t-51.5 -95.5t-49.5 -88
t-40.5 -70.5z" />
    <glyph glyph-name="mu" unicode="&#xb5;" horiz-adv-x="1040" 
d="M403 -299l-184 -76q0 113 0.5 244t0.5 264.5t0.5 261.5t0.5 234q0 24 -11 38t-28.5 14.5t-38.5 -12.5t-41 -42l-26 30q22 48 52.5 74.5t59.5 38.5q33 14 68 16q45 0 73.5 -14t45 -36.5t22.5 -51.5t6 -59v-414q0 -39 14 -51t36.5 3.5t50 57t55.5 109.5q18 65 35 134
q14 59 28.5 130t22.5 137l184 64v-650q0 -24 11 -38t28.5 -14.5t38 12.5t39.5 42l29 -30q-23 -49 -54 -75t-59 -38q-33 -14 -67 -16q-45 0 -74 14t-46 37t-23.5 52t-6.5 59v319q-7 -32 -17.5 -75t-25 -90t-33.5 -95t-43.5 -90t-55 -75t-67.5 -50v-293z" />
    <glyph glyph-name="partialdiff" unicode="&#x2202;" horiz-adv-x="956" 
d="M850 434q0 -89 -30.5 -171.5t-82 -146t-119 -101.5t-141.5 -38q-85 0 -155.5 38.5t-121 101t-78.5 140.5t-28 157q0 58 16 114.5t47 104.5t75.5 85t101.5 56q43 -31 85 -65t77 -74q-56 -5 -105 -37t-85.5 -80t-57.5 -104.5t-21 -110.5q0 -46 12 -87.5t36 -72.5t60.5 -49
t86.5 -18q56 0 101.5 30.5t77.5 83t49.5 121.5t17.5 146q0 128 -27.5 236.5t-71.5 197.5t-99 160t-110 124t-105 89t-83 57l29 35q53 -19 122 -51.5t141 -83.5t141.5 -122t123.5 -167t87.5 -219.5t33.5 -278.5z" />
    <glyph glyph-name="summation" unicode="&#x2211;" horiz-adv-x="981" 
d="M887 0h-797v68l410 643l-410 653v70h797v-72h-590l410 -649l-410 -641h590v-72z" />
    <glyph glyph-name="ordfeminine" unicode="&#xaa;" horiz-adv-x="846" 
d="M780 903q-9 -20 -23.5 -38.5t-33.5 -32.5t-40.5 -22.5t-45.5 -8.5q-63 0 -91 34.5t-28 94.5v14q-14 -27 -32 -54t-40.5 -48.5t-51 -35t-62.5 -13.5q-52 0 -92 20t-67 54t-40.5 79t-13.5 96q0 70 24.5 139t68.5 123.5t106.5 88.5t138.5 34q30 0 60.5 -5.5t58.5 -17.5
t50.5 -32t37.5 -49l-121 -51q-17 31 -48 54.5t-69 23.5q-41 0 -73 -26t-54.5 -63.5t-34.5 -81t-12 -77.5q0 -30 6 -68t21 -71.5t39.5 -56.5t62.5 -23q45 0 72 28.5t41.5 69t19 85.5t4.5 79v55l148 49v-323q0 -16 7 -28.5t25 -12.5q19 0 35 14.5t27 28.5zM715 641l-49 -129
h-547l49 129h547z" />
    <glyph glyph-name="ordmasculine" unicode="&#xba;" horiz-adv-x="823" 
d="M401 793q-59 0 -110.5 21t-89.5 58t-60 88t-22 111q0 68 22.5 128t62 108t93.5 83t117 54l22 -27q-35 -26 -66.5 -60t-55 -74t-37 -84t-13.5 -89q0 -39 11.5 -81.5t34 -77.5t56.5 -58t78 -23q40 0 69.5 14.5t48.5 39.5t28.5 58.5t9.5 70.5q0 43 -16.5 88.5t-45.5 83.5
t-68.5 64t-84.5 30q29 32 62.5 59t68.5 52q45 -15 80.5 -44.5t60 -68.5t37.5 -84t13 -92q0 -63 -22 -125.5t-62.5 -112t-96.5 -80t-125 -30.5zM715 643l-49 -129h-547l49 129h547z" />
    <glyph glyph-name="ae" unicode="&#xe6;" horiz-adv-x="1356" 
d="M1079 575q0 23 -7.5 44t-21 36.5t-33.5 25t-44 9.5q-45 0 -83 -32t-65.5 -78t-43 -97t-15.5 -90q0 -42 12.5 -81.5t32.5 -73.5q37 21 84 59t87.5 84.5t68.5 97t28 96.5zM629 567l80 41q24 39 57.5 72t77 57t97 37.5t118.5 13.5q41 0 79 -10.5t67 -32t46 -55t17 -78.5
q0 -38 -22.5 -80t-59 -84t-83 -82.5t-93.5 -75t-90.5 -60.5t-75.5 -40q34 -43 82.5 -73.5t105.5 -30.5q35 0 71 13.5t69.5 34t63.5 45.5t54 48l33 -32q-35 -45 -77.5 -84t-91 -68t-102.5 -46t-112 -17q-57 0 -108.5 17.5t-93.5 49t-73.5 76t-48.5 98.5q-15 -42 -43.5 -85
t-65.5 -77.5t-82 -56.5t-93 -22q-57 0 -106.5 20t-86 54.5t-57.5 82t-21 103.5q0 116 39.5 215.5t107 172.5t155.5 114.5t186 41.5q56 0 102.5 -16.5t89.5 -54.5l-118 -86q-7 26 -22 46q-13 17 -35.5 31.5t-57.5 12.5q-64 -3 -112 -45.5t-80.5 -103.5t-49 -130.5
t-16.5 -126.5q0 -29 5.5 -67t19.5 -72t39.5 -57t64.5 -23q37 0 75.5 23t70.5 57.5t53 76t24 77.5q3 27 7.5 49t9 48t7.5 60t3 84z" />
    <glyph glyph-name="oslash" unicode="&#xf8;" horiz-adv-x="856" 
d="M592 508l-248 -385q25 -22 55.5 -34.5t67.5 -12.5q50 0 86.5 18t60.5 49t36 72.5t12 87.5q0 51 -19 104.5t-51 100.5zM207 -88l-103 68l62 94q-50 46 -78.5 111t-28.5 141q0 85 28 159.5t77.5 134.5t117 104t146.5 69l29 -35q-45 -33 -84 -75.5t-68 -92t-46 -104
t-17 -111.5q0 -34 6.5 -72t21.5 -72l238 361q-54 37 -115 43q35 40 77 74t85 65q30 -9 57 -24l60 88l92 -64l-64 -98q47 -53 71 -121.5t24 -140.5q0 -79 -27.5 -157t-78 -140.5t-121 -101t-156.5 -38.5q-39 0 -75.5 7.5t-68.5 21.5z" />
    <glyph glyph-name="questiondown" unicode="&#xbf;" horiz-adv-x="1018" 
d="M90 -53q0 52 9.5 102.5t29.5 96.5t50 87t71 74q44 37 93.5 79t92 89.5t72.5 101t35 115.5l108 27v-19q2 -87 -23.5 -154t-64.5 -123.5t-85 -107t-86 -104.5t-66.5 -115.5t-26.5 -140.5q0 -59 21 -114t58 -98t88.5 -69t113.5 -26q42 0 81.5 15t70 42t49 64t18.5 81
q0 56 -25 106.5t-65 88.5l139 121q21 -21 37.5 -48t27 -57t16 -61.5t5.5 -60.5q0 -84 -37.5 -155t-98.5 -123t-138 -81t-156 -29q-45 0 -92 9.5t-91 27.5t-83 44.5t-70 60.5q-21 24 -36 55t-24.5 65t-13.5 68t-4 66zM481 930q0 24 9 44.5t24.5 36t36.5 24.5t45 9t44.5 -9
t36.5 -24.5t25 -36t9 -44.5t-9 -45.5t-25 -37t-36.5 -25t-44.5 -9.5t-45 9.5t-36.5 25t-24.5 37t-9 45.5z" />
    <glyph glyph-name="exclamdown" unicode="&#xa1;" horiz-adv-x="492" 
d="M119 -449l84 1121l106 24l82 -1071zM139 909q0 24 9.5 45t25.5 36.5t37 24.5t45 9t44.5 -9t36.5 -24.5t25 -36.5t9 -45t-9 -45t-25 -36.5t-36.5 -25t-44.5 -9.5t-45 9.5t-37 25t-25.5 36.5t-9.5 45z" />
    <glyph glyph-name="logicalnot" unicode="&#xac;" horiz-adv-x="954" 
d="M711 674h-623l64 162h682v-363l-123 -104v305z" />
    <glyph glyph-name="florin" unicode="&#x192;" horiz-adv-x="571" 
d="M719 1343l-123 -81q-19 46 -52.5 79t-86.5 33q-43 0 -69 -19.5t-40.5 -50t-19 -67t-4.5 -70.5v-393h262l-41 -100h-221v-529q0 -82 -18 -164t-59 -148t-109 -107t-167 -41q-30 0 -62 7t-62 20.5t-56.5 33t-44.5 43.5l123 82q9 -23 22.5 -43.5t30.5 -36t38.5 -24.5
t47.5 -9q43 0 69 19.5t40.5 50t19 67t4.5 70.5v709h-100l41 100h59v213q0 82 18 164.5t59 148.5t109 107t167 41q30 0 62 -7t62 -20.5t56.5 -33t44.5 -44.5z" />
    <glyph glyph-name="approxequal" unicode="&#x2248;" horiz-adv-x="776" 
d="M627 567q-16 -35 -40 -56t-52.5 -29.5t-59 -4.5t-59.5 21q-29 18 -53 39t-44.5 37t-39.5 23.5t-39 -1.5q-17 -10 -25 -25q-7 -13 -6.5 -33.5t20.5 -50.5l-43 -20q-24 23 -34.5 46t-13.5 43q-4 23 -1 44q11 54 45 89t103 38q34 1 62.5 -10.5t52 -28t42.5 -34t35 -27.5
q17 -11 36.5 -10t33 13.5t17.5 36.5t-11 60l45 16q27 -32 35 -63.5t6 -56.5q-2 -30 -12 -56zM627 874q-16 -35 -40 -56t-52.5 -29.5t-59 -4.5t-59.5 21q-29 18 -53 39t-44.5 37t-39.5 23.5t-39 -1.5q-17 -9 -25 -24q-7 -13 -6.5 -34t20.5 -50l-43 -21q-24 23 -34.5 46.5
t-13.5 43.5q-4 22 -1 43q11 54 45 89t103 38q34 1 62.5 -10.5t52 -28t42.5 -34t35 -27.5q17 -11 36.5 -10t33 13.5t17.5 36.5t-11 60l45 17q27 -32 35 -63t6 -57q-2 -30 -12 -57z" />
    <glyph glyph-name="guillemotleft" unicode="&#xab;" horiz-adv-x="868" 
d="M455 164l-35 -45l-357 262l357 262l35 -31l-168 -231zM760 164l-35 -45l-356 262l356 262l35 -31l-168 -231z" />
    <glyph glyph-name="guillemotright" unicode="&#xbb;" horiz-adv-x="868" 
d="M805 381l-356 -262l-35 45l168 217l-168 231l35 31zM500 381l-357 -262l-34 45l167 217l-167 231l34 31z" />
    <glyph glyph-name="OE" unicode="&#x152;" horiz-adv-x="2171" 
d="M643 1358q-65 0 -115.5 -22.5t-89.5 -61t-66 -89t-44 -106.5t-25 -114t-8 -111q0 -79 12 -167.5t38.5 -174.5t68 -164.5t100.5 -138.5t135.5 -95.5t173.5 -35.5q64 0 114.5 22.5t89.5 61t66 89.5t44.5 107t25.5 114.5t8 111.5q0 79 -12 167t-38.5 174t-68 164.5
t-100.5 138t-135.5 95t-173.5 35.5zM1378 705q31 20 61.5 37.5t61.5 31.5q-42 8 -75.5 30t-59.5 54q6 -35 10 -71.5t2 -71.5v-10zM2142 393q-44 -81 -106.5 -154t-139 -129t-165 -89t-185.5 -33q-54 0 -107 13.5t-100 38.5t-85.5 61.5t-63.5 82.5q-84 -97 -198.5 -156
t-258.5 -59q-100 0 -186.5 29.5t-158.5 82t-128 123.5t-95 153.5t-59 174t-20 183.5t20 183t59 173.5t95 154t128 123.5t158.5 81.5t186.5 29.5q102 0 191 -31t161.5 -85.5t129 -128.5t94.5 -160q6 87 55 159.5t121.5 125t158.5 81.5t166 29q82 0 150 -32.5t121 -94.5
l-146 -106q-21 29 -45.5 54.5t-53 44t-61 29.5t-69.5 11q-46 0 -90.5 -16.5t-79.5 -46t-56.5 -70.5t-21.5 -90q0 -51 22 -94.5t58 -75.5t82.5 -50t95.5 -18q55 0 105 18l14 -41q-81 -26 -161.5 -66.5t-144.5 -97.5t-103.5 -132t-39.5 -170q0 -55 16 -102t47 -82t75 -55
t100 -20q39 0 84.5 11t93 30t94 45.5t87.5 57t73 64.5t51 69z" />
    <glyph glyph-name="oe" unicode="&#x153;" horiz-adv-x="1415" 
d="M1382 195q-35 -45 -77.5 -84t-91 -68t-102.5 -46t-112 -17q-97 0 -172 44.5t-118 118.5q-26 -36 -57.5 -66.5t-69 -52.5t-80 -34.5t-90.5 -12.5q-74 0 -138.5 26.5t-112 73.5t-75 110.5t-27.5 138.5q0 85 28 159.5t77.5 134.5t117 104t146.5 69l29 -35q-45 -33 -84 -75.5
t-68 -92t-46 -104t-17 -111.5q0 -48 14 -101t42 -97t70.5 -72.5t98.5 -28.5q50 0 86.5 18t60.5 49t36 72.5t12 87.5q0 54 -21 110.5t-57.5 104.5t-85.5 80t-105 37q35 40 77 74t85 65q69 -23 119.5 -70.5t79.5 -109.5q32 43 73 79t87.5 61.5t98 39.5t105.5 14q42 0 79.5 -10
t66.5 -31.5t46 -55t17 -79.5q0 -38 -22.5 -80t-59 -84t-82.5 -82.5t-93 -75t-91 -60.5t-76 -40q35 -46 84 -75t105 -29q35 0 71 13.5t70 34.5t64.5 46t54.5 47zM1139 575q0 23 -7.5 44t-21.5 36.5t-33.5 25t-44.5 9.5q-45 0 -83 -31.5t-65.5 -77.5t-43 -97.5t-15.5 -90.5
q0 -38 12 -78t33 -77q40 22 87 61t87.5 85.5t67.5 96.5t27 94z" />
    <glyph glyph-name="endash" unicode="&#x2013;" horiz-adv-x="1034" 
d="M920 836v-162h-820v162h820z" />
    <glyph glyph-name="emdash" unicode="&#x2014;" horiz-adv-x="1853" 
d="M1739 836v-162h-1639v162h1639z" />
    <glyph glyph-name="quotedblleft" unicode="&#x201c;" horiz-adv-x="688" 
d="M612 1182q0 -24 -9.5 -45t-25 -36.5t-36.5 -24.5t-45 -9t-45 9t-36.5 24.5t-24.5 36.5t-9 45q0 40 13 74.5t35.5 64.5t52 55t61.5 45l37 -32q-19 -17 -35 -43t-21 -52q38 -9 63 -40.5t25 -71.5zM305 1182q0 -24 -9.5 -45t-25 -36.5t-37 -24.5t-45.5 -9t-44.5 9t-36 24.5
t-24.5 36.5t-9 45q0 40 13 74.5t35.5 64.5t52 55t61.5 45l36 -32q-18 -17 -34 -43t-21 -52q38 -9 63 -40.5t25 -71.5z" />
    <glyph glyph-name="quotedblright" unicode="&#x201d;" horiz-adv-x="680" 
d="M309 1305q0 -39 -13 -74t-35.5 -65t-52 -55t-61.5 -44l-36 31q18 17 34 43t21 51q-38 11 -63 41.5t-25 71.5q0 24 9 45t24.5 36.5t36.5 25t45 9.5t45 -9.5t36.5 -25t25 -36.5t9.5 -45zM616 1305q0 -39 -13 -74t-35 -65t-51.5 -55t-61.5 -44l-37 31q18 17 34 43t21 51
q-38 11 -63 41.5t-25 71.5q0 24 9 45t24.5 36.5t36.5 25t45 9.5t45 -9.5t36.5 -25t25 -36.5t9.5 -45z" />
    <glyph glyph-name="quoteleft" unicode="&#x2018;" horiz-adv-x="381" 
d="M305 1182q0 -24 -9.5 -45t-25 -36.5t-37 -24.5t-45.5 -9t-44.5 9t-36 24.5t-24.5 36.5t-9 45q0 40 13 74.5t35.5 64.5t52 55t61.5 45l36 -32q-18 -17 -34 -43t-21 -52q38 -9 63 -40.5t25 -71.5z" />
    <glyph glyph-name="quoteright" unicode="&#x2019;" horiz-adv-x="373" 
d="M309 1305q0 -39 -13 -74t-35.5 -65t-52 -55t-61.5 -44l-36 31q18 17 34 43t21 51q-38 11 -63 41.5t-25 71.5q0 24 9 45t24.5 36.5t36.5 25t45 9.5t45 -9.5t36.5 -25t25 -36.5t9.5 -45z" />
    <glyph glyph-name="divide" unicode="&#xf7;" horiz-adv-x="938" 
d="M842 836l-62 -162h-684l64 162h682zM475 1096q19 0 36 -7.5t30 -20.5t20.5 -30.5t7.5 -36.5q0 -20 -7.5 -37t-20.5 -30t-30 -20t-36 -7t-36 7t-30 20t-20.5 30t-7.5 37q0 19 7.5 36.5t20.5 30.5t30 20.5t36 7.5zM475 604q19 0 36 -7.5t30 -20.5t20.5 -30t7.5 -36
q0 -20 -7.5 -37t-20.5 -30t-30 -20t-36 -7t-36 7t-30 20t-20.5 30t-7.5 37q0 19 7.5 36t20.5 30t30 20.5t36 7.5z" />
    <glyph glyph-name="fraction" unicode="&#x2044;" horiz-adv-x="852" 
d="M72 31l-105 69l821 1305l97 -66z" />
    <glyph glyph-name="Euro" unicode="&#x20ac;" horiz-adv-x="1022" 
d="M682 715l-16 28q28 14 50.5 35t38.5 47t24.5 55.5t8.5 59.5q0 35 -10 66t-29 54t-48 36.5t-66 13.5q-51 0 -92 -22t-73 -58.5t-54.5 -83.5t-34.5 -96h215l-41 -111h-193v-16q0 -20 3 -41t6 -43h225l-41 -109h-147q18 -36 41 -67.5t52 -54.5t63.5 -36.5t74.5 -13.5
q62 0 115 31.5t96 77.5l24 -25q-28 -38 -67 -73t-84.5 -62t-95 -43t-97.5 -16q-57 0 -106 24t-88 63.5t-66 90t-41 104.5h-118l43 109h63q0 25 4 50.5t10 49.5h-120l43 111h120q35 68 86 130t112 109t128 75t135 28q39 0 73 -11.5t59 -33.5t39 -54t14 -73q0 -49 -19.5 -97.5
t-52.5 -89.5t-76 -72t-90 -46z" />
    <glyph glyph-name="guilsinglleft" unicode="&#x2039;" horiz-adv-x="563" 
d="M455 164l-35 -45l-357 262l357 262l35 -31l-168 -231z" />
    <glyph glyph-name="guilsinglright" unicode="&#x203a;" horiz-adv-x="563" 
d="M500 381l-357 -262l-34 45l167 217l-167 231l34 31z" />
    <glyph glyph-name="daggerdbl" unicode="&#x2021;" horiz-adv-x="799" 
d="M711 360l-19 -71h-188v-498l-207 -76v574h-209l21 71h188v574h-209l21 72h188v426l207 73v-499h207l-19 -72h-188v-574h207z" />
    <glyph glyph-name="periodcentered" unicode="&#xb7;" horiz-adv-x="428" 
d="M330 731q0 -24 -9.5 -44.5t-25.5 -36.5t-37 -25t-45 -9t-44.5 9t-36.5 25t-25 36.5t-9 44.5t9 45.5t25 37t36.5 25t44.5 9.5t45 -9.5t37 -25t25.5 -37t9.5 -45.5z" />
    <glyph glyph-name="quotesinglbase" unicode="&#x201a;" horiz-adv-x="440" 
d="M336 76q0 -39 -13 -74t-35.5 -65t-52 -55t-61.5 -44l-37 31q19 17 35 43t21 51q-39 11 -64 42t-25 71q0 24 9 45t25 37t36.5 25.5t44.5 9.5t45.5 -9.5t37 -25.5t25 -37t9.5 -45z" />
    <glyph glyph-name="quotedblbase" unicode="&#x201e;" horiz-adv-x="748" 
d="M336 76q0 -39 -13 -74t-35.5 -65t-52 -55t-61.5 -44l-37 31q19 17 35 43t21 51q-39 11 -64 42t-25 71q0 24 9 45t25 37t36.5 25.5t44.5 9.5t45.5 -9.5t37 -25.5t25 -37t9.5 -45zM643 76q0 -39 -13 -74t-35.5 -65t-52 -55t-61.5 -44l-37 31q19 17 35 43t21 51
q-38 11 -63 42t-25 71q0 24 9 45t24.5 37t36 25.5t44.5 9.5t45.5 -9.5t37 -25.5t25 -37t9.5 -45z" />
    <glyph glyph-name="perthousand" unicode="&#x2030;" horiz-adv-x="2116" 
d="M1073 25q-71 0 -127 32.5t-96 85t-61 118.5t-21 134q0 69 21 135.5t61 119.5t96 85.5t127 32.5t127.5 -33t96 -86t60.5 -120t21 -134q0 -68 -21 -134t-60.5 -118.5t-96 -85t-127.5 -32.5zM383 31l-104 69l821 1305l96 -66zM403 668q-71 0 -127 32.5t-96 85t-61 118.5
t-21 134t21 134.5t61 119.5t96 86t127 33t127.5 -33t96.5 -86t61 -119.5t21 -134.5t-21 -134t-61 -118.5t-96.5 -85t-127.5 -32.5zM1040 698q-40 0 -69 -21.5t-47.5 -55t-27.5 -76t-9 -84.5q0 -54 15.5 -116t44 -115.5t69.5 -88.5t92 -35q40 0 69 21.5t48 56t28 77.5t9 85
q0 55 -15.5 116.5t-44 114t-69.5 87t-93 34.5zM371 1341q-40 0 -69 -21t-48 -55t-28 -76.5t-9 -84.5q0 -36 7 -76t20 -79.5t32 -75.5t43.5 -63t54.5 -43.5t64 -16.5q40 0 69 21.5t48 56t28 77t9 84.5q0 55 -15.5 116.5t-44 114t-69.5 87t-92 34.5zM1729 25
q-71 0 -127.5 32.5t-96.5 85t-61 118.5t-21 134q0 69 21 135.5t61 119.5t96.5 85.5t127.5 32.5q70 0 126.5 -33t96.5 -86t61 -120t21 -134q0 -68 -21 -134t-61 -118.5t-96.5 -85t-126.5 -32.5zM1696 698q-40 0 -69 -21.5t-48 -55t-28 -76t-9 -84.5q0 -54 15.5 -116
t44 -115.5t69.5 -88.5t92 -35q40 0 69 21.5t48 56t28 77.5t9 85q0 55 -15.5 116.5t-44 114t-69.5 87t-92 34.5z" />
    <glyph glyph-name="dotlessi" unicode="&#x131;" horiz-adv-x="465" 
d="M449 117q-23 -49 -53.5 -75t-58.5 -38q-33 -14 -67 -16q-44 0 -73 14t-46 37t-23.5 52t-6.5 59v561l184 63v-629q0 -24 11 -38t28.5 -14.5t38 12.5t39.5 42z" />
    <glyph glyph-name="circumflex" unicode="&#x2c6;" horiz-adv-x="565" 
d="M51 1511l-51 41l279 312l286 -271l-100 -106l-244 231z" />
    <glyph glyph-name="tilde" unicode="&#x2dc;" horiz-adv-x="440" 
d="M82 1511l-39 -20q-21 23 -30 46t-12 43q-4 23 -1 44q9 54 38 89t91 38q31 1 56 -10.5t45.5 -28t37 -34t31.5 -27.5q15 -11 31.5 -10t28 13.5t15 36.5t-8.5 60l38 16q24 -32 31 -63.5t6 -56.5q-1 -30 -10 -56q-14 -35 -35 -56t-46 -29.5t-51.5 -4.5t-51.5 21
q-26 18 -47 39t-39.5 37t-35 23.5t-34.5 -1.5q-15 -10 -22 -25q-6 -13 -5.5 -33.5t19.5 -50.5z" />
    <glyph glyph-name="macron" unicode="&#xaf;" horiz-adv-x="485" 
d="M0 1518l72 157h413l-69 -157h-416z" />
    <glyph glyph-name="breve" unicode="&#x2d8;" horiz-adv-x="426" 
d="M80 1837l29 -22q-16 -22 -22.5 -48.5t-6.5 -52.5q0 -27 7.5 -59.5t23.5 -60.5t40 -47t56 -19q43 0 69.5 27.5t26.5 70.5q0 37 -18 73.5t-47 59.5l131 84q57 -63 57 -151q0 -51 -18 -92.5t-49.5 -71.5t-75 -46t-93.5 -16q-41 0 -76 13.5t-60.5 37.5t-39.5 58t-14 76
q0 24 6 50t16.5 50.5t25 47t32.5 38.5z" />
    <glyph glyph-name="dotaccent" unicode="&#x2d9;" horiz-adv-x="188" 
d="M94 1692q19 0 36 -7.5t30 -20.5t20.5 -30.5t7.5 -36.5t-7.5 -36t-20.5 -30t-30 -20.5t-36 -7.5q-20 0 -37 7.5t-30 20.5t-20 30t-7 36t7 36.5t20 30.5t30 20.5t37 7.5z" />
    <glyph glyph-name="ring" unicode="&#x2da;" horiz-adv-x="391" 
d="M195 1894q40 0 76 -15.5t62.5 -42t42 -62.5t15.5 -76t-15.5 -75.5t-42 -62t-62.5 -42t-76 -15.5t-75.5 15.5t-62 42t-42 62t-15.5 75.5t15.5 76t42 62.5t62 42t75.5 15.5zM252 1575q15 7 24.5 23t11.5 37.5t-2 46.5t-16 51t-28.5 46t-34.5 32t-36.5 15.5t-33.5 -3.5
t-24 -23t-11 -37.5t2.5 -47t16.5 -50.5q12 -26 28 -46t34 -32t36 -15.5t33 3.5z" />
    <glyph glyph-name="cedilla" unicode="&#xb8;" horiz-adv-x="223" 
d="M62 13l23 -13l-43 -72q14 8 28.5 13t26.5 7q14 3 28 3q18 0 35.5 -7t31.5 -20.5t22.5 -35t8.5 -49.5t-11.5 -49.5t-29 -36.5t-39 -22.5t-41.5 -7.5q-21 1 -39 8q-16 6 -33.5 19.5t-29.5 39.5l23 16q7 -12 15.5 -18t16.5 -9q9 -4 17 -4q23 0 40.5 18t17.5 46q0 26 -17 45
t-46 19q-10 0 -19 -2q-8 -2 -15.5 -4.5t-9.5 -7.5l-23 19z" />
    <glyph glyph-name="hungarumlaut" unicode="&#x2dd;" horiz-adv-x="616" 
d="M25 1507l-25 35l233 279l117 -131zM291 1507l-25 35l234 279l116 -131z" />
    <glyph glyph-name="ogonek" unicode="&#x2db;" horiz-adv-x="233" 
d="M130 18l16 -18q-38 -41 -50 -72t-11 -51q1 -25 15 -41q16 -16 34 -20q15 -4 35 1.5t41 32.5l23 -19q-20 -31 -39.5 -48.5t-34.5 -27.5q-18 -11 -34 -16q-22 -4 -48 2.5t-46.5 24.5t-28.5 48.5t6 74.5q9 21 25 43q14 19 37 42t60 44z" />
    <glyph glyph-name="caron" unicode="&#x2c7;" horiz-adv-x="565" 
d="M565 1798l-276 -311l-289 270l102 107l244 -232l170 207z" />
    <glyph glyph-name="Scaron" unicode="&#x160;" horiz-adv-x="1106" 
d="M1065 1233l-168 -203q-22 66 -57 126t-83 105t-109 72t-136 27q-54 0 -100 -19.5t-80.5 -54t-54 -81.5t-19.5 -101q0 -56 21 -105t56 -88.5t80.5 -68.5t94.5 -45q49 -17 103 -38t106 -49t99 -62.5t83 -77.5t57 -95.5t21 -114.5q0 -90 -39.5 -161.5t-103.5 -120.5
t-146.5 -75t-167.5 -26q-58 0 -117.5 17t-114 46.5t-102 68.5t-82.5 84l162 186q15 -48 52.5 -102t87.5 -100t107.5 -76.5t111.5 -30.5q31 0 64 16t60.5 41.5t45.5 55.5t18 59q0 44 -18 83.5t-47.5 74.5t-68 64.5t-80 53t-83 41t-76.5 27.5q-69 21 -134.5 60t-116.5 94
t-82 123.5t-31 146.5q0 67 21 127t58 111t87 92.5t108 70t121 44t127 15.5q140 0 260 -62.5t205 -174.5zM854 1841l-276 -311l-289 270l102 107l244 -232l170 207z" />
    <glyph glyph-name="scaron" unicode="&#x161;" horiz-adv-x="602" 
d="M549 276q0 -62 -23 -116t-62.5 -94t-94 -63t-117.5 -23q-27 0 -58.5 5t-62.5 15t-58.5 25t-45.5 36l118 154q12 -19 29.5 -41.5t39 -41.5t46 -31.5t49.5 -12.5q29 0 54.5 10t44.5 28.5t30 43.5t11 55q0 40 -27.5 73.5t-65 65t-78 65t-65.5 73.5l-104 -152l-39 29l120 166
q-14 29 -22 61t-8 64q0 27 9 57t26 55t41.5 41.5t56.5 16.5q31 0 52.5 -19t21.5 -53q0 -18 -6 -36t-15 -36t-20 -34.5t-21 -30.5q24 -34 52 -59t55 -47t52 -44t43.5 -50t30 -65t11.5 -90zM322 750q0 14 -9.5 21t-21.5 7q-17 0 -24 -11.5t-7 -25.5q0 -20 6.5 -39t16.5 -36
q4 7 10.5 18t13 23.5t11 24t4.5 18.5zM571 1199l-276 -311l-289 270l102 107l244 -232l170 207z" />
    <glyph glyph-name="Yacute" unicode="&#xdd;" horiz-adv-x="1264" 
d="M1073 53q0 -81 -20.5 -149t-59 -125t-94.5 -103.5t-127 -85.5q-18 -10 -41.5 -17t-48.5 -12t-49 -7.5t-45 -2.5q-81 0 -153 29t-134 82l168 148q15 -30 41 -62.5t59 -59t69.5 -44t72.5 -17.5q25 0 45 8q37 15 59 40.5t33.5 58t14.5 68.5t3 71v489q-20 -74 -53 -141.5
t-82 -119t-114.5 -82.5t-149.5 -31q-64 0 -110 24t-76 64t-44 92.5t-14 110.5v927q0 20 -4 40t-13.5 35.5t-25.5 25.5t-39 10q-34 0 -65 -20t-51 -46l-33 29q15 29 37.5 56t51 48t60.5 33.5t66 12.5q55 0 97 -21t70 -56.5t42 -81.5t14 -97v-820q0 -37 1 -81t12 -82.5
t38 -64.5t78 -26q57 0 101.5 34t79 88.5t58.5 123.5t39 138t22 131.5t7 105.5v653l207 74v-1395zM639 1479l-25 35l233 279l117 -131z" />
    <glyph glyph-name="yacute" unicode="&#xfd;" horiz-adv-x="883" 
d="M766 82q0 -72 -18 -140.5t-49.5 -129t-74.5 -111t-93.5 -87t-106.5 -57t-113 -20.5q-43 0 -81 14.5t-72 38.5l112 142q15 -12 33.5 -25t38.5 -23.5t41.5 -17t42.5 -6.5q38 0 64.5 23t43.5 59t27 81.5t14.5 90.5t5.5 85.5t1 66.5v403q-8 -35 -21 -84.5t-32.5 -104
t-44.5 -108t-56.5 -96.5t-70 -69.5t-83.5 -26.5q-46 0 -69.5 20.5t-34 52t-11.5 69.5t-1 73v432q0 18 -10 35.5t-31 17.5q-25 0 -45.5 -18.5t-32.5 -36.5l-27 30q12 25 30.5 48.5t42 41.5t51 28.5t57.5 10.5q78 0 112.5 -43.5t34.5 -117.5v-412q0 -6 0.5 -15.5t3.5 -18
t9 -15t16 -6.5q19 0 39 22t38 51t31 58t19 43q18 43 32 94t24.5 104.5t18 106t11.5 100.5l184 64v-717zM474 840l-25 35l233 279l117 -131z" />
    <glyph glyph-name="Zcaron" unicode="&#x17d;" horiz-adv-x="1159" 
d="M1116 1452q-85 -127 -160.5 -239.5t-147 -218.5t-141.5 -209t-143.5 -208.5t-152 -218t-168.5 -237.5q32 23 61.5 43t60 35t64.5 23.5t76 8.5q48 0 96.5 -8.5t96.5 -18t96.5 -18t97.5 -8.5q34 0 66.5 11t62 29t54.5 41.5t46 49.5l35 -26l-198 -324q-135 23 -266.5 44.5
t-264.5 41.5q-26 5 -51 7.5t-51 2.5q-56 0 -106.5 -14.5t-96.5 -46.5l-31 33q214 304 416 599.5t405 598.5h-215q-38 0 -96.5 0.5t-121 -1.5t-119.5 -8.5t-93 -21.5q-19 -8 -39 -20t-38 -27t-34 -31.5t-28 -32.5l-37 27l201 324h530q39 0 78.5 -1t78.5 3t76 15t70 34z
M866 1804l-276 -311l-289 270l102 107l244 -232l170 207z" />
    <glyph glyph-name="zcaron" unicode="&#x17e;" horiz-adv-x="770" 
d="M205 139q19 13 44 21.5t51.5 14t53 7.5t49.5 2q35 0 77.5 -4t76.5 -4q45 0 88.5 7t85.5 24l-125 -205q-33 -12 -69 -12q-29 0 -59 5t-61 11.5t-61.5 11.5t-58.5 5q-57 0 -112 -11.5t-109 -29.5l-43 24l499 619q-29 -11 -61 -19q-28 -7 -62.5 -12.5t-72.5 -5.5
q-23 0 -43.5 1.5t-42 3.5t-45 3.5t-51.5 1.5q-16 0 -34 -2.5t-34 -5.5q-18 -4 -37 -8l127 192q31 0 58.5 -2t54.5 -4t54.5 -4t59.5 -2q72 0 143.5 7.5t139.5 27.5l25 -33zM663 1131l-276 -311l-289 270l102 107l244 -232l170 207z" />
    <glyph glyph-name="ydieresis" unicode="&#xff;" horiz-adv-x="883" 
d="M766 82q0 -72 -18 -140.5t-49.5 -129t-74.5 -111t-93.5 -87t-106.5 -57t-113 -20.5q-43 0 -81 14.5t-72 38.5l112 142q15 -12 33.5 -25t38.5 -23.5t41.5 -17t42.5 -6.5q38 0 64.5 23t43.5 59t27 81.5t14.5 90.5t5.5 85.5t1 66.5v403q-8 -35 -21 -84.5t-32.5 -104
t-44.5 -108t-56.5 -96.5t-70 -69.5t-83.5 -26.5q-46 0 -69.5 20.5t-34 52t-11.5 69.5t-1 73v432q0 18 -10 35.5t-31 17.5q-25 0 -45.5 -18.5t-32.5 -36.5l-27 30q12 25 30.5 48.5t42 41.5t51 28.5t57.5 10.5q78 0 112.5 -43.5t34.5 -117.5v-412q0 -6 0.5 -15.5t3.5 -18
t9 -15t16 -6.5q19 0 39 22t38 51t31 58t19 43q18 43 32 94t24.5 104.5t18 106t11.5 100.5l184 64v-717zM241 1044q19 0 36 -7.5t30 -20.5t20.5 -30.5t7.5 -36.5t-7.5 -36t-20.5 -30t-30 -20.5t-36 -7.5q-20 0 -37 7.5t-30 20.5t-20 30t-7 36t7 36.5t20 30.5t30 20.5t37 7.5z
M538 1044q19 0 36 -7.5t29.5 -20.5t19.5 -30.5t7 -36.5t-7 -36t-19.5 -30t-29.5 -20.5t-36 -7.5q-20 0 -37 7.5t-30 20.5t-20 30t-7 36t7 36.5t20 30.5t30 20.5t37 7.5z" />
    <glyph glyph-name="Ydieresis" unicode="&#x178;" horiz-adv-x="1264" 
d="M1073 53q0 -81 -20.5 -149t-59 -125t-94.5 -103.5t-127 -85.5q-18 -10 -41.5 -17t-48.5 -12t-49 -7.5t-45 -2.5q-81 0 -153 29t-134 82l168 148q15 -30 41 -62.5t59 -59t69.5 -44t72.5 -17.5q25 0 45 8q37 15 59 40.5t33.5 58t14.5 68.5t3 71v489q-20 -74 -53 -141.5
t-82 -119t-114.5 -82.5t-149.5 -31q-64 0 -110 24t-76 64t-44 92.5t-14 110.5v927q0 20 -4 40t-13.5 35.5t-25.5 25.5t-39 10q-34 0 -65 -20t-51 -46l-33 29q15 29 37.5 56t51 48t60.5 33.5t66 12.5q55 0 97 -21t70 -56.5t42 -81.5t14 -97v-820q0 -37 1 -81t12 -82.5
t38 -64.5t78 -26q57 0 101.5 34t79 88.5t58.5 123.5t39 138t22 131.5t7 105.5v653l207 74v-1395zM456 1691q19 0 36 -7.5t30 -20.5t20.5 -30.5t7.5 -36.5t-7.5 -36t-20.5 -30t-30 -20.5t-36 -7.5q-20 0 -37 7.5t-30 20.5t-20 30t-7 36t7 36.5t20 30.5t30 20.5t37 7.5z
M753 1691q19 0 36 -7.5t29.5 -20.5t19.5 -30.5t7 -36.5t-7 -36t-19.5 -30t-29.5 -20.5t-36 -7.5q-20 0 -37 7.5t-30 20.5t-20 30t-7 36t7 36.5t20 30.5t30 20.5t37 7.5z" />
    <glyph glyph-name="Agrave" unicode="&#xc0;" horiz-adv-x="1391" 
d="M1395 137q-15 -29 -37.5 -56t-51 -47.5t-60.5 -33t-66 -12.5q-56 0 -97.5 21t-70 56.5t-42.5 81.5t-14 97v387q-14 -64 -32 -137.5t-44 -146t-61 -139.5t-82.5 -118.5t-108.5 -82t-139 -30.5q-95 0 -170 36t-127.5 99t-80 149.5t-27.5 187.5q0 120 38 240.5t104.5 231.5
t158 206t199.5 165t227.5 109t241.5 37h12v-45q-105 -5 -202 -45.5t-181.5 -106t-154.5 -151.5t-119.5 -183t-77 -200t-27.5 -203q0 -39 5 -83.5t17 -89t31 -85t47.5 -72t66.5 -50t87 -18.5q59 0 107 36t87 97t69.5 142t53.5 171t38.5 183.5t25 179.5t14 159.5t4.5 123.5
l207 76v-1063q0 -20 4 -40t14 -36.5t25.5 -26.5t38.5 -10q35 0 66 21t51 47zM563 1681l117 133l233 -279l-26 -37z" />
    <glyph glyph-name="Atilde" unicode="&#xc3;" horiz-adv-x="1391" 
d="M1395 137q-15 -29 -37.5 -56t-51 -47.5t-60.5 -33t-66 -12.5q-56 0 -97.5 21t-70 56.5t-42.5 81.5t-14 97v387q-14 -64 -32 -137.5t-44 -146t-61 -139.5t-82.5 -118.5t-108.5 -82t-139 -30.5q-95 0 -170 36t-127.5 99t-80 149.5t-27.5 187.5q0 120 38 240.5t104.5 231.5
t158 206t199.5 165t227.5 109t241.5 37h12v-45q-105 -5 -202 -45.5t-181.5 -106t-154.5 -151.5t-119.5 -183t-77 -200t-27.5 -203q0 -39 5 -83.5t17 -89t31 -85t47.5 -72t66.5 -50t87 -18.5q59 0 107 36t87 97t69.5 142t53.5 171t38.5 183.5t25 179.5t14 159.5t4.5 123.5
l207 76v-1063q0 -20 4 -40t14 -36.5t25.5 -26.5t38.5 -10q35 0 66 21t51 47zM594 1515l-39 -20q-21 23 -30 46t-12 43q-4 23 -1 44q9 54 38 89t91 38q31 1 56 -10.5t45.5 -28t37 -34t31.5 -27.5q15 -11 31.5 -10t28 13.5t15 36.5t-8.5 60l38 16q24 -32 31 -63.5t6 -56.5
q-1 -30 -10 -56q-14 -35 -35 -56t-46 -29.5t-51.5 -4.5t-51.5 21q-26 18 -47 39t-39.5 37t-35 23.5t-34.5 -1.5q-15 -10 -22 -25q-6 -13 -5.5 -33.5t19.5 -50.5z" />
    <glyph glyph-name="Otilde" unicode="&#xd5;" 
d="M1378 715q0 -92 -20 -183.5t-58.5 -174t-94 -153.5t-127.5 -123.5t-158.5 -82t-186.5 -29.5t-186.5 29.5t-158.5 82t-128 123.5t-95 153.5t-59 174t-20 183.5t20 183t59 173.5t95 154t128 123.5t158.5 81.5t186.5 29.5t186.5 -29.5t158.5 -81.5t127.5 -123.5t94 -154
t58.5 -173.5t20 -183zM643 1358q-65 0 -115.5 -22.5t-89.5 -61t-66 -89t-44 -106.5t-25 -114t-8 -111q0 -79 12 -167.5t38.5 -174.5t68 -164.5t100.5 -138.5t135.5 -95.5t173.5 -35.5q64 0 114.5 22.5t89.5 61t66 89.5t44.5 107t25.5 114.5t8 111.5q0 79 -12 167t-38.5 174
t-68 164.5t-100.5 138t-135.5 95t-173.5 35.5zM586 1540l-39 -20q-21 23 -30 46t-12 43q-4 23 -1 44q9 54 38 89t91 38q31 1 56 -10.5t45.5 -28t37 -34t31.5 -27.5q15 -11 31.5 -10t28 13.5t15 36.5t-8.5 60l38 16q24 -32 31 -63.5t6 -56.5q-1 -30 -10 -56q-14 -35 -35 -56
t-46 -29.5t-51.5 -4.5t-51.5 21q-26 18 -47 39t-39.5 37t-35 23.5t-34.5 -1.5q-15 -10 -22 -25q-6 -13 -5.5 -33.5t19.5 -50.5z" />
    <glyph glyph-name="Acircumflex" unicode="&#xc2;" horiz-adv-x="1391" 
d="M1395 137q-15 -29 -37.5 -56t-51 -47.5t-60.5 -33t-66 -12.5q-56 0 -97.5 21t-70 56.5t-42.5 81.5t-14 97v387q-14 -64 -32 -137.5t-44 -146t-61 -139.5t-82.5 -118.5t-108.5 -82t-139 -30.5q-95 0 -170 36t-127.5 99t-80 149.5t-27.5 187.5q0 120 38 240.5t104.5 231.5
t158 206t199.5 165t227.5 109t241.5 37h12v-45q-105 -5 -202 -45.5t-181.5 -106t-154.5 -151.5t-119.5 -183t-77 -200t-27.5 -203q0 -39 5 -83.5t17 -89t31 -85t47.5 -72t66.5 -50t87 -18.5q59 0 107 36t87 97t69.5 142t53.5 171t38.5 183.5t25 179.5t14 159.5t4.5 123.5
l207 76v-1063q0 -20 4 -40t14 -36.5t25.5 -26.5t38.5 -10q35 0 66 21t51 47zM508 1529l-51 41l279 312l286 -271l-100 -106l-244 231z" />
    <glyph glyph-name="Ecircumflex" unicode="&#xca;" horiz-adv-x="1092" 
d="M1063 393q-44 -81 -106.5 -154t-139 -129t-165 -89t-185.5 -33q-75 0 -146 25t-126.5 71t-89 110.5t-33.5 143.5q0 77 31 143.5t80.5 121.5t112 98t126.5 73q-45 8 -81 33t-61 60t-38 78t-13 87q0 61 22 115.5t59.5 101t87.5 84t105.5 63.5t114 40t113.5 14
q82 0 150 -32.5t120 -94.5l-145 -106q-21 29 -45.5 54.5t-53 44t-61 29.5t-69.5 11q-46 0 -90.5 -16.5t-79.5 -46t-56.5 -70.5t-21.5 -90q0 -51 22 -94.5t58 -75.5t82.5 -50t95.5 -18q56 0 104 18l15 -41q-81 -26 -161.5 -66.5t-144.5 -97.5t-103.5 -132t-39.5 -170
q0 -55 16 -102t46.5 -82t75 -55t100.5 -20q58 0 130 23.5t141 62.5t126 89t86 102zM418 1534l-51 41l279 312l286 -271l-100 -106l-244 231z" />
    <glyph glyph-name="Aacute" unicode="&#xc1;" horiz-adv-x="1391" 
d="M1395 137q-15 -29 -37.5 -56t-51 -47.5t-60.5 -33t-66 -12.5q-56 0 -97.5 21t-70 56.5t-42.5 81.5t-14 97v387q-14 -64 -32 -137.5t-44 -146t-61 -139.5t-82.5 -118.5t-108.5 -82t-139 -30.5q-95 0 -170 36t-127.5 99t-80 149.5t-27.5 187.5q0 120 38 240.5t104.5 231.5
t158 206t199.5 165t227.5 109t241.5 37h12v-45q-105 -5 -202 -45.5t-181.5 -106t-154.5 -151.5t-119.5 -183t-77 -200t-27.5 -203q0 -39 5 -83.5t17 -89t31 -85t47.5 -72t66.5 -50t87 -18.5q59 0 107 36t87 97t69.5 142t53.5 171t38.5 183.5t25 179.5t14 159.5t4.5 123.5
l207 76v-1063q0 -20 4 -40t14 -36.5t25.5 -26.5t38.5 -10q35 0 66 21t51 47zM844 1498l-25 35l233 279l117 -131z" />
    <glyph glyph-name="Edieresis" unicode="&#xcb;" horiz-adv-x="1092" 
d="M1063 393q-44 -81 -106.5 -154t-139 -129t-165 -89t-185.5 -33q-75 0 -146 25t-126.5 71t-89 110.5t-33.5 143.5q0 77 31 143.5t80.5 121.5t112 98t126.5 73q-45 8 -81 33t-61 60t-38 78t-13 87q0 61 22 115.5t59.5 101t87.5 84t105.5 63.5t114 40t113.5 14
q82 0 150 -32.5t120 -94.5l-145 -106q-21 29 -45.5 54.5t-53 44t-61 29.5t-69.5 11q-46 0 -90.5 -16.5t-79.5 -46t-56.5 -70.5t-21.5 -90q0 -51 22 -94.5t58 -75.5t82.5 -50t95.5 -18q56 0 104 18l15 -41q-81 -26 -161.5 -66.5t-144.5 -97.5t-103.5 -132t-39.5 -170
q0 -55 16 -102t46.5 -82t75 -55t100.5 -20q58 0 130 23.5t141 62.5t126 89t86 102zM444 1706q19 0 36 -7.5t30 -20.5t20.5 -30.5t7.5 -36.5t-7.5 -36t-20.5 -30t-30 -20.5t-36 -7.5q-20 0 -37 7.5t-30 20.5t-20 30t-7 36t7 36.5t20 30.5t30 20.5t37 7.5zM741 1706
q19 0 36 -7.5t29.5 -20.5t19.5 -30.5t7 -36.5t-7 -36t-19.5 -30t-29.5 -20.5t-36 -7.5q-20 0 -37 7.5t-30 20.5t-20 30t-7 36t7 36.5t20 30.5t30 20.5t37 7.5z" />
    <glyph glyph-name="Egrave" unicode="&#xc8;" horiz-adv-x="1092" 
d="M1063 393q-44 -81 -106.5 -154t-139 -129t-165 -89t-185.5 -33q-75 0 -146 25t-126.5 71t-89 110.5t-33.5 143.5q0 77 31 143.5t80.5 121.5t112 98t126.5 73q-45 8 -81 33t-61 60t-38 78t-13 87q0 61 22 115.5t59.5 101t87.5 84t105.5 63.5t114 40t113.5 14
q82 0 150 -32.5t120 -94.5l-145 -106q-21 29 -45.5 54.5t-53 44t-61 29.5t-69.5 11q-46 0 -90.5 -16.5t-79.5 -46t-56.5 -70.5t-21.5 -90q0 -51 22 -94.5t58 -75.5t82.5 -50t95.5 -18q56 0 104 18l15 -41q-81 -26 -161.5 -66.5t-144.5 -97.5t-103.5 -132t-39.5 -170
q0 -55 16 -102t46.5 -82t75 -55t100.5 -20q58 0 130 23.5t141 62.5t126 89t86 102zM279 1694l117 133l233 -279l-26 -37z" />
    <glyph glyph-name="Iacute" unicode="&#xcd;" horiz-adv-x="584" 
d="M395 43l-207 -74v1432l207 74v-1432zM281 1511l-25 35l233 279l117 -131z" />
    <glyph glyph-name="Icircumflex" unicode="&#xce;" horiz-adv-x="584" 
d="M395 43l-207 -74v1432l207 74v-1432zM61 1519l-51 41l279 312l286 -271l-100 -106l-244 231z" />
    <glyph glyph-name="Idieresis" unicode="&#xcf;" horiz-adv-x="584" 
d="M395 43l-207 -74v1432l207 74v-1432zM145 1715q19 0 36 -7.5t30 -20.5t20.5 -30.5t7.5 -36.5t-7.5 -36t-20.5 -30t-30 -20.5t-36 -7.5q-20 0 -37 7.5t-30 20.5t-20 30t-7 36t7 36.5t20 30.5t30 20.5t37 7.5zM442 1715q19 0 36 -7.5t29.5 -20.5t19.5 -30.5t7 -36.5t-7 -36
t-19.5 -30t-29.5 -20.5t-36 -7.5q-20 0 -37 7.5t-30 20.5t-20 30t-7 36t7 36.5t20 30.5t30 20.5t37 7.5z" />
    <glyph glyph-name="Igrave" unicode="&#xcc;" horiz-adv-x="584" 
d="M395 43l-207 -74v1432l207 74v-1432zM-48 1691l117 133l233 -279l-26 -37z" />
    <glyph glyph-name="Oacute" unicode="&#xd3;" 
d="M1378 715q0 -92 -20 -183.5t-58.5 -174t-94 -153.5t-127.5 -123.5t-158.5 -82t-186.5 -29.5t-186.5 29.5t-158.5 82t-128 123.5t-95 153.5t-59 174t-20 183.5t20 183t59 173.5t95 154t128 123.5t158.5 81.5t186.5 29.5t186.5 -29.5t158.5 -81.5t127.5 -123.5t94 -154
t58.5 -173.5t20 -183zM643 1358q-65 0 -115.5 -22.5t-89.5 -61t-66 -89t-44 -106.5t-25 -114t-8 -111q0 -79 12 -167.5t38.5 -174.5t68 -164.5t100.5 -138.5t135.5 -95.5t173.5 -35.5q64 0 114.5 22.5t89.5 61t66 89.5t44.5 107t25.5 114.5t8 111.5q0 79 -12 167t-38.5 174
t-68 164.5t-100.5 138t-135.5 95t-173.5 35.5zM680 1521l-25 35l233 279l117 -131z" />
    <glyph glyph-name="Ocircumflex" unicode="&#xd4;" 
d="M1378 715q0 -92 -20 -183.5t-58.5 -174t-94 -153.5t-127.5 -123.5t-158.5 -82t-186.5 -29.5t-186.5 29.5t-158.5 82t-128 123.5t-95 153.5t-59 174t-20 183.5t20 183t59 173.5t95 154t128 123.5t158.5 81.5t186.5 29.5t186.5 -29.5t158.5 -81.5t127.5 -123.5t94 -154
t58.5 -173.5t20 -183zM643 1358q-65 0 -115.5 -22.5t-89.5 -61t-66 -89t-44 -106.5t-25 -114t-8 -111q0 -79 12 -167.5t38.5 -174.5t68 -164.5t100.5 -138.5t135.5 -95.5t173.5 -35.5q64 0 114.5 22.5t89.5 61t66 89.5t44.5 107t25.5 114.5t8 111.5q0 79 -12 167t-38.5 174
t-68 164.5t-100.5 138t-135.5 95t-173.5 35.5zM500 1542l-51 41l279 312l286 -271l-100 -106l-244 231z" />
    <glyph glyph-name="Ograve" unicode="&#xd2;" 
d="M1378 715q0 -92 -20 -183.5t-58.5 -174t-94 -153.5t-127.5 -123.5t-158.5 -82t-186.5 -29.5t-186.5 29.5t-158.5 82t-128 123.5t-95 153.5t-59 174t-20 183.5t20 183t59 173.5t95 154t128 123.5t158.5 81.5t186.5 29.5t186.5 -29.5t158.5 -81.5t127.5 -123.5t94 -154
t58.5 -173.5t20 -183zM643 1358q-65 0 -115.5 -22.5t-89.5 -61t-66 -89t-44 -106.5t-25 -114t-8 -111q0 -79 12 -167.5t38.5 -174.5t68 -164.5t100.5 -138.5t135.5 -95.5t173.5 -35.5q64 0 114.5 22.5t89.5 61t66 89.5t44.5 107t25.5 114.5t8 111.5q0 79 -12 167t-38.5 174
t-68 164.5t-100.5 138t-135.5 95t-173.5 35.5zM322 1710l117 133l233 -279l-26 -37z" />
    <glyph glyph-name="Uacute" unicode="&#xda;" horiz-adv-x="1272" 
d="M1251 137q-15 -29 -37.5 -56t-51 -47.5t-60.5 -33t-66 -12.5q-55 0 -97 21t-70 56.5t-42 81.5t-14 97v118q-20 -74 -53 -142.5t-82 -122t-114.5 -85.5t-149.5 -32q-64 0 -110 23.5t-76 63.5t-44 92.5t-14 110.5v1104l207 74v-1104q0 -36 1 -80t12 -82t38 -64t78 -26
q57 0 101.5 34.5t79 90t58.5 125.5t39 139.5t22 133t7 106.5v653l207 74v-1237q0 -20 4 -40t14 -35.5t26 -25.5t40 -10q34 0 64.5 20t50.5 46zM627 1515l-25 35l233 279l117 -131z" />
    <glyph glyph-name="Ucircumflex" unicode="&#xdb;" horiz-adv-x="1272" 
d="M1251 137q-15 -29 -37.5 -56t-51 -47.5t-60.5 -33t-66 -12.5q-55 0 -97 21t-70 56.5t-42 81.5t-14 97v118q-20 -74 -53 -142.5t-82 -122t-114.5 -85.5t-149.5 -32q-64 0 -110 23.5t-76 63.5t-44 92.5t-14 110.5v1104l207 74v-1104q0 -36 1 -80t12 -82t38 -64t78 -26
q57 0 101.5 34.5t79 90t58.5 125.5t39 139.5t22 133t7 106.5v653l207 74v-1237q0 -20 4 -40t14 -35.5t26 -25.5t40 -10q34 0 64.5 20t50.5 46zM383 1540l-51 41l279 312l286 -271l-100 -106l-244 231z" />
    <glyph glyph-name="Ugrave" unicode="&#xd9;" horiz-adv-x="1272" 
d="M1251 137q-15 -29 -37.5 -56t-51 -47.5t-60.5 -33t-66 -12.5q-55 0 -97 21t-70 56.5t-42 81.5t-14 97v118q-20 -74 -53 -142.5t-82 -122t-114.5 -85.5t-149.5 -32q-64 0 -110 23.5t-76 63.5t-44 92.5t-14 110.5v1104l207 74v-1104q0 -36 1 -80t12 -82t38 -64t78 -26
q57 0 101.5 34.5t79 90t58.5 125.5t39 139.5t22 133t7 106.5v653l207 74v-1237q0 -20 4 -40t14 -35.5t26 -25.5t40 -10q34 0 64.5 20t50.5 46zM242 1700l117 133l233 -279l-26 -37z" />
    <glyph glyph-name="Adieresis" unicode="&#xc4;" horiz-adv-x="1391" 
d="M1395 137q-15 -29 -37.5 -56t-51 -47.5t-60.5 -33t-66 -12.5q-56 0 -97.5 21t-70 56.5t-42.5 81.5t-14 97v387q-14 -64 -32 -137.5t-44 -146t-61 -139.5t-82.5 -118.5t-108.5 -82t-139 -30.5q-95 0 -170 36t-127.5 99t-80 149.5t-27.5 187.5q0 120 38 240.5t104.5 231.5
t158 206t199.5 165t227.5 109t241.5 37h12v-45q-105 -5 -202 -45.5t-181.5 -106t-154.5 -151.5t-119.5 -183t-77 -200t-27.5 -203q0 -39 5 -83.5t17 -89t31 -85t47.5 -72t66.5 -50t87 -18.5q59 0 107 36t87 97t69.5 142t53.5 171t38.5 183.5t25 179.5t14 159.5t4.5 123.5
l207 76v-1063q0 -20 4 -40t14 -36.5t25.5 -26.5t38.5 -10q35 0 66 21t51 47zM592 1702q19 0 36 -7.5t30 -20.5t20.5 -30.5t7.5 -36.5t-7.5 -36t-20.5 -30t-30 -20.5t-36 -7.5q-20 0 -37 7.5t-30 20.5t-20 30t-7 36t7 36.5t20 30.5t30 20.5t37 7.5zM889 1702q19 0 36 -7.5
t29.5 -20.5t19.5 -30.5t7 -36.5t-7 -36t-19.5 -30t-29.5 -20.5t-36 -7.5q-20 0 -37 7.5t-30 20.5t-20 30t-7 36t7 36.5t20 30.5t30 20.5t37 7.5z" />
    <glyph glyph-name="Aring" unicode="&#xc5;" horiz-adv-x="1391" 
d="M1395 137q-15 -29 -37.5 -56t-51 -47.5t-60.5 -33t-66 -12.5q-56 0 -97.5 21t-70 56.5t-42.5 81.5t-14 97v387q-14 -64 -32 -137.5t-44 -146t-61 -139.5t-82.5 -118.5t-108.5 -82t-139 -30.5q-95 0 -170 36t-127.5 99t-80 149.5t-27.5 187.5q0 120 38 240.5t104.5 231.5
t158 206t199.5 165t227.5 109t241.5 37h12v-45q-105 -5 -202 -45.5t-181.5 -106t-154.5 -151.5t-119.5 -183t-77 -200t-27.5 -203q0 -39 5 -83.5t17 -89t31 -85t47.5 -72t66.5 -50t87 -18.5q59 0 107 36t87 97t69.5 142t53.5 171t38.5 183.5t25 179.5t14 159.5t4.5 123.5
l207 76v-1063q0 -20 4 -40t14 -36.5t25.5 -26.5t38.5 -10q35 0 66 21t51 47zM738 1864q40 0 76 -15.5t62.5 -42t42 -62.5t15.5 -76t-15.5 -75.5t-42 -62t-62.5 -42t-76 -15.5t-75.5 15.5t-62 42t-42 62t-15.5 75.5t15.5 76t42 62.5t62 42t75.5 15.5zM795 1545q15 7 24.5 23
t11.5 37.5t-2 46.5t-16 51t-28.5 46t-34.5 32t-36.5 15.5t-33.5 -3.5t-24 -23t-11 -37.5t2.5 -47t16.5 -50.5q12 -26 28 -46t34 -32t36 -15.5t33 3.5z" />
    <glyph glyph-name="Ccedilla" unicode="&#xc7;" horiz-adv-x="1231" 
d="M1169 1190q0 -76 -30 -151t-80.5 -139t-116.5 -112t-137 -69l-21 35q42 21 77 54t60 74.5t38.5 88t13.5 94.5q0 55 -16 104t-47 85.5t-76.5 57.5t-104.5 21q-72 0 -132 -28t-108 -75.5t-83.5 -109t-59 -129t-35.5 -136.5t-12 -130q0 -62 13 -128t38 -130t62 -121
t85.5 -100t108 -68.5t129.5 -25.5q48 0 93.5 13t87.5 35t79.5 52t69.5 65l33 -32q-42 -56 -100 -108t-125.5 -93t-141.5 -66.5t-147 -29.5l-45 -78q17 11 35 16.5t33 8.5q18 4 34 4q22 0 44 -8.5t39.5 -26t28.5 -43.5t11 -62q0 -35 -14 -62t-36.5 -45.5t-49.5 -28t-52 -9.5
q-24 0 -48 10q-20 8 -42 25t-37 49l29 20q9 -15 20 -22.5t20 -11.5q11 -4 21 -5q28 0 50 22.5t22 57.5q0 32 -21.5 56t-56.5 24q-14 0 -25 -2q-10 -2 -18.5 -5.5t-11.5 -10.5l-29 24l62 105q-71 3 -133 30t-114 71t-93 102t-69 122.5t-43 133t-15 133.5q0 97 32.5 199.5
t89.5 199t134.5 182.5t167 150t187 101.5t194.5 37.5q60 0 111.5 -17.5t90 -50.5t60.5 -82t22 -112z" />
    <glyph glyph-name="Eacute" unicode="&#xc9;" horiz-adv-x="1092" 
d="M1063 393q-44 -81 -106.5 -154t-139 -129t-165 -89t-185.5 -33q-75 0 -146 25t-126.5 71t-89 110.5t-33.5 143.5q0 77 31 143.5t80.5 121.5t112 98t126.5 73q-45 8 -81 33t-61 60t-38 78t-13 87q0 61 22 115.5t59.5 101t87.5 84t105.5 63.5t114 40t113.5 14
q82 0 150 -32.5t120 -94.5l-145 -106q-21 29 -45.5 54.5t-53 44t-61 29.5t-69.5 11q-46 0 -90.5 -16.5t-79.5 -46t-56.5 -70.5t-21.5 -90q0 -51 22 -94.5t58 -75.5t82.5 -50t95.5 -18q56 0 104 18l15 -41q-81 -26 -161.5 -66.5t-144.5 -97.5t-103.5 -132t-39.5 -170
q0 -55 16 -102t46.5 -82t75 -55t100.5 -20q58 0 130 23.5t141 62.5t126 89t86 102zM594 1504l-25 35l233 279l117 -131z" />
    <glyph glyph-name="Ntilde" unicode="&#xd1;" horiz-adv-x="1264" 
d="M1270 137q-15 -29 -37.5 -56t-51 -47.5t-60.5 -33t-66 -12.5q-56 0 -97.5 21t-70 56.5t-42.5 81.5t-14 97v864v52.5t-2.5 56.5t-9.5 54t-21 45.5t-36.5 31.5t-56.5 12q-57 0 -102 -34t-79.5 -88.5t-59 -123t-40 -137.5t-22.5 -132t-7 -106v-692l-207 -76v1432l207 74
v-377q20 73 53.5 140.5t82 119.5t114 82.5t150.5 30.5q64 0 110 -23.5t75.5 -63.5t43.5 -93t14 -111v-971q0 -20 4.5 -40t14 -36.5t25.5 -26.5t40 -10q34 0 64.5 21t50.5 47zM584 1542l-39 -20q-21 23 -30 46t-12 43q-4 23 -1 44q9 54 38 89t91 38q31 1 56 -10.5t45.5 -28
t37 -34t31.5 -27.5q15 -11 31.5 -10t28 13.5t15 36.5t-8.5 60l38 16q24 -32 31 -63.5t6 -56.5q-1 -30 -10 -56q-14 -35 -35 -56t-46 -29.5t-51.5 -4.5t-51.5 21q-26 18 -47 39t-39.5 37t-35 23.5t-34.5 -1.5q-15 -10 -22 -25q-6 -13 -5.5 -33.5t19.5 -50.5z" />
    <glyph glyph-name="Odieresis" unicode="&#xd6;" 
d="M1378 715q0 -92 -20 -183.5t-58.5 -174t-94 -153.5t-127.5 -123.5t-158.5 -82t-186.5 -29.5t-186.5 29.5t-158.5 82t-128 123.5t-95 153.5t-59 174t-20 183.5t20 183t59 173.5t95 154t128 123.5t158.5 81.5t186.5 29.5t186.5 -29.5t158.5 -81.5t127.5 -123.5t94 -154
t58.5 -173.5t20 -183zM643 1358q-65 0 -115.5 -22.5t-89.5 -61t-66 -89t-44 -106.5t-25 -114t-8 -111q0 -79 12 -167.5t38.5 -174.5t68 -164.5t100.5 -138.5t135.5 -95.5t173.5 -35.5q64 0 114.5 22.5t89.5 61t66 89.5t44.5 107t25.5 114.5t8 111.5q0 79 -12 167t-38.5 174
t-68 164.5t-100.5 138t-135.5 95t-173.5 35.5zM583 1702q19 0 36 -7.5t30 -20.5t20.5 -30.5t7.5 -36.5t-7.5 -36t-20.5 -30t-30 -20.5t-36 -7.5q-20 0 -37 7.5t-30 20.5t-20 30t-7 36t7 36.5t20 30.5t30 20.5t37 7.5zM880 1702q19 0 36 -7.5t29.5 -20.5t19.5 -30.5t7 -36.5
t-7 -36t-19.5 -30t-29.5 -20.5t-36 -7.5q-20 0 -37 7.5t-30 20.5t-20 30t-7 36t7 36.5t20 30.5t30 20.5t37 7.5z" />
    <glyph glyph-name="Udieresis" unicode="&#xdc;" horiz-adv-x="1272" 
d="M1251 137q-15 -29 -37.5 -56t-51 -47.5t-60.5 -33t-66 -12.5q-55 0 -97 21t-70 56.5t-42 81.5t-14 97v118q-20 -74 -53 -142.5t-82 -122t-114.5 -85.5t-149.5 -32q-64 0 -110 23.5t-76 63.5t-44 92.5t-14 110.5v1104l207 74v-1104q0 -36 1 -80t12 -82t38 -64t78 -26
q57 0 101.5 34.5t79 90t58.5 125.5t39 139.5t22 133t7 106.5v653l207 74v-1237q0 -20 4 -40t14 -35.5t26 -25.5t40 -10q34 0 64.5 20t50.5 46zM465 1698q19 0 36 -7.5t30 -20.5t20.5 -30.5t7.5 -36.5t-7.5 -36t-20.5 -30t-30 -20.5t-36 -7.5q-20 0 -37 7.5t-30 20.5t-20 30
t-7 36t7 36.5t20 30.5t30 20.5t37 7.5zM762 1698q19 0 36 -7.5t29.5 -20.5t19.5 -30.5t7 -36.5t-7 -36t-19.5 -30t-29.5 -20.5t-36 -7.5q-20 0 -37 7.5t-30 20.5t-20 30t-7 36t7 36.5t20 30.5t30 20.5t37 7.5z" />
    <glyph glyph-name="aacute" unicode="&#xe1;" horiz-adv-x="895" 
d="M891 119q-12 -26 -30 -49t-41.5 -41t-51 -28.5t-57.5 -10.5q-79 0 -113.5 43.5t-34.5 118.5v18q-18 -34 -40.5 -68t-51 -61t-63.5 -44t-78 -17q-65 0 -115 25t-84 67.5t-51 99.5t-17 121q0 87 30.5 173.5t86 154.5t133 110.5t172.5 42.5q38 0 76 -7t72.5 -22.5t63 -40.5
t46.5 -61l-149 -63q-12 19 -27.5 36.5t-34 30.5t-39.5 21t-44 8q-52 0 -92.5 -32t-69 -79t-43.5 -100t-15 -96q0 -38 7.5 -85.5t26.5 -89.5t50 -71t78 -29q37 0 64 16.5t46 43t31.5 61t19 70.5t9 71.5t2.5 63.5v69l182 64v-406q0 -20 10 -36.5t31 -16.5q25 0 45.5 18.5
t32.5 37.5zM449 838l-25 35l233 279l117 -131z" />
    <glyph glyph-name="agrave" unicode="&#xe0;" horiz-adv-x="895" 
d="M891 119q-12 -26 -30 -49t-41.5 -41t-51 -28.5t-57.5 -10.5q-79 0 -113.5 43.5t-34.5 118.5v18q-18 -34 -40.5 -68t-51 -61t-63.5 -44t-78 -17q-65 0 -115 25t-84 67.5t-51 99.5t-17 121q0 87 30.5 173.5t86 154.5t133 110.5t172.5 42.5q38 0 76 -7t72.5 -22.5t63 -40.5
t46.5 -61l-149 -63q-12 19 -27.5 36.5t-34 30.5t-39.5 21t-44 8q-52 0 -92.5 -32t-69 -79t-43.5 -100t-15 -96q0 -38 7.5 -85.5t26.5 -89.5t50 -71t78 -29q37 0 64 16.5t46 43t31.5 61t19 70.5t9 71.5t2.5 63.5v69l182 64v-406q0 -20 10 -36.5t31 -16.5q25 0 45.5 18.5
t32.5 37.5zM109 1031l117 133l233 -279l-26 -37z" />
    <glyph glyph-name="acircumflex" unicode="&#xe2;" horiz-adv-x="895" 
d="M891 119q-12 -26 -30 -49t-41.5 -41t-51 -28.5t-57.5 -10.5q-79 0 -113.5 43.5t-34.5 118.5v18q-18 -34 -40.5 -68t-51 -61t-63.5 -44t-78 -17q-65 0 -115 25t-84 67.5t-51 99.5t-17 121q0 87 30.5 173.5t86 154.5t133 110.5t172.5 42.5q38 0 76 -7t72.5 -22.5t63 -40.5
t46.5 -61l-149 -63q-12 19 -27.5 36.5t-34 30.5t-39.5 21t-44 8q-52 0 -92.5 -32t-69 -79t-43.5 -100t-15 -96q0 -38 7.5 -85.5t26.5 -89.5t50 -71t78 -29q37 0 64 16.5t46 43t31.5 61t19 70.5t9 71.5t2.5 63.5v69l182 64v-406q0 -20 10 -36.5t31 -16.5q25 0 45.5 18.5
t32.5 37.5zM213 832l-51 41l279 312l286 -271l-100 -106l-244 231z" />
    <glyph glyph-name="adieresis" unicode="&#xe4;" horiz-adv-x="895" 
d="M891 119q-12 -26 -30 -49t-41.5 -41t-51 -28.5t-57.5 -10.5q-79 0 -113.5 43.5t-34.5 118.5v18q-18 -34 -40.5 -68t-51 -61t-63.5 -44t-78 -17q-65 0 -115 25t-84 67.5t-51 99.5t-17 121q0 87 30.5 173.5t86 154.5t133 110.5t172.5 42.5q38 0 76 -7t72.5 -22.5t63 -40.5
t46.5 -61l-149 -63q-12 19 -27.5 36.5t-34 30.5t-39.5 21t-44 8q-52 0 -92.5 -32t-69 -79t-43.5 -100t-15 -96q0 -38 7.5 -85.5t26.5 -89.5t50 -71t78 -29q37 0 64 16.5t46 43t31.5 61t19 70.5t9 71.5t2.5 63.5v69l182 64v-406q0 -20 10 -36.5t31 -16.5q25 0 45.5 18.5
t32.5 37.5zM289 1011q19 0 36 -7.5t30 -20.5t20.5 -30.5t7.5 -36.5t-7.5 -36t-20.5 -30t-30 -20.5t-36 -7.5q-20 0 -37 7.5t-30 20.5t-20 30t-7 36t7 36.5t20 30.5t30 20.5t37 7.5zM586 1011q19 0 36 -7.5t29.5 -20.5t19.5 -30.5t7 -36.5t-7 -36t-19.5 -30t-29.5 -20.5
t-36 -7.5q-20 0 -37 7.5t-30 20.5t-20 30t-7 36t7 36.5t20 30.5t30 20.5t37 7.5z" />
    <glyph glyph-name="atilde" unicode="&#xe3;" horiz-adv-x="895" 
d="M891 119q-12 -26 -30 -49t-41.5 -41t-51 -28.5t-57.5 -10.5q-79 0 -113.5 43.5t-34.5 118.5v18q-18 -34 -40.5 -68t-51 -61t-63.5 -44t-78 -17q-65 0 -115 25t-84 67.5t-51 99.5t-17 121q0 87 30.5 173.5t86 154.5t133 110.5t172.5 42.5q38 0 76 -7t72.5 -22.5t63 -40.5
t46.5 -61l-149 -63q-12 19 -27.5 36.5t-34 30.5t-39.5 21t-44 8q-52 0 -92.5 -32t-69 -79t-43.5 -100t-15 -96q0 -38 7.5 -85.5t26.5 -89.5t50 -71t78 -29q37 0 64 16.5t46 43t31.5 61t19 70.5t9 71.5t2.5 63.5v69l182 64v-406q0 -20 10 -36.5t31 -16.5q25 0 45.5 18.5
t32.5 37.5zM293 859l-39 -20q-21 23 -30 46t-12 43q-4 23 -1 44q9 54 38 89t91 38q31 1 56 -10.5t45.5 -28t37 -34t31.5 -27.5q15 -11 31.5 -10t28 13.5t15 36.5t-8.5 60l38 16q24 -32 31 -63.5t6 -56.5q-1 -30 -10 -56q-14 -35 -35 -56t-46 -29.5t-51.5 -4.5t-51.5 21
q-26 18 -47 39t-39.5 37t-35 23.5t-34.5 -1.5q-15 -10 -22 -25q-6 -13 -5.5 -33.5t19.5 -50.5z" />
    <glyph glyph-name="aring" unicode="&#xe5;" horiz-adv-x="895" 
d="M891 119q-12 -26 -30 -49t-41.5 -41t-51 -28.5t-57.5 -10.5q-79 0 -113.5 43.5t-34.5 118.5v18q-18 -34 -40.5 -68t-51 -61t-63.5 -44t-78 -17q-65 0 -115 25t-84 67.5t-51 99.5t-17 121q0 87 30.5 173.5t86 154.5t133 110.5t172.5 42.5q38 0 76 -7t72.5 -22.5t63 -40.5
t46.5 -61l-149 -63q-12 19 -27.5 36.5t-34 30.5t-39.5 21t-44 8q-52 0 -92.5 -32t-69 -79t-43.5 -100t-15 -96q0 -38 7.5 -85.5t26.5 -89.5t50 -71t78 -29q37 0 64 16.5t46 43t31.5 61t19 70.5t9 71.5t2.5 63.5v69l182 64v-406q0 -20 10 -36.5t31 -16.5q25 0 45.5 18.5
t32.5 37.5zM428 1227q40 0 76 -15.5t62.5 -42t42 -62.5t15.5 -76t-15.5 -75.5t-42 -62t-62.5 -42t-76 -15.5t-75.5 15.5t-62 42t-42 62t-15.5 75.5t15.5 76t42 62.5t62 42t75.5 15.5zM485 908q15 7 24.5 23t11.5 37.5t-2 46.5t-16 51t-28.5 46t-34.5 32t-36.5 15.5
t-33.5 -3.5t-24 -23t-11 -37.5t2.5 -47t16.5 -50.5q12 -26 28 -46t34 -32t36 -15.5t33 3.5z" />
    <glyph glyph-name="ccedilla" unicode="&#xe7;" horiz-adv-x="809" 
d="M782 217q-35 -45 -76.5 -87.5t-90 -75.5t-102.5 -53.5t-112 -20.5q-6 0 -12 1t-12 1l-41 -72q17 11 35 16.5t33 8.5q18 4 34 4q22 0 44.5 -8.5t39.5 -26t28 -43.5t11 -62q0 -35 -14 -62t-36 -45.5t-49 -28t-52 -9.5q-24 0 -48 10q-20 8 -42 25t-37 49l28 20
q9 -15 20 -22.5t20 -11.5q11 -4 22 -5q28 0 49.5 22.5t21.5 57.5q0 32 -21 56t-56 24q-14 0 -25 -2q-10 -2 -19 -5.5t-12 -10.5l-28 24l57 101q-62 9 -112.5 38.5t-87.5 76t-57 109.5t-20 138q0 88 35.5 167t95 138.5t138.5 94t166 34.5q34 0 68.5 -6.5t66 -20t58 -36
t44.5 -53.5l-143 -78q-10 24 -28.5 42t-41.5 30t-48.5 18t-49.5 6q-48 0 -86 -21.5t-64.5 -56t-40.5 -78t-14 -88.5q0 -86 21 -152t58 -111t87 -68t109 -23q34 0 70 17t69.5 42.5t64 54.5t54.5 52z" />
    <glyph glyph-name="eacute" unicode="&#xe9;" horiz-adv-x="813" 
d="M778 195q-35 -45 -76.5 -84t-90 -68t-102.5 -46t-112 -17q-74 0 -136 26.5t-107 73t-70 110t-25 136.5q0 60 17 118t48 109t73.5 94.5t93.5 74.5t108 48.5t117 17.5q42 0 79.5 -10t66.5 -31.5t46 -55t17 -79.5q0 -38 -22.5 -80t-59 -84t-82.5 -82.5t-93.5 -75
t-91.5 -60.5t-77 -40q37 -46 86 -75t104 -29q35 0 71 13.5t69.5 34.5t64 46t54.5 47zM537 575q0 23 -7.5 44t-21.5 36.5t-33.5 25t-44.5 9.5q-45 0 -83 -31.5t-65.5 -77.5t-43 -97.5t-15.5 -90.5q0 -38 12 -78t33 -77q40 22 87 61t87.5 85.5t67.5 96.5t27 94zM414 849
l-25 35l233 279l117 -131z" />
    <glyph glyph-name="egrave" unicode="&#xe8;" horiz-adv-x="813" 
d="M778 195q-35 -45 -76.5 -84t-90 -68t-102.5 -46t-112 -17q-74 0 -136 26.5t-107 73t-70 110t-25 136.5q0 60 17 118t48 109t73.5 94.5t93.5 74.5t108 48.5t117 17.5q42 0 79.5 -10t66.5 -31.5t46 -55t17 -79.5q0 -38 -22.5 -80t-59 -84t-82.5 -82.5t-93.5 -75
t-91.5 -60.5t-77 -40q37 -46 86 -75t104 -29q35 0 71 13.5t69.5 34.5t64 46t54.5 47zM537 575q0 23 -7.5 44t-21.5 36.5t-33.5 25t-44.5 9.5q-45 0 -83 -31.5t-65.5 -77.5t-43 -97.5t-15.5 -90.5q0 -38 12 -78t33 -77q40 22 87 61t87.5 85.5t67.5 96.5t27 94zM70 1009
l117 133l233 -279l-26 -37z" />
    <glyph glyph-name="ecircumflex" unicode="&#xea;" horiz-adv-x="813" 
d="M778 195q-35 -45 -76.5 -84t-90 -68t-102.5 -46t-112 -17q-74 0 -136 26.5t-107 73t-70 110t-25 136.5q0 60 17 118t48 109t73.5 94.5t93.5 74.5t108 48.5t117 17.5q42 0 79.5 -10t66.5 -31.5t46 -55t17 -79.5q0 -38 -22.5 -80t-59 -84t-82.5 -82.5t-93.5 -75
t-91.5 -60.5t-77 -40q37 -46 86 -75t104 -29q35 0 71 13.5t69.5 34.5t64 46t54.5 47zM537 575q0 23 -7.5 44t-21.5 36.5t-33.5 25t-44.5 9.5q-45 0 -83 -31.5t-65.5 -77.5t-43 -97.5t-15.5 -90.5q0 -38 12 -78t33 -77q40 22 87 61t87.5 85.5t67.5 96.5t27 94zM186 859
l-51 41l279 312l286 -271l-100 -106l-244 231z" />
    <glyph glyph-name="edieresis" unicode="&#xeb;" horiz-adv-x="813" 
d="M778 195q-35 -45 -76.5 -84t-90 -68t-102.5 -46t-112 -17q-74 0 -136 26.5t-107 73t-70 110t-25 136.5q0 60 17 118t48 109t73.5 94.5t93.5 74.5t108 48.5t117 17.5q42 0 79.5 -10t66.5 -31.5t46 -55t17 -79.5q0 -38 -22.5 -80t-59 -84t-82.5 -82.5t-93.5 -75
t-91.5 -60.5t-77 -40q37 -46 86 -75t104 -29q35 0 71 13.5t69.5 34.5t64 46t54.5 47zM537 575q0 23 -7.5 44t-21.5 36.5t-33.5 25t-44.5 9.5q-45 0 -83 -31.5t-65.5 -77.5t-43 -97.5t-15.5 -90.5q0 -38 12 -78t33 -77q40 22 87 61t87.5 85.5t67.5 96.5t27 94zM270 1038
q19 0 36 -7.5t30 -20.5t20.5 -30.5t7.5 -36.5t-7.5 -36t-20.5 -30t-30 -20.5t-36 -7.5q-20 0 -37 7.5t-30 20.5t-20 30t-7 36t7 36.5t20 30.5t30 20.5t37 7.5zM567 1038q19 0 36 -7.5t29.5 -20.5t19.5 -30.5t7 -36.5t-7 -36t-19.5 -30t-29.5 -20.5t-36 -7.5q-20 0 -37 7.5
t-30 20.5t-20 30t-7 36t7 36.5t20 30.5t30 20.5t37 7.5z" />
    <glyph glyph-name="iacute" unicode="&#xed;" horiz-adv-x="465" 
d="M449 117q-23 -49 -53.5 -75t-58.5 -38q-33 -14 -67 -16q-44 0 -73 14t-46 37t-23.5 52t-6.5 59v561l184 63v-629q0 -24 11 -38t28.5 -14.5t38 12.5t39.5 42zM211 836l-25 35l233 279l117 -131z" />
    <glyph glyph-name="igrave" unicode="&#xec;" horiz-adv-x="465" 
d="M449 117q-23 -49 -53.5 -75t-58.5 -38q-33 -14 -67 -16q-44 0 -73 14t-46 37t-23.5 52t-6.5 59v561l184 63v-629q0 -24 11 -38t28.5 -14.5t38 12.5t39.5 42zM-118 1019l117 133l233 -279l-26 -37z" />
    <glyph glyph-name="icircumflex" unicode="&#xee;" horiz-adv-x="465" 
d="M449 117q-23 -49 -53.5 -75t-58.5 -38q-33 -14 -67 -16q-44 0 -73 14t-46 37t-23.5 52t-6.5 59v561l184 63v-629q0 -24 11 -38t28.5 -14.5t38 12.5t39.5 42zM-18 855l-51 41l279 312l286 -271l-100 -106l-244 231z" />
    <glyph glyph-name="idieresis" unicode="&#xef;" horiz-adv-x="465" 
d="M449 117q-23 -49 -53.5 -75t-58.5 -38q-33 -14 -67 -16q-44 0 -73 14t-46 37t-23.5 52t-6.5 59v561l184 63v-629q0 -24 11 -38t28.5 -14.5t38 12.5t39.5 42zM60 1029q19 0 36 -7.5t30 -20.5t20.5 -30.5t7.5 -36.5t-7.5 -36t-20.5 -30t-30 -20.5t-36 -7.5q-20 0 -37 7.5
t-30 20.5t-20 30t-7 36t7 36.5t20 30.5t30 20.5t37 7.5zM357 1029q19 0 36 -7.5t29.5 -20.5t19.5 -30.5t7 -36.5t-7 -36t-19.5 -30t-29.5 -20.5t-36 -7.5q-20 0 -37 7.5t-30 20.5t-20 30t-7 36t7 36.5t20 30.5t30 20.5t37 7.5z" />
    <glyph glyph-name="ntilde" unicode="&#xf1;" horiz-adv-x="946" 
d="M934 117q-12 -26 -31 -49t-42.5 -41t-50.5 -28.5t-56 -10.5q-79 0 -114.5 43.5t-35.5 118.5v407q0 7 -0.5 16.5t-3.5 18t-8 14.5t-14 6q-28 0 -56.5 -34t-55 -88t-49 -121t-39.5 -132.5t-26.5 -122.5t-9.5 -91l-182 -64v672q0 20 -10 36.5t-31 16.5q-25 0 -45.5 -18.5
t-32.5 -36.5l-27 30q12 25 30.5 48.5t42 41.5t51 28.5t57.5 10.5q78 0 112.5 -43.5t34.5 -117.5v-326q9 41 24.5 93.5t37.5 106.5t49.5 105.5t60.5 92t72 65t84 24.5q47 0 71 -20.5t34.5 -52t11.5 -69.5t1 -73v-428q0 -20 10 -36.5t31 -16.5q23 0 43.5 18.5t32.5 36.5z
M328 867l-39 -20q-21 23 -30 46t-12 43q-4 23 -1 44q9 54 38 89t91 38q31 1 56 -10.5t45.5 -28t37 -34t31.5 -27.5q15 -11 31.5 -10t28 13.5t15 36.5t-8.5 60l38 16q24 -32 31 -63.5t6 -56.5q-1 -30 -10 -56q-14 -35 -35 -56t-46 -29.5t-51.5 -4.5t-51.5 21q-26 18 -47 39
t-39.5 37t-35 23.5t-34.5 -1.5q-15 -10 -22 -25q-6 -13 -5.5 -33.5t19.5 -50.5z" />
    <glyph glyph-name="oacute" unicode="&#xf3;" horiz-adv-x="856" 
d="M412 -23q-74 0 -138.5 26.5t-112 73.5t-75 110.5t-27.5 138.5q0 85 28 159.5t77.5 134.5t117 104t146.5 69l29 -35q-45 -33 -84 -75.5t-68 -92t-46 -104t-17 -111.5q0 -48 14 -101t42 -97t70.5 -72.5t98.5 -28.5q50 0 86.5 18t60.5 49t36 72.5t12 87.5q0 54 -21 110.5
t-57.5 104.5t-85.5 80t-105 37q35 40 77 74t85 65q58 -19 102.5 -56t75 -85t46.5 -104.5t16 -114.5q0 -79 -27.5 -157t-78 -140.5t-121 -101t-156.5 -38.5zM441 859l-25 35l233 279l117 -131z" />
    <glyph glyph-name="ograve" unicode="&#xf2;" horiz-adv-x="856" 
d="M412 -23q-74 0 -138.5 26.5t-112 73.5t-75 110.5t-27.5 138.5q0 85 28 159.5t77.5 134.5t117 104t146.5 69l29 -35q-45 -33 -84 -75.5t-68 -92t-46 -104t-17 -111.5q0 -48 14 -101t42 -97t70.5 -72.5t98.5 -28.5q50 0 86.5 18t60.5 49t36 72.5t12 87.5q0 54 -21 110.5
t-57.5 104.5t-85.5 80t-105 37q35 40 77 74t85 65q58 -19 102.5 -56t75 -85t46.5 -104.5t16 -114.5q0 -79 -27.5 -157t-78 -140.5t-121 -101t-156.5 -38.5zM96 1033l117 133l233 -279l-26 -37z" />
    <glyph glyph-name="ocircumflex" unicode="&#xf4;" horiz-adv-x="856" 
d="M412 -23q-74 0 -138.5 26.5t-112 73.5t-75 110.5t-27.5 138.5q0 85 28 159.5t77.5 134.5t117 104t146.5 69l29 -35q-45 -33 -84 -75.5t-68 -92t-46 -104t-17 -111.5q0 -48 14 -101t42 -97t70.5 -72.5t98.5 -28.5q50 0 86.5 18t60.5 49t36 72.5t12 87.5q0 54 -21 110.5
t-57.5 104.5t-85.5 80t-105 37q35 40 77 74t85 65q58 -19 102.5 -56t75 -85t46.5 -104.5t16 -114.5q0 -79 -27.5 -157t-78 -140.5t-121 -101t-156.5 -38.5zM194 859l-51 41l279 312l286 -271l-100 -106l-244 231z" />
    <glyph glyph-name="odieresis" unicode="&#xf6;" horiz-adv-x="856" 
d="M412 -23q-74 0 -138.5 26.5t-112 73.5t-75 110.5t-27.5 138.5q0 85 28 159.5t77.5 134.5t117 104t146.5 69l29 -35q-45 -33 -84 -75.5t-68 -92t-46 -104t-17 -111.5q0 -48 14 -101t42 -97t70.5 -72.5t98.5 -28.5q50 0 86.5 18t60.5 49t36 72.5t12 87.5q0 54 -21 110.5
t-57.5 104.5t-85.5 80t-105 37q35 40 77 74t85 65q58 -19 102.5 -56t75 -85t46.5 -104.5t16 -114.5q0 -79 -27.5 -157t-78 -140.5t-121 -101t-156.5 -38.5zM278 1042q19 0 36 -7.5t30 -20.5t20.5 -30.5t7.5 -36.5t-7.5 -36t-20.5 -30t-30 -20.5t-36 -7.5q-20 0 -37 7.5
t-30 20.5t-20 30t-7 36t7 36.5t20 30.5t30 20.5t37 7.5zM575 1042q19 0 36 -7.5t29.5 -20.5t19.5 -30.5t7 -36.5t-7 -36t-19.5 -30t-29.5 -20.5t-36 -7.5q-20 0 -37 7.5t-30 20.5t-20 30t-7 36t7 36.5t20 30.5t30 20.5t37 7.5z" />
    <glyph glyph-name="otilde" unicode="&#xf5;" horiz-adv-x="856" 
d="M412 -23q-74 0 -138.5 26.5t-112 73.5t-75 110.5t-27.5 138.5q0 85 28 159.5t77.5 134.5t117 104t146.5 69l29 -35q-45 -33 -84 -75.5t-68 -92t-46 -104t-17 -111.5q0 -48 14 -101t42 -97t70.5 -72.5t98.5 -28.5q50 0 86.5 18t60.5 49t36 72.5t12 87.5q0 54 -21 110.5
t-57.5 104.5t-85.5 80t-105 37q35 40 77 74t85 65q58 -19 102.5 -56t75 -85t46.5 -104.5t16 -114.5q0 -79 -27.5 -157t-78 -140.5t-121 -101t-156.5 -38.5zM281 853l-39 -20q-21 23 -30 46t-12 43q-4 23 -1 44q9 54 38 89t91 38q31 1 56 -10.5t45.5 -28t37 -34t31.5 -27.5
q15 -11 31.5 -10t28 13.5t15 36.5t-8.5 60l38 16q24 -32 31 -63.5t6 -56.5q-1 -30 -10 -56q-14 -35 -35 -56t-46 -29.5t-51.5 -4.5t-51.5 21q-26 18 -47 39t-39.5 37t-35 23.5t-34.5 -1.5q-15 -10 -22 -25q-6 -13 -5.5 -33.5t19.5 -50.5z" />
    <glyph glyph-name="uacute" unicode="&#xfa;" horiz-adv-x="924" 
d="M909 117q-23 -49 -54 -75t-59 -38q-33 -14 -67 -16q-45 0 -73.5 14t-45.5 37t-23.5 52t-6.5 59v319q-8 -36 -20.5 -86t-30.5 -104.5t-42 -108t-55.5 -95.5t-71 -68.5t-88.5 -26.5q-41 0 -64.5 15.5t-35 44t-14 68t-2.5 87.5v434q0 24 -11 38t-28.5 14.5t-38.5 -12.5
t-41 -42l-27 30q23 48 53 74.5t59 38.5q33 14 68 16q45 0 73.5 -14t45 -36.5t23 -51.5t6.5 -59v-414q0 -39 14 -51t36.5 3.5t50 57t55.5 109.5q18 65 35 134q14 59 28.5 130t22.5 137l184 64v-650q0 -24 11 -38t28 -14.5t37.5 12.5t40.5 42zM469 840l-25 35l233 279
l117 -131z" />
    <glyph glyph-name="ugrave" unicode="&#xf9;" horiz-adv-x="924" 
d="M909 117q-23 -49 -54 -75t-59 -38q-33 -14 -67 -16q-45 0 -73.5 14t-45.5 37t-23.5 52t-6.5 59v319q-8 -36 -20.5 -86t-30.5 -104.5t-42 -108t-55.5 -95.5t-71 -68.5t-88.5 -26.5q-41 0 -64.5 15.5t-35 44t-14 68t-2.5 87.5v434q0 24 -11 38t-28.5 14.5t-38.5 -12.5
t-41 -42l-27 30q23 48 53 74.5t59 38.5q33 14 68 16q45 0 73.5 -14t45 -36.5t23 -51.5t6.5 -59v-414q0 -39 14 -51t36.5 3.5t50 57t55.5 109.5q18 65 35 134q14 59 28.5 130t22.5 137l184 64v-650q0 -24 11 -38t28 -14.5t37.5 12.5t40.5 42zM123 1025l117 133l233 -279
l-26 -37z" />
    <glyph glyph-name="ucircumflex" unicode="&#xfb;" horiz-adv-x="924" 
d="M909 117q-23 -49 -54 -75t-59 -38q-33 -14 -67 -16q-45 0 -73.5 14t-45.5 37t-23.5 52t-6.5 59v319q-8 -36 -20.5 -86t-30.5 -104.5t-42 -108t-55.5 -95.5t-71 -68.5t-88.5 -26.5q-41 0 -64.5 15.5t-35 44t-14 68t-2.5 87.5v434q0 24 -11 38t-28.5 14.5t-38.5 -12.5
t-41 -42l-27 30q23 48 53 74.5t59 38.5q33 14 68 16q45 0 73.5 -14t45 -36.5t23 -51.5t6.5 -59v-414q0 -39 14 -51t36.5 3.5t50 57t55.5 109.5q18 65 35 134q14 59 28.5 130t22.5 137l184 64v-650q0 -24 11 -38t28 -14.5t37.5 12.5t40.5 42zM227 855l-51 41l279 312
l286 -271l-100 -106l-244 231z" />
    <glyph glyph-name="udieresis" unicode="&#xfc;" horiz-adv-x="924" 
d="M909 117q-23 -49 -54 -75t-59 -38q-33 -14 -67 -16q-45 0 -73.5 14t-45.5 37t-23.5 52t-6.5 59v319q-8 -36 -20.5 -86t-30.5 -104.5t-42 -108t-55.5 -95.5t-71 -68.5t-88.5 -26.5q-41 0 -64.5 15.5t-35 44t-14 68t-2.5 87.5v434q0 24 -11 38t-28.5 14.5t-38.5 -12.5
t-41 -42l-27 30q23 48 53 74.5t59 38.5q33 14 68 16q45 0 73.5 -14t45 -36.5t23 -51.5t6.5 -59v-414q0 -39 14 -51t36.5 3.5t50 57t55.5 109.5q18 65 35 134q14 59 28.5 130t22.5 137l184 64v-650q0 -24 11 -38t28 -14.5t37.5 12.5t40.5 42zM311 1036q19 0 36 -7.5t30 -20.5
t20.5 -30.5t7.5 -36.5t-7.5 -36t-20.5 -30t-30 -20.5t-36 -7.5q-20 0 -37 7.5t-30 20.5t-20 30t-7 36t7 36.5t20 30.5t30 20.5t37 7.5zM608 1036q19 0 36 -7.5t29.5 -20.5t19.5 -30.5t7 -36.5t-7 -36t-19.5 -30t-29.5 -20.5t-36 -7.5q-20 0 -37 7.5t-30 20.5t-20 30t-7 36
t7 36.5t20 30.5t30 20.5t37 7.5z" />
    <glyph glyph-name="ellipsis" unicode="&#x2026;" horiz-adv-x="1314" 
d="M336 76q0 -24 -9.5 -45t-25 -36.5t-37 -24.5t-45.5 -9t-44.5 9t-36.5 24.5t-25 36.5t-9 45t9 45t25 37t36.5 25.5t44.5 9.5t45.5 -9.5t37 -25.5t25 -37t9.5 -45zM774 76q0 -24 -9.5 -45t-25 -36.5t-37 -24.5t-45.5 -9t-44.5 9t-36.5 24.5t-25 36.5t-9 45t9 45t25 37
t36.5 25.5t44.5 9.5t45.5 -9.5t37 -25.5t25 -37t9.5 -45zM1212 76q0 -24 -9.5 -45t-25 -36.5t-37 -24.5t-45.5 -9t-44.5 9t-36.5 24.5t-25 36.5t-9 45t9 45t25 37t36.5 25.5t44.5 9.5t45.5 -9.5t37 -25.5t25 -37t9.5 -45z" />
    <glyph glyph-name="currency" unicode="&#xa4;" horiz-adv-x="543" 
d="M372 672q0 25 -10 56.5t-27.5 59.5t-42.5 47t-55 19q-18 0 -30 -7.5t-19.5 -20t-10.5 -28t-3 -30.5q0 -26 10 -57.5t27.5 -59t42 -46.5t53.5 -19q18 0 30.5 7.5t20 20t11 28t3.5 30.5zM498 930l-77 -94q20 -24 31 -54t11 -63q0 -32 -9.5 -60t-26.5 -51l71 -86l-112 -50
l-47 70q-32 -12 -67 -12q-37 0 -68 12l-48 -70l-111 50l72 89q-33 47 -33 108q0 32 10 61.5t28 53.5l-77 96l111 50l56 -81q14 5 29 7.5t31 2.5q15 0 30 -2.5t29 -7.5l55 81z" />
    <glyph glyph-name="uni00AD" unicode="&#xad;" horiz-adv-x="950" 
d="M864 836l-61 -162h-684l63 162h682z" />
    <glyph glyph-name="uni0312" unicode="&#x312;" horiz-adv-x="267" 
d="M213 1597q0 -33 -24 -56.5t-57 -23.5q-34 0 -57 23.5t-23 56.5q0 28 9 52.5t25 45.5t36 38.5t43 31.5l25 -23q-12 -12 -23.5 -30t-14.5 -36q27 -7 44 -29t17 -50z" />
    <glyph glyph-name="uni0315" unicode="&#x315;" horiz-adv-x="261" 
d="M216 1677q0 -27 -9 -51.5t-25 -45.5t-36.5 -38.5t-42.5 -30.5l-25 22q12 11 23.5 29.5t14.5 35.5q-27 8 -44 29.5t-17 49.5q0 34 23 58t57 24q33 0 57 -24t24 -58z" />
    <glyph glyph-name="uni0326" unicode="&#x326;" horiz-adv-x="308" 
d="M235 -167q0 -27 -9 -51.5t-25 -45.5t-36.5 -38.5t-42.5 -30.5l-26 21q13 12 24 30.5t15 35.5q-27 8 -44.5 29.5t-17.5 49.5q0 33 23.5 57.5t56.5 24.5q34 0 58 -24.5t24 -57.5z" />
    <glyph glyph-name="nonbreakingspace" unicode="&#xa0;" horiz-adv-x="432" 
 />
    <glyph glyph-name="dotlessj" unicode="&#x237;" horiz-adv-x="430" 
d="M311 82q0 -70 -16.5 -132t-45 -116t-67.5 -100.5t-84 -83.5q-65 -50 -134 -77q-29 -12 -62 -19.5t-66.5 -7.5t-68 10t-66.5 34l113 142q52 -42 97.5 -51.5t79.5 -4.5q40 6 72 27q28 21 42 62.5t18.5 92.5t4 105.5t-0.5 102.5v645l184 63v-692z" />
    <glyph glyph-name="Amacron" unicode="&#x100;" horiz-adv-x="1391" 
d="M1395 137q-15 -29 -37.5 -56t-51 -47.5t-60.5 -33t-66 -12.5q-56 0 -97.5 21t-70 56.5t-42.5 81.5t-14 97v387q-14 -64 -32 -137.5t-44 -146t-61 -139.5t-82.5 -118.5t-108.5 -82t-139 -30.5q-95 0 -170 36t-127.5 99t-80 149.5t-27.5 187.5q0 120 38 240.5t104.5 231.5
t158 206t199.5 165t227.5 109t241.5 37h12v-45q-105 -5 -202 -45.5t-181.5 -106t-154.5 -151.5t-119.5 -183t-77 -200t-27.5 -203q0 -39 5 -83.5t17 -89t31 -85t47.5 -72t66.5 -50t87 -18.5q59 0 107 36t87 97t69.5 142t53.5 171t38.5 183.5t25 179.5t14 159.5t4.5 123.5
l207 76v-1063q0 -20 4 -40t14 -36.5t25.5 -26.5t38.5 -10q35 0 66 21t51 47zM483 1526l72 157h413l-69 -157h-416z" />
    <glyph glyph-name="Abreve" unicode="&#x102;" horiz-adv-x="1391" 
d="M1395 137q-15 -29 -37.5 -56t-51 -47.5t-60.5 -33t-66 -12.5q-56 0 -97.5 21t-70 56.5t-42.5 81.5t-14 97v387q-14 -64 -32 -137.5t-44 -146t-61 -139.5t-82.5 -118.5t-108.5 -82t-139 -30.5q-95 0 -170 36t-127.5 99t-80 149.5t-27.5 187.5q0 120 38 240.5t104.5 231.5
t158 206t199.5 165t227.5 109t241.5 37h12v-45q-105 -5 -202 -45.5t-181.5 -106t-154.5 -151.5t-119.5 -183t-77 -200t-27.5 -203q0 -39 5 -83.5t17 -89t31 -85t47.5 -72t66.5 -50t87 -18.5q59 0 107 36t87 97t69.5 142t53.5 171t38.5 183.5t25 179.5t14 159.5t4.5 123.5
l207 76v-1063q0 -20 4 -40t14 -36.5t25.5 -26.5t38.5 -10q35 0 66 21t51 47zM562 1868l29 -22q-16 -22 -22.5 -48.5t-6.5 -52.5q0 -27 7.5 -59.5t23.5 -60.5t40 -47t56 -19q43 0 69.5 27.5t26.5 70.5q0 37 -18 73.5t-47 59.5l131 84q57 -63 57 -151q0 -51 -18 -92.5
t-49.5 -71.5t-75 -46t-93.5 -16q-41 0 -76 13.5t-60.5 37.5t-39.5 58t-14 76q0 24 6 50t16.5 50.5t25 47t32.5 38.5z" />
    <glyph glyph-name="Aogonek" unicode="&#x104;" horiz-adv-x="1391" 
d="M1395 137q-15 -29 -37.5 -56t-51 -47.5t-60.5 -33t-66 -12.5h-9q-24 -33 -30 -57.5t-4 -41.5q3 -19 14 -34q16 -16 34 -20q15 -4 35 1.5t41 32.5l23 -19q-20 -31 -39.5 -48.5t-34.5 -27.5q-18 -11 -34 -16q-22 -4 -48 2.5t-46.5 24.5t-28.5 48.5t6 74.5q4 13 13 27
q8 12 20 27.5t31 32.5q-42 10 -73 34t-52 57t-31.5 73.5t-10.5 84.5v387q-14 -64 -32 -137.5t-44 -146t-61 -139.5t-82.5 -118.5t-108.5 -82t-139 -30.5q-95 0 -170 36t-127.5 99t-80 149.5t-27.5 187.5q0 120 38 240.5t104.5 231.5t158 206t199.5 165t227.5 109t241.5 37
h12v-45q-105 -5 -202 -45.5t-181.5 -106t-154.5 -151.5t-119.5 -183t-77 -200t-27.5 -203q0 -39 5 -83.5t17 -89t31 -85t47.5 -72t66.5 -50t87 -18.5q59 0 107 36t87 97t69.5 142t53.5 171t38.5 183.5t25 179.5t14 159.5t4.5 123.5l207 76v-1063q0 -20 4 -40t14 -36.5
t25.5 -26.5t38.5 -10q35 0 66 21t51 47z" />
    <glyph glyph-name="Cacute" unicode="&#x106;" horiz-adv-x="1235" 
d="M1171 1190q0 -76 -30 -151t-80.5 -139t-116.5 -112t-137 -69l-21 35q42 21 77 54t60 74.5t38.5 88t13.5 94.5q0 55 -16 104t-47 85.5t-76.5 57.5t-104.5 21q-72 0 -132 -28t-108 -75.5t-83.5 -109t-59 -129t-35.5 -136.5t-12 -130q0 -62 13 -128t38 -130t62 -121
t85.5 -100t108 -68.5t129.5 -25.5q48 0 93.5 13t87.5 35t79.5 52t69.5 65l33 -32q-44 -58 -104.5 -111.5t-130.5 -95t-146.5 -66t-151.5 -24.5q-73 0 -137.5 25.5t-118.5 69t-96.5 102t-72 124.5t-45 136t-15.5 137q0 97 32.5 199.5t89.5 199t134.5 182.5t167 150t187 101.5
t194.5 37.5q60 0 112 -17.5t90 -50.5t60 -82t22 -112zM678 1498l-25 35l233 279l117 -131z" />
    <glyph glyph-name="Ccircumflex" unicode="&#x108;" horiz-adv-x="1235" 
d="M1171 1190q0 -76 -30 -151t-80.5 -139t-116.5 -112t-137 -69l-21 35q42 21 77 54t60 74.5t38.5 88t13.5 94.5q0 55 -16 104t-47 85.5t-76.5 57.5t-104.5 21q-72 0 -132 -28t-108 -75.5t-83.5 -109t-59 -129t-35.5 -136.5t-12 -130q0 -62 13 -128t38 -130t62 -121
t85.5 -100t108 -68.5t129.5 -25.5q48 0 93.5 13t87.5 35t79.5 52t69.5 65l33 -32q-44 -58 -104.5 -111.5t-130.5 -95t-146.5 -66t-151.5 -24.5q-73 0 -137.5 25.5t-118.5 69t-96.5 102t-72 124.5t-45 136t-15.5 137q0 97 32.5 199.5t89.5 199t134.5 182.5t167 150t187 101.5
t194.5 37.5q60 0 112 -17.5t90 -50.5t60 -82t22 -112zM386 1521l-51 41l279 312l286 -271l-100 -106l-244 231z" />
    <glyph glyph-name="Cdotaccent" unicode="&#x10a;" horiz-adv-x="1235" 
d="M1171 1190q0 -76 -30 -151t-80.5 -139t-116.5 -112t-137 -69l-21 35q42 21 77 54t60 74.5t38.5 88t13.5 94.5q0 55 -16 104t-47 85.5t-76.5 57.5t-104.5 21q-72 0 -132 -28t-108 -75.5t-83.5 -109t-59 -129t-35.5 -136.5t-12 -130q0 -62 13 -128t38 -130t62 -121
t85.5 -100t108 -68.5t129.5 -25.5q48 0 93.5 13t87.5 35t79.5 52t69.5 65l33 -32q-44 -58 -104.5 -111.5t-130.5 -95t-146.5 -66t-151.5 -24.5q-73 0 -137.5 25.5t-118.5 69t-96.5 102t-72 124.5t-45 136t-15.5 137q0 97 32.5 199.5t89.5 199t134.5 182.5t167 150t187 101.5
t194.5 37.5q60 0 112 -17.5t90 -50.5t60 -82t22 -112zM617 1700q19 0 36 -7.5t30 -20.5t20.5 -30.5t7.5 -36.5t-7.5 -36t-20.5 -30t-30 -20.5t-36 -7.5q-20 0 -37 7.5t-30 20.5t-20 30t-7 36t7 36.5t20 30.5t30 20.5t37 7.5z" />
    <glyph glyph-name="Ccaron" unicode="&#x10c;" horiz-adv-x="1235" 
d="M1171 1190q0 -76 -30 -151t-80.5 -139t-116.5 -112t-137 -69l-21 35q42 21 77 54t60 74.5t38.5 88t13.5 94.5q0 55 -16 104t-47 85.5t-76.5 57.5t-104.5 21q-72 0 -132 -28t-108 -75.5t-83.5 -109t-59 -129t-35.5 -136.5t-12 -130q0 -62 13 -128t38 -130t62 -121
t85.5 -100t108 -68.5t129.5 -25.5q48 0 93.5 13t87.5 35t79.5 52t69.5 65l33 -32q-44 -58 -104.5 -111.5t-130.5 -95t-146.5 -66t-151.5 -24.5q-73 0 -137.5 25.5t-118.5 69t-96.5 102t-72 124.5t-45 136t-15.5 137q0 97 32.5 199.5t89.5 199t134.5 182.5t167 150t187 101.5
t194.5 37.5q60 0 112 -17.5t90 -50.5t60 -82t22 -112zM900 1805l-276 -311l-289 270l102 107l244 -232l170 207z" />
    <glyph glyph-name="Dcaron" unicode="&#x10e;" horiz-adv-x="1358" 
d="M1276 932q0 -127 -47.5 -245.5t-128.5 -222.5t-188.5 -191t-227.5 -151t-246 -102t-243 -45v1121l206 73v-1089q141 41 258.5 118.5t202.5 183.5t132.5 237t47.5 280q0 85 -21.5 162.5t-66 136t-112.5 93t-162 34.5q-77 0 -154.5 -17t-151 -47.5t-141 -72.5t-124.5 -92
l-31 34q60 65 142 122.5t175 101t191 69t190 25.5q124 0 218 -37t156.5 -105t94 -163t31.5 -211zM961 1808l-276 -311l-289 270l102 107l244 -232l170 207z" />
    <glyph glyph-name="Dcroat" unicode="&#x110;" horiz-adv-x="1364" 
d="M707 754l-41 -101h-258v-573q140 41 258 118.5t203 183.5t132.5 237t47.5 280q0 85 -21.5 162.5t-65.5 136t-113 93t-163 34.5q-77 0 -154.5 -17t-151 -47.5t-141 -72.5t-124.5 -92l-31 34q60 65 142.5 122.5t175.5 101t191 69t189 25.5q124 0 218 -37t156.5 -105
t94 -163t31.5 -211q0 -128 -47.5 -246.5t-128.5 -222.5t-188.5 -190.5t-227.5 -150.5t-246 -102t-243 -45v678h-219l43 101h176v342l207 73v-415h299z" />
    <glyph glyph-name="Emacron" unicode="&#x112;" horiz-adv-x="1092" 
d="M1063 393q-44 -81 -106.5 -154t-139 -129t-165 -89t-185.5 -33q-75 0 -146 25t-126.5 71t-89 110.5t-33.5 143.5q0 77 31 143.5t80.5 121.5t112 98t126.5 73q-45 8 -81 33t-61 60t-38 78t-13 87q0 61 22 115.5t59.5 101t87.5 84t105.5 63.5t114 40t113.5 14
q82 0 150 -32.5t120 -94.5l-145 -106q-21 29 -45.5 54.5t-53 44t-61 29.5t-69.5 11q-46 0 -90.5 -16.5t-79.5 -46t-56.5 -70.5t-21.5 -90q0 -51 22 -94.5t58 -75.5t82.5 -50t95.5 -18q56 0 104 18l15 -41q-81 -26 -161.5 -66.5t-144.5 -97.5t-103.5 -132t-39.5 -170
q0 -55 16 -102t46.5 -82t75 -55t100.5 -20q58 0 130 23.5t141 62.5t126 89t86 102zM405 1509l72 157h413l-69 -157h-416z" />
    <glyph glyph-name="Ebreve" unicode="&#x114;" horiz-adv-x="1092" 
d="M1063 393q-44 -81 -106.5 -154t-139 -129t-165 -89t-185.5 -33q-75 0 -146 25t-126.5 71t-89 110.5t-33.5 143.5q0 77 31 143.5t80.5 121.5t112 98t126.5 73q-45 8 -81 33t-61 60t-38 78t-13 87q0 61 22 115.5t59.5 101t87.5 84t105.5 63.5t114 40t113.5 14
q82 0 150 -32.5t120 -94.5l-145 -106q-21 29 -45.5 54.5t-53 44t-61 29.5t-69.5 11q-46 0 -90.5 -16.5t-79.5 -46t-56.5 -70.5t-21.5 -90q0 -51 22 -94.5t58 -75.5t82.5 -50t95.5 -18q56 0 104 18l15 -41q-81 -26 -161.5 -66.5t-144.5 -97.5t-103.5 -132t-39.5 -170
q0 -55 16 -102t46.5 -82t75 -55t100.5 -20q58 0 130 23.5t141 62.5t126 89t86 102zM473 1871l29 -22q-16 -22 -22.5 -48.5t-6.5 -52.5q0 -27 7.5 -59.5t23.5 -60.5t40 -47t56 -19q43 0 69.5 27.5t26.5 70.5q0 37 -18 73.5t-47 59.5l131 84q57 -63 57 -151q0 -51 -18 -92.5
t-49.5 -71.5t-75 -46t-93.5 -16q-41 0 -76 13.5t-60.5 37.5t-39.5 58t-14 76q0 24 6 50t16.5 50.5t25 47t32.5 38.5z" />
    <glyph glyph-name="Edotaccent" unicode="&#x116;" horiz-adv-x="1092" 
d="M1063 393q-44 -81 -106.5 -154t-139 -129t-165 -89t-185.5 -33q-75 0 -146 25t-126.5 71t-89 110.5t-33.5 143.5q0 77 31 143.5t80.5 121.5t112 98t126.5 73q-45 8 -81 33t-61 60t-38 78t-13 87q0 61 22 115.5t59.5 101t87.5 84t105.5 63.5t114 40t113.5 14
q82 0 150 -32.5t120 -94.5l-145 -106q-21 29 -45.5 54.5t-53 44t-61 29.5t-69.5 11q-46 0 -90.5 -16.5t-79.5 -46t-56.5 -70.5t-21.5 -90q0 -51 22 -94.5t58 -75.5t82.5 -50t95.5 -18q56 0 104 18l15 -41q-81 -26 -161.5 -66.5t-144.5 -97.5t-103.5 -132t-39.5 -170
q0 -55 16 -102t46.5 -82t75 -55t100.5 -20q58 0 130 23.5t141 62.5t126 89t86 102zM616 1704q19 0 36 -7.5t30 -20.5t20.5 -30.5t7.5 -36.5t-7.5 -36t-20.5 -30t-30 -20.5t-36 -7.5q-20 0 -37 7.5t-30 20.5t-20 30t-7 36t7 36.5t20 30.5t30 20.5t37 7.5z" />
    <glyph glyph-name="Eogonek" unicode="&#x118;" horiz-adv-x="1092" 
d="M1063 393q-41 -75 -98.5 -144.5t-127.5 -124t-151 -90t-170 -43.5q-33 -38 -43.5 -67t-8.5 -49q2 -23 15 -39q16 -16 34 -20q15 -4 35 1.5t41 32.5l23 -19q-20 -31 -39.5 -48.5t-34.5 -27.5q-18 -11 -34 -16q-22 -4 -48 2.5t-46.5 24.5t-28.5 48.5t6 74.5q5 14 16 31
q9 14 24 31.5t38 36.5q-75 0 -145.5 25t-125.5 71t-88.5 110.5t-33.5 143.5q0 77 31 143.5t80.5 121.5t112 98t126.5 73q-45 8 -81 33t-61 60t-38 78t-13 87q0 61 22 115.5t59.5 101t87.5 84t105.5 63.5t114 40t113.5 14q82 0 150 -32.5t120 -94.5l-145 -106
q-21 29 -45.5 54.5t-53 44t-61 29.5t-69.5 11q-46 0 -90.5 -16.5t-79.5 -46t-56.5 -70.5t-21.5 -90q0 -51 22 -94.5t58 -75.5t82.5 -50t95.5 -18q56 0 104 18l15 -41q-81 -26 -161.5 -66.5t-144.5 -97.5t-103.5 -132t-39.5 -170q0 -55 16 -102t46.5 -82t75 -55t100.5 -20
q58 0 130 23.5t141 62.5t126 89t86 102z" />
    <glyph glyph-name="Ecaron" unicode="&#x11a;" horiz-adv-x="1092" 
d="M1063 393q-44 -81 -106.5 -154t-139 -129t-165 -89t-185.5 -33q-75 0 -146 25t-126.5 71t-89 110.5t-33.5 143.5q0 77 31 143.5t80.5 121.5t112 98t126.5 73q-45 8 -81 33t-61 60t-38 78t-13 87q0 61 22 115.5t59.5 101t87.5 84t105.5 63.5t114 40t113.5 14
q82 0 150 -32.5t120 -94.5l-145 -106q-21 29 -45.5 54.5t-53 44t-61 29.5t-69.5 11q-46 0 -90.5 -16.5t-79.5 -46t-56.5 -70.5t-21.5 -90q0 -51 22 -94.5t58 -75.5t82.5 -50t95.5 -18q56 0 104 18l15 -41q-81 -26 -161.5 -66.5t-144.5 -97.5t-103.5 -132t-39.5 -170
q0 -55 16 -102t46.5 -82t75 -55t100.5 -20q58 0 130 23.5t141 62.5t126 89t86 102zM898 1815l-276 -311l-289 270l102 107l244 -232l170 207z" />
    <glyph glyph-name="Gcircumflex" unicode="&#x11c;" horiz-adv-x="1329" 
d="M1206 1255q0 -57 -30.5 -107t-76 -91.5t-99 -73t-99.5 -49.5q-49 -19 -99.5 -30.5t-101.5 -14.5l-20 35q43 11 88 35t82 58.5t60.5 77.5t23.5 93q0 35 -12.5 62t-34 45.5t-50.5 28t-63 9.5q-83 0 -147.5 -31t-113.5 -83.5t-83 -120.5t-55.5 -142.5t-31 -150.5t-9.5 -143
q0 -50 5.5 -105.5t19.5 -110.5t37 -105t58 -88t82.5 -60.5t110.5 -22.5q54 0 101 20t86 53t69.5 77t52 92t32.5 97t11 93l207 74v-819l-207 -74v623q-19 -82 -63.5 -158t-104.5 -134.5t-130.5 -94t-141.5 -35.5q-108 0 -196 44.5t-150 118.5t-95.5 170t-33.5 199
q0 111 30 223.5t85 215.5t132 193t170.5 156t201 104t223.5 38q43 0 92.5 -9.5t91 -31.5t69 -58.5t27.5 -91.5zM433 1528l-51 41l279 312l286 -271l-100 -106l-244 231z" />
    <glyph glyph-name="Gbreve" unicode="&#x11e;" horiz-adv-x="1329" 
d="M1206 1255q0 -57 -30.5 -107t-76 -91.5t-99 -73t-99.5 -49.5q-49 -19 -99.5 -30.5t-101.5 -14.5l-20 35q43 11 88 35t82 58.5t60.5 77.5t23.5 93q0 35 -12.5 62t-34 45.5t-50.5 28t-63 9.5q-83 0 -147.5 -31t-113.5 -83.5t-83 -120.5t-55.5 -142.5t-31 -150.5t-9.5 -143
q0 -50 5.5 -105.5t19.5 -110.5t37 -105t58 -88t82.5 -60.5t110.5 -22.5q54 0 101 20t86 53t69.5 77t52 92t32.5 97t11 93l207 74v-819l-207 -74v623q-19 -82 -63.5 -158t-104.5 -134.5t-130.5 -94t-141.5 -35.5q-108 0 -196 44.5t-150 118.5t-95.5 170t-33.5 199
q0 111 30 223.5t85 215.5t132 193t170.5 156t201 104t223.5 38q43 0 92.5 -9.5t91 -31.5t69 -58.5t27.5 -91.5zM581 1874l29 -22q-16 -22 -22.5 -48.5t-6.5 -52.5q0 -27 7.5 -59.5t23.5 -60.5t40 -47t56 -19q43 0 69.5 27.5t26.5 70.5q0 37 -18 73.5t-47 59.5l131 84
q57 -63 57 -151q0 -51 -18 -92.5t-49.5 -71.5t-75 -46t-93.5 -16q-41 0 -76 13.5t-60.5 37.5t-39.5 58t-14 76q0 24 6 50t16.5 50.5t25 47t32.5 38.5z" />
    <glyph glyph-name="Gdotaccent" unicode="&#x120;" horiz-adv-x="1329" 
d="M1206 1255q0 -57 -30.5 -107t-76 -91.5t-99 -73t-99.5 -49.5q-49 -19 -99.5 -30.5t-101.5 -14.5l-20 35q43 11 88 35t82 58.5t60.5 77.5t23.5 93q0 35 -12.5 62t-34 45.5t-50.5 28t-63 9.5q-83 0 -147.5 -31t-113.5 -83.5t-83 -120.5t-55.5 -142.5t-31 -150.5t-9.5 -143
q0 -50 5.5 -105.5t19.5 -110.5t37 -105t58 -88t82.5 -60.5t110.5 -22.5q54 0 101 20t86 53t69.5 77t52 92t32.5 97t11 93l207 74v-819l-207 -74v623q-19 -82 -63.5 -158t-104.5 -134.5t-130.5 -94t-141.5 -35.5q-108 0 -196 44.5t-150 118.5t-95.5 170t-33.5 199
q0 111 30 223.5t85 215.5t132 193t170.5 156t201 104t223.5 38q43 0 92.5 -9.5t91 -31.5t69 -58.5t27.5 -91.5zM664 1685q19 0 36 -7.5t30 -20.5t20.5 -30.5t7.5 -36.5t-7.5 -36t-20.5 -30t-30 -20.5t-36 -7.5q-20 0 -37 7.5t-30 20.5t-20 30t-7 36t7 36.5t20 30.5t30 20.5
t37 7.5z" />
    <glyph glyph-name="Gcommaaccent" unicode="&#x122;" horiz-adv-x="1329" 
d="M1206 1255q0 -57 -30.5 -107t-76 -91.5t-99 -73t-99.5 -49.5q-49 -19 -99.5 -30.5t-101.5 -14.5l-20 35q43 11 88 35t82 58.5t60.5 77.5t23.5 93q0 35 -12.5 62t-34 45.5t-50.5 28t-63 9.5q-83 0 -147.5 -31t-113.5 -83.5t-83 -120.5t-55.5 -142.5t-31 -150.5t-9.5 -143
q0 -50 5.5 -105.5t19.5 -110.5t37 -105t58 -88t82.5 -60.5t110.5 -22.5q54 0 101 20t86 53t69.5 77t52 92t32.5 97t11 93l207 74v-819l-207 -74v623q-19 -82 -63.5 -158t-104.5 -134.5t-130.5 -94t-141.5 -35.5q-108 0 -196 44.5t-150 118.5t-95.5 170t-33.5 199
q0 111 30 223.5t85 215.5t132 193t170.5 156t201 104t223.5 38q43 0 92.5 -9.5t91 -31.5t69 -58.5t27.5 -91.5zM745 -167q0 -27 -9 -51.5t-25 -45.5t-36.5 -38.5t-42.5 -30.5l-26 21q13 12 24 30.5t15 35.5q-27 8 -44.5 29.5t-17.5 49.5q0 33 23.5 57.5t56.5 24.5
q34 0 58 -24.5t24 -57.5z" />
    <glyph glyph-name="Hcircumflex" unicode="&#x124;" horiz-adv-x="1325" 
d="M1137 43l-207 -74v568h-520v-494l-207 -74v568h-160l74 145h86v719l207 74v-793h520v719l207 74v-1432zM491 1535l-51 41l279 312l286 -271l-100 -106l-244 231z" />
    <glyph glyph-name="Hbar" unicode="&#x126;" horiz-adv-x="1325" 
d="M1241 937l-50 -103h-54v-791l-207 -74v568h-520v-494l-207 -74v568h-160l74 145h86v152h-145l50 103h95v464l207 74v-538h520v464l207 74v-538h104zM930 682v152h-520v-152h520z" />
    <glyph glyph-name="Itilde" unicode="&#x128;" horiz-adv-x="584" 
d="M395 43l-207 -74v1432l207 74v-1432zM146 1533l-39 -20q-21 23 -30 46t-12 43q-4 23 -1 44q9 54 38 89t91 38q31 1 56 -10.5t45.5 -28t37 -34t31.5 -27.5q15 -11 31.5 -10t28 13.5t15 36.5t-8.5 60l38 16q24 -32 31 -63.5t6 -56.5q-1 -30 -10 -56q-14 -35 -35 -56
t-46 -29.5t-51.5 -4.5t-51.5 21q-26 18 -47 39t-39.5 37t-35 23.5t-34.5 -1.5q-15 -10 -22 -25q-6 -13 -5.5 -33.5t19.5 -50.5z" />
    <glyph glyph-name="Imacron" unicode="&#x12a;" horiz-adv-x="584" 
d="M395 43l-207 -74v1432l207 74v-1432zM49 1525l72 157h413l-69 -157h-416z" />
    <glyph glyph-name="Ibreve" unicode="&#x12c;" horiz-adv-x="584" 
d="M395 43l-207 -74v1432l207 74v-1432zM159 1902l29 -22q-16 -22 -22.5 -48.5t-6.5 -52.5q0 -27 7.5 -59.5t23.5 -60.5t40 -47t56 -19q43 0 69.5 27.5t26.5 70.5q0 37 -18 73.5t-47 59.5l131 84q57 -63 57 -151q0 -51 -18 -92.5t-49.5 -71.5t-75 -46t-93.5 -16
q-41 0 -76 13.5t-60.5 37.5t-39.5 58t-14 76q0 24 6 50t16.5 50.5t25 47t32.5 38.5z" />
    <glyph glyph-name="Iogonek" unicode="&#x12e;" horiz-adv-x="584" 
d="M395 43l-70 -25q-36 -40 -47 -69.5t-10 -49.5q1 -24 15 -41q16 -16 34 -20q15 -4 35 1.5t41 32.5l23 -19q-20 -31 -39.5 -48.5t-34.5 -27.5q-18 -11 -34 -16q-22 -4 -48 2.5t-46.5 24.5t-28.5 48.5t6 74.5q4 11 12 24q6 11 16.5 25t26.5 30l-58 -21v1432l207 74v-1432z
" />
    <glyph glyph-name="Idotaccent" unicode="&#x130;" horiz-adv-x="584" 
d="M395 43l-207 -74v1432l207 74v-1432zM292 2353q19 0 36 -7.5t30 -20.5t20.5 -30.5t7.5 -36.5t-7.5 -36t-20.5 -30t-30 -20.5t-36 -7.5q-20 0 -37 7.5t-30 20.5t-20 30t-7 36t7 36.5t20 30.5t30 20.5t37 7.5z" />
    <glyph glyph-name="IJ" unicode="&#x132;" horiz-adv-x="1428" 
d="M395 43l-207 -74v1432l207 74v-1432zM1416 1434q-41 -50 -81.5 -99t-78.5 -100q-20 -26 -34.5 -48.5t-24.5 -45.5t-14.5 -49t-4.5 -58v-801q0 -99 -38.5 -189.5t-104.5 -160t-154 -110.5t-188 -41q-82 0 -154.5 29t-134.5 81l168 150q15 -31 42 -63.5t60 -59.5
t69.5 -44.5t72.5 -17.5q49 0 79.5 24t47 60.5t22.5 80t6 81.5v865q0 47 19.5 92t49.5 85.5t66 75.5t70 64h-221q-38 0 -68 -7.5t-55.5 -21.5t-48.5 -35t-47 -49l-29 33q34 46 81 95.5t101.5 90t115 67t122.5 26.5h289z" />
    <glyph glyph-name="Jcircumflex" unicode="&#x134;" horiz-adv-x="854" 
d="M842 1434q-41 -50 -81.5 -99t-78.5 -100q-20 -26 -34.5 -48.5t-24.5 -45.5t-14.5 -49t-4.5 -58v-801q0 -99 -38.5 -189.5t-104.5 -160t-154 -110.5t-188 -41q-82 0 -154.5 29t-134.5 81l168 150q15 -31 42 -63.5t60 -59.5t69.5 -44.5t72.5 -17.5q49 0 79.5 24t47 60.5
t22.5 80t6 81.5v865q0 47 19.5 92t49.5 85.5t66 75.5t70 64h-221q-38 0 -68 -7.5t-55.5 -21.5t-48.5 -35t-47 -49l-29 33q34 46 81 95.5t101.5 90t115 67t122.5 26.5h289zM275 1521l-51 41l279 312l286 -271l-100 -106l-244 231z" />
    <glyph glyph-name="Kcommaaccent" unicode="&#x136;" horiz-adv-x="1257" 
d="M1245 240q-22 -39 -56.5 -84t-77.5 -83.5t-91.5 -64.5t-99.5 -26q-62 0 -113 27t-93.5 68t-78 91t-66.5 96q-43 63 -86.5 136.5t-87.5 138.5v-496l-207 -74v1432l207 74v-873l666 834l117 -11l-623 -739q75 -102 150 -213t153 -211q15 -20 33 -41.5t39 -39t45 -29
t53 -11.5q21 0 48 14.5t53 34.5t48 41.5t35 36.5zM709 -167q0 -27 -9 -51.5t-25 -45.5t-36.5 -38.5t-42.5 -30.5l-26 21q13 12 24 30.5t15 35.5q-27 8 -44.5 29.5t-17.5 49.5q0 33 23.5 57.5t56.5 24.5q34 0 58 -24.5t24 -57.5z" />
    <glyph glyph-name="Lacute" unicode="&#x139;" horiz-adv-x="1128" 
d="M1098 283l-201 -326q-68 12 -125.5 21t-113 16.5t-113.5 15.5t-125 19q-26 5 -51.5 7.5t-51.5 2.5q-55 0 -105.5 -15t-96.5 -47l-31 33q21 18 36 43t25.5 53.5t15.5 57.5t5 55v590q0 140 49 261t135.5 210.5t204 141t254.5 51.5q44 0 85 -10t72.5 -32t50.5 -57t19 -86
q0 -45 -17 -87t-46.5 -80t-68 -70.5t-80.5 -58.5t-86 -44t-83 -28l-16 38q34 20 70.5 46t66.5 57.5t49 69t19 81.5q0 35 -13 64.5t-35.5 50.5t-52 33t-63.5 12q-75 0 -132 -32t-96 -84t-59 -118t-20 -134v-644q0 -38 -11 -73.5t-29.5 -68t-43.5 -61.5t-53 -53q32 23 62 42.5
t61.5 33.5t65.5 21.5t75 7.5q50 0 89 -5t76.5 -10.5t76.5 -10.5t89 -5q35 0 67.5 10.5t61.5 28.5t54.5 41.5t46.5 50.5zM605 1499l-25 35l233 279l117 -131z" />
    <glyph glyph-name="Lcommaaccent" unicode="&#x13b;" horiz-adv-x="1128" 
d="M1098 283l-201 -326q-68 12 -125.5 21t-113 16.5t-113.5 15.5t-125 19q-26 5 -51.5 7.5t-51.5 2.5q-55 0 -105.5 -15t-96.5 -47l-31 33q21 18 36 43t25.5 53.5t15.5 57.5t5 55v590q0 140 49 261t135.5 210.5t204 141t254.5 51.5q44 0 85 -10t72.5 -32t50.5 -57t19 -86
q0 -45 -17 -87t-46.5 -80t-68 -70.5t-80.5 -58.5t-86 -44t-83 -28l-16 38q34 20 70.5 46t66.5 57.5t49 69t19 81.5q0 35 -13 64.5t-35.5 50.5t-52 33t-63.5 12q-75 0 -132 -32t-96 -84t-59 -118t-20 -134v-644q0 -38 -11 -73.5t-29.5 -68t-43.5 -61.5t-53 -53q32 23 62 42.5
t61.5 33.5t65.5 21.5t75 7.5q50 0 89 -5t76.5 -10.5t76.5 -10.5t89 -5q35 0 67.5 10.5t61.5 28.5t54.5 41.5t46.5 50.5zM645 -167q0 -27 -9 -51.5t-25 -45.5t-36.5 -38.5t-42.5 -30.5l-26 21q13 12 24 30.5t15 35.5q-27 8 -44.5 29.5t-17.5 49.5q0 33 23.5 57.5t56.5 24.5
q34 0 58 -24.5t24 -57.5z" />
    <glyph glyph-name="Ldot" unicode="&#x13f;" horiz-adv-x="1341" 
d="M1098 283l-201 -326q-68 12 -125.5 21t-113 16.5t-113.5 15.5t-125 19q-26 5 -51.5 7.5t-51.5 2.5q-55 0 -105.5 -15t-96.5 -47l-31 33q21 18 36 43t25.5 53.5t15.5 57.5t5 55v590q0 140 49 261t135.5 210.5t204 141t254.5 51.5q44 0 85 -10t72.5 -32t50.5 -57t19 -86
q0 -45 -17 -87t-46.5 -80t-68 -70.5t-80.5 -58.5t-86 -44t-83 -28l-16 38q34 20 70.5 46t66.5 57.5t49 69t19 81.5q0 35 -13 64.5t-35.5 50.5t-52 33t-63.5 12q-75 0 -132 -32t-96 -84t-59 -118t-20 -134v-644q0 -38 -11 -73.5t-29.5 -68t-43.5 -61.5t-53 -53q32 23 62 42.5
t61.5 33.5t65.5 21.5t75 7.5q50 0 89 -5t76.5 -10.5t76.5 -10.5t89 -5q35 0 67.5 10.5t61.5 28.5t54.5 41.5t46.5 50.5zM1243 731q0 -24 -9.5 -44.5t-25.5 -36.5t-37 -25t-45 -9t-44.5 9t-36.5 25t-25 36.5t-9 44.5t9 45.5t25 37t36.5 25t44.5 9.5t45 -9.5t37 -25t25.5 -37
t9.5 -45.5z" />
    <glyph glyph-name="Lcaron" unicode="&#x13d;" horiz-adv-x="1315" 
d="M1098 283l-201 -326q-68 12 -125.5 21t-113 16.5t-113.5 15.5t-125 19q-26 5 -51.5 7.5t-51.5 2.5q-55 0 -105.5 -15t-96.5 -47l-31 33q21 18 36 43t25.5 53.5t15.5 57.5t5 55v590q0 140 49 261t135.5 210.5t204 141t254.5 51.5q44 0 85 -10t72.5 -32t50.5 -57t19 -86
q0 -45 -17 -87t-46.5 -80t-68 -70.5t-80.5 -58.5t-86 -44t-83 -28l-16 38q34 20 70.5 46t66.5 57.5t49 69t19 81.5q0 35 -13 64.5t-35.5 50.5t-52 33t-63.5 12q-75 0 -132 -32t-96 -84t-59 -118t-20 -134v-644q0 -38 -11 -73.5t-29.5 -68t-43.5 -61.5t-53 -53q32 23 62 42.5
t61.5 33.5t65.5 21.5t75 7.5q50 0 89 -5t76.5 -10.5t76.5 -10.5t89 -5q35 0 67.5 10.5t61.5 28.5t54.5 41.5t46.5 50.5zM1270 1351q0 -27 -9 -51.5t-25 -45.5t-36.5 -38.5t-42.5 -30.5l-25 22q12 11 23.5 29.5t14.5 35.5q-27 8 -44 29.5t-17 49.5q0 34 23 58t57 24
q33 0 57 -24t24 -58z" />
    <glyph glyph-name="Nacute" unicode="&#x143;" horiz-adv-x="1264" 
d="M1270 137q-15 -29 -37.5 -56t-51 -47.5t-60.5 -33t-66 -12.5q-56 0 -97.5 21t-70 56.5t-42.5 81.5t-14 97v864v52.5t-2.5 56.5t-9.5 54t-21 45.5t-36.5 31.5t-56.5 12q-57 0 -102 -34t-79.5 -88.5t-59 -123t-40 -137.5t-22.5 -132t-7 -106v-692l-207 -76v1432l207 74
v-377q20 73 53.5 140.5t82 119.5t114 82.5t150.5 30.5q64 0 110 -23.5t75.5 -63.5t43.5 -93t14 -111v-971q0 -20 4.5 -40t14 -36.5t25.5 -26.5t40 -10q34 0 64.5 21t50.5 47zM655 1507l-25 35l233 279l117 -131z" />
    <glyph glyph-name="Ncommaaccent" unicode="&#x145;" horiz-adv-x="1264" 
d="M1270 137q-15 -29 -37.5 -56t-51 -47.5t-60.5 -33t-66 -12.5q-56 0 -97.5 21t-70 56.5t-42.5 81.5t-14 97v864v52.5t-2.5 56.5t-9.5 54t-21 45.5t-36.5 31.5t-56.5 12q-57 0 -102 -34t-79.5 -88.5t-59 -123t-40 -137.5t-22.5 -132t-7 -106v-692l-207 -76v1432l207 74
v-377q20 73 53.5 140.5t82 119.5t114 82.5t150.5 30.5q64 0 110 -23.5t75.5 -63.5t43.5 -93t14 -111v-971q0 -20 4.5 -40t14 -36.5t25.5 -26.5t40 -10q34 0 64.5 21t50.5 47zM713 -167q0 -27 -9 -51.5t-25 -45.5t-36.5 -38.5t-42.5 -30.5l-26 21q13 12 24 30.5t15 35.5
q-27 8 -44.5 29.5t-17.5 49.5q0 33 23.5 57.5t56.5 24.5q34 0 58 -24.5t24 -57.5z" />
    <glyph glyph-name="Ncaron" unicode="&#x147;" horiz-adv-x="1264" 
d="M1270 137q-15 -29 -37.5 -56t-51 -47.5t-60.5 -33t-66 -12.5q-56 0 -97.5 21t-70 56.5t-42.5 81.5t-14 97v864v52.5t-2.5 56.5t-9.5 54t-21 45.5t-36.5 31.5t-56.5 12q-57 0 -102 -34t-79.5 -88.5t-59 -123t-40 -137.5t-22.5 -132t-7 -106v-692l-207 -76v1432l207 74
v-377q20 73 53.5 140.5t82 119.5t114 82.5t150.5 30.5q64 0 110 -23.5t75.5 -63.5t43.5 -93t14 -111v-971q0 -20 4.5 -40t14 -36.5t25.5 -26.5t40 -10q34 0 64.5 21t50.5 47zM914 1822l-276 -311l-289 270l102 107l244 -232l170 207z" />
    <glyph glyph-name="Eng" unicode="&#x14a;" horiz-adv-x="1129" 
d="M831 1108v52.5t-2.5 56.5t-9.5 54t-21 45.5t-36.5 31.5t-56.5 12q-57 0 -102 -34t-79.5 -88.5t-59 -123t-40 -137.5t-22.5 -132t-7 -106v-692l-207 -76v1432l207 74v-377q20 73 53.5 140.5t82 119.5t114 82.5t150.5 30.5q64 0 110 -23.5t75.5 -63.5t43.5 -93t14 -111
l2 -1099q0 -99 -38.5 -189.5t-104.5 -160t-154 -110.5t-188 -41q-82 0 -154.5 29t-134.5 81l168 150q15 -31 42 -63.5t60 -59.5t69.5 -44.5t72.5 -17.5q49 0 79.5 24t47 60.5t22.5 80t6 81.5z" />
    <glyph glyph-name="Omacron" unicode="&#x14c;" 
d="M1378 715q0 -92 -20 -183.5t-58.5 -174t-94 -153.5t-127.5 -123.5t-158.5 -82t-186.5 -29.5t-186.5 29.5t-158.5 82t-128 123.5t-95 153.5t-59 174t-20 183.5t20 183t59 173.5t95 154t128 123.5t158.5 81.5t186.5 29.5t186.5 -29.5t158.5 -81.5t127.5 -123.5t94 -154
t58.5 -173.5t20 -183zM643 1358q-65 0 -115.5 -22.5t-89.5 -61t-66 -89t-44 -106.5t-25 -114t-8 -111q0 -79 12 -167.5t38.5 -174.5t68 -164.5t100.5 -138.5t135.5 -95.5t173.5 -35.5q64 0 114.5 22.5t89.5 61t66 89.5t44.5 107t25.5 114.5t8 111.5q0 79 -12 167t-38.5 174
t-68 164.5t-100.5 138t-135.5 95t-173.5 35.5zM489 1525l72 157h413l-69 -157h-416z" />
    <glyph glyph-name="Obreve" unicode="&#x14e;" 
d="M1378 715q0 -92 -20 -183.5t-58.5 -174t-94 -153.5t-127.5 -123.5t-158.5 -82t-186.5 -29.5t-186.5 29.5t-158.5 82t-128 123.5t-95 153.5t-59 174t-20 183.5t20 183t59 173.5t95 154t128 123.5t158.5 81.5t186.5 29.5t186.5 -29.5t158.5 -81.5t127.5 -123.5t94 -154
t58.5 -173.5t20 -183zM643 1358q-65 0 -115.5 -22.5t-89.5 -61t-66 -89t-44 -106.5t-25 -114t-8 -111q0 -79 12 -167.5t38.5 -174.5t68 -164.5t100.5 -138.5t135.5 -95.5t173.5 -35.5q64 0 114.5 22.5t89.5 61t66 89.5t44.5 107t25.5 114.5t8 111.5q0 79 -12 167t-38.5 174
t-68 164.5t-100.5 138t-135.5 95t-173.5 35.5zM599 1894l29 -22q-16 -22 -22.5 -48.5t-6.5 -52.5q0 -27 7.5 -59.5t23.5 -60.5t40 -47t56 -19q43 0 69.5 27.5t26.5 70.5q0 37 -18 73.5t-47 59.5l131 84q57 -63 57 -151q0 -51 -18 -92.5t-49.5 -71.5t-75 -46t-93.5 -16
q-41 0 -76 13.5t-60.5 37.5t-39.5 58t-14 76q0 24 6 50t16.5 50.5t25 47t32.5 38.5z" />
    <glyph glyph-name="Ohungarumlaut" unicode="&#x150;" 
d="M1378 715q0 -92 -20 -183.5t-58.5 -174t-94 -153.5t-127.5 -123.5t-158.5 -82t-186.5 -29.5t-186.5 29.5t-158.5 82t-128 123.5t-95 153.5t-59 174t-20 183.5t20 183t59 173.5t95 154t128 123.5t158.5 81.5t186.5 29.5t186.5 -29.5t158.5 -81.5t127.5 -123.5t94 -154
t58.5 -173.5t20 -183zM643 1358q-65 0 -115.5 -22.5t-89.5 -61t-66 -89t-44 -106.5t-25 -114t-8 -111q0 -79 12 -167.5t38.5 -174.5t68 -164.5t100.5 -138.5t135.5 -95.5t173.5 -35.5q64 0 114.5 22.5t89.5 61t66 89.5t44.5 107t25.5 114.5t8 111.5q0 79 -12 167t-38.5 174
t-68 164.5t-100.5 138t-135.5 95t-173.5 35.5zM549 1511l-25 35l233 279l117 -131zM815 1511l-25 35l234 279l116 -131z" />
    <glyph glyph-name="Racute" unicode="&#x154;" horiz-adv-x="1307" 
d="M1247 217q-27 -37 -64 -79.5t-81 -79t-93.5 -61t-101.5 -24.5q-35 0 -65 10.5t-55.5 28.5t-48 41.5t-42.5 48.5q-66 82 -128.5 165t-121.5 169l11 41q65 11 131.5 33.5t127.5 56t114 78t92 99t61.5 119t22.5 138.5q0 71 -23 131t-64.5 104t-99.5 68.5t-129 24.5
q-90 0 -168.5 -20t-149 -53.5t-135.5 -76.5t-128 -89l-31 34q60 58 129.5 116.5t156.5 105.5t194.5 76.5t242.5 29.5q91 0 167.5 -32t131.5 -89t86 -135t31 -170q0 -143 -72 -248.5t-195 -171.5q-15 -8 -37.5 -21t-49 -28t-54.5 -30t-54 -27.5t-48 -21.5t-37 -11
q21 -28 51.5 -67t63.5 -80t65.5 -78t58.5 -60q25 -21 50.5 -37t60.5 -16q27 0 54 11.5t52 29.5t47 39t39 39zM401 45l-206 -76v1121l206 73v-1118zM640 1493l-25 35l233 279l117 -131z" />
    <glyph glyph-name="Rcommaaccent" unicode="&#x156;" horiz-adv-x="1307" 
d="M1247 217q-27 -37 -64 -79.5t-81 -79t-93.5 -61t-101.5 -24.5q-35 0 -65 10.5t-55.5 28.5t-48 41.5t-42.5 48.5q-66 82 -128.5 165t-121.5 169l11 41q65 11 131.5 33.5t127.5 56t114 78t92 99t61.5 119t22.5 138.5q0 71 -23 131t-64.5 104t-99.5 68.5t-129 24.5
q-90 0 -168.5 -20t-149 -53.5t-135.5 -76.5t-128 -89l-31 34q60 58 129.5 116.5t156.5 105.5t194.5 76.5t242.5 29.5q91 0 167.5 -32t131.5 -89t86 -135t31 -170q0 -143 -72 -248.5t-195 -171.5q-15 -8 -37.5 -21t-49 -28t-54.5 -30t-54 -27.5t-48 -21.5t-37 -11
q21 -28 51.5 -67t63.5 -80t65.5 -78t58.5 -60q25 -21 50.5 -37t60.5 -16q27 0 54 11.5t52 29.5t47 39t39 39zM401 45l-206 -76v1121l206 73v-1118zM734 -167q0 -27 -9 -51.5t-25 -45.5t-36.5 -38.5t-42.5 -30.5l-26 21q13 12 24 30.5t15 35.5q-27 8 -44.5 29.5t-17.5 49.5
q0 33 23.5 57.5t56.5 24.5q34 0 58 -24.5t24 -57.5z" />
    <glyph glyph-name="Rcaron" unicode="&#x158;" horiz-adv-x="1307" 
d="M1247 217q-27 -37 -64 -79.5t-81 -79t-93.5 -61t-101.5 -24.5q-35 0 -65 10.5t-55.5 28.5t-48 41.5t-42.5 48.5q-66 82 -128.5 165t-121.5 169l11 41q65 11 131.5 33.5t127.5 56t114 78t92 99t61.5 119t22.5 138.5q0 71 -23 131t-64.5 104t-99.5 68.5t-129 24.5
q-90 0 -168.5 -20t-149 -53.5t-135.5 -76.5t-128 -89l-31 34q60 58 129.5 116.5t156.5 105.5t194.5 76.5t242.5 29.5q91 0 167.5 -32t131.5 -89t86 -135t31 -170q0 -143 -72 -248.5t-195 -171.5q-15 -8 -37.5 -21t-49 -28t-54.5 -30t-54 -27.5t-48 -21.5t-37 -11
q21 -28 51.5 -67t63.5 -80t65.5 -78t58.5 -60q25 -21 50.5 -37t60.5 -16q27 0 54 11.5t52 29.5t47 39t39 39zM401 45l-206 -76v1121l206 73v-1118zM936 1817l-276 -311l-289 270l102 107l244 -232l170 207z" />
    <glyph glyph-name="Sacute" unicode="&#x15a;" horiz-adv-x="1106" 
d="M1065 1233l-168 -203q-22 66 -57 126t-83 105t-109 72t-136 27q-54 0 -100 -19.5t-80.5 -54t-54 -81.5t-19.5 -101q0 -56 21 -105t56 -88.5t80.5 -68.5t94.5 -45q49 -17 103 -38t106 -49t99 -62.5t83 -77.5t57 -95.5t21 -114.5q0 -90 -39.5 -161.5t-103.5 -120.5
t-146.5 -75t-167.5 -26q-58 0 -117.5 17t-114 46.5t-102 68.5t-82.5 84l162 186q15 -48 52.5 -102t87.5 -100t107.5 -76.5t111.5 -30.5q31 0 64 16t60.5 41.5t45.5 55.5t18 59q0 44 -18 83.5t-47.5 74.5t-68 64.5t-80 53t-83 41t-76.5 27.5q-69 21 -134.5 60t-116.5 94
t-82 123.5t-31 146.5q0 67 21 127t58 111t87 92.5t108 70t121 44t127 15.5q140 0 260 -62.5t205 -174.5zM598 1517l-25 35l233 279l117 -131z" />
    <glyph glyph-name="Scircumflex" unicode="&#x15c;" horiz-adv-x="1106" 
d="M1065 1233l-168 -203q-22 66 -57 126t-83 105t-109 72t-136 27q-54 0 -100 -19.5t-80.5 -54t-54 -81.5t-19.5 -101q0 -56 21 -105t56 -88.5t80.5 -68.5t94.5 -45q49 -17 103 -38t106 -49t99 -62.5t83 -77.5t57 -95.5t21 -114.5q0 -90 -39.5 -161.5t-103.5 -120.5
t-146.5 -75t-167.5 -26q-58 0 -117.5 17t-114 46.5t-102 68.5t-82.5 84l162 186q15 -48 52.5 -102t87.5 -100t107.5 -76.5t111.5 -30.5q31 0 64 16t60.5 41.5t45.5 55.5t18 59q0 44 -18 83.5t-47.5 74.5t-68 64.5t-80 53t-83 41t-76.5 27.5q-69 21 -134.5 60t-116.5 94
t-82 123.5t-31 146.5q0 67 21 127t58 111t87 92.5t108 70t121 44t127 15.5q140 0 260 -62.5t205 -174.5zM321 1537l-51 41l279 312l286 -271l-100 -106l-244 231z" />
    <glyph glyph-name="Scedilla" unicode="&#x15e;" horiz-adv-x="1106" 
d="M1065 1233l-168 -203q-22 66 -57 126t-83 105t-109 72t-136 27q-54 0 -100 -19.5t-80.5 -54t-54 -81.5t-19.5 -101q0 -56 21 -105t56 -88.5t80.5 -68.5t94.5 -45q49 -17 103 -38t106 -49t99 -62.5t83 -77.5t57 -95.5t21 -114.5q0 -83 -33 -149t-88 -114.5t-127 -78
t-149 -37.5l-31 -53q14 8 28.5 13t26.5 7q14 3 28 3q18 0 35.5 -7t31.5 -20.5t22.5 -35t8.5 -49.5t-11.5 -49.5t-29 -36.5t-39 -22.5t-41.5 -7.5q-21 1 -39 8q-16 6 -33.5 19.5t-29.5 39.5l23 16q7 -12 15.5 -18t16.5 -9q9 -4 17 -4q23 0 40.5 18t17.5 46q0 26 -17 45
t-46 19q-10 0 -19 -2q-8 -2 -15.5 -4.5t-9.5 -7.5l-23 19l41 70q-8 0 -14.5 -0.5t-13.5 -0.5q-58 0 -117.5 17t-114 46.5t-102 68.5t-82.5 84l162 186q15 -48 52.5 -102t87.5 -100t107.5 -76.5t111.5 -30.5q31 0 64 16t60.5 41.5t45.5 55.5t18 59q0 44 -18 83.5t-47.5 74.5
t-68 64.5t-80 53t-83 41t-76.5 27.5q-69 21 -134.5 60t-116.5 94t-82 123.5t-31 146.5q0 67 21 127t58 111t87 92.5t108 70t121 44t127 15.5q140 0 260 -62.5t205 -174.5z" />
    <glyph glyph-name="Tcommaaccent" unicode="&#x162;" horiz-adv-x="1008" 
d="M1071 1468q-32 -48 -76 -90t-96.5 -74t-110.5 -50.5t-116 -18.5l-23 -2q-38 -48 -58 -93t-20 -106v-639q0 -133 -56.5 -236.5t-166.5 -178.5l-33 38q17 19 27 43.5t15 50.5t6.5 52.5t1.5 50.5v703q0 47 19.5 91.5t49.5 84.5t66.5 75t70.5 64l-331 2q-38 0 -67.5 -7.5
t-54.5 -21.5t-48 -35t-47 -49l-29 31q33 45 74.5 95t90 91t104 68t116.5 27h432q26 0 58.5 3t65.5 10t62.5 18.5t49.5 29.5zM549 -167q0 -27 -9 -51.5t-25 -45.5t-36.5 -38.5t-42.5 -30.5l-26 21q13 12 24 30.5t15 35.5q-27 8 -44.5 29.5t-17.5 49.5q0 33 23.5 57.5
t56.5 24.5q34 0 58 -24.5t24 -57.5z" />
    <glyph glyph-name="Tcaron" unicode="&#x164;" horiz-adv-x="1008" 
d="M1071 1468q-32 -48 -76 -90t-96.5 -74t-110.5 -50.5t-116 -18.5l-23 -2q-38 -48 -58 -93t-20 -106v-639q0 -133 -56.5 -236.5t-166.5 -178.5l-33 38q17 19 27 43.5t15 50.5t6.5 52.5t1.5 50.5v703q0 47 19.5 91.5t49.5 84.5t66.5 75t70.5 64l-331 2q-38 0 -67.5 -7.5
t-54.5 -21.5t-48 -35t-47 -49l-29 31q33 45 74.5 95t90 91t104 68t116.5 27h432q26 0 58.5 3t65.5 10t62.5 18.5t49.5 29.5zM786 1805l-276 -311l-289 270l102 107l244 -232l170 207z" />
    <glyph glyph-name="Tbar" unicode="&#x166;" horiz-adv-x="1008" 
d="M732 774l-51 -101h-110v-278q0 -133 -56.5 -236.5t-166.5 -178.5l-33 38q17 19 27 43.5t15 50.5t6.5 52.5t1.5 50.5v458h-167l43 101h124v144q0 47 19.5 91.5t49.5 84.5t66.5 75t70.5 64l-331 2q-38 0 -67.5 -7.5t-54.5 -21.5t-48 -35t-47 -49l-29 31q33 45 74.5 95
t90 91t104 68t116.5 27h432q26 0 58.5 3t65.5 10t62.5 18.5t49.5 29.5l24 -27q-32 -48 -76 -90t-96.5 -74t-110.5 -50.5t-116 -18.5l-23 -2q-38 -48 -58 -93t-20 -106v-260h161z" />
    <glyph glyph-name="Utilde" unicode="&#x168;" horiz-adv-x="1270" 
d="M1249 137q-15 -29 -37.5 -56t-51 -47.5t-60.5 -33t-66 -12.5q-55 0 -97 21t-70 56.5t-42 81.5t-14 97v118q-20 -74 -53 -142.5t-82 -122t-114.5 -85.5t-149.5 -32q-64 0 -110 23.5t-76 63.5t-44 92.5t-14 110.5v1104l207 74v-1104q0 -36 1 -80t12 -82t38 -64t78 -26
q57 0 101.5 34.5t79 90t58.5 125.5t39 139.5t22 133t7 106.5v653l207 74v-1237q0 -20 4 -40t14 -35.5t26 -25.5t40 -10q34 0 64.5 20t50.5 46zM489 1512l-39 -20q-21 23 -30 46t-12 43q-4 23 -1 44q9 54 38 89t91 38q31 1 56 -10.5t45.5 -28t37 -34t31.5 -27.5
q15 -11 31.5 -10t28 13.5t15 36.5t-8.5 60l38 16q24 -32 31 -63.5t6 -56.5q-1 -30 -10 -56q-14 -35 -35 -56t-46 -29.5t-51.5 -4.5t-51.5 21q-26 18 -47 39t-39.5 37t-35 23.5t-34.5 -1.5q-15 -10 -22 -25q-6 -13 -5.5 -33.5t19.5 -50.5z" />
    <glyph glyph-name="Umacron" unicode="&#x16a;" horiz-adv-x="1270" 
d="M1249 137q-15 -29 -37.5 -56t-51 -47.5t-60.5 -33t-66 -12.5q-55 0 -97 21t-70 56.5t-42 81.5t-14 97v118q-20 -74 -53 -142.5t-82 -122t-114.5 -85.5t-149.5 -32q-64 0 -110 23.5t-76 63.5t-44 92.5t-14 110.5v1104l207 74v-1104q0 -36 1 -80t12 -82t38 -64t78 -26
q57 0 101.5 34.5t79 90t58.5 125.5t39 139.5t22 133t7 106.5v653l207 74v-1237q0 -20 4 -40t14 -35.5t26 -25.5t40 -10q34 0 64.5 20t50.5 46zM392 1499l72 157h413l-69 -157h-416z" />
    <glyph glyph-name="Ubreve" unicode="&#x16c;" horiz-adv-x="1270" 
d="M1249 137q-15 -29 -37.5 -56t-51 -47.5t-60.5 -33t-66 -12.5q-55 0 -97 21t-70 56.5t-42 81.5t-14 97v118q-20 -74 -53 -142.5t-82 -122t-114.5 -85.5t-149.5 -32q-64 0 -110 23.5t-76 63.5t-44 92.5t-14 110.5v1104l207 74v-1104q0 -36 1 -80t12 -82t38 -64t78 -26
q57 0 101.5 34.5t79 90t58.5 125.5t39 139.5t22 133t7 106.5v653l207 74v-1237q0 -20 4 -40t14 -35.5t26 -25.5t40 -10q34 0 64.5 20t50.5 46zM502 1864l29 -22q-16 -22 -22.5 -48.5t-6.5 -52.5q0 -27 7.5 -59.5t23.5 -60.5t40 -47t56 -19q43 0 69.5 27.5t26.5 70.5
q0 37 -18 73.5t-47 59.5l131 84q57 -63 57 -151q0 -51 -18 -92.5t-49.5 -71.5t-75 -46t-93.5 -16q-41 0 -76 13.5t-60.5 37.5t-39.5 58t-14 76q0 24 6 50t16.5 50.5t25 47t32.5 38.5z" />
    <glyph glyph-name="Uring" unicode="&#x16e;" horiz-adv-x="1270" 
d="M1249 137q-15 -29 -37.5 -56t-51 -47.5t-60.5 -33t-66 -12.5q-55 0 -97 21t-70 56.5t-42 81.5t-14 97v118q-20 -74 -53 -142.5t-82 -122t-114.5 -85.5t-149.5 -32q-64 0 -110 23.5t-76 63.5t-44 92.5t-14 110.5v1104l207 74v-1104q0 -36 1 -80t12 -82t38 -64t78 -26
q57 0 101.5 34.5t79 90t58.5 125.5t39 139.5t22 133t7 106.5v653l207 74v-1237q0 -20 4 -40t14 -35.5t26 -25.5t40 -10q34 0 64.5 20t50.5 46zM634 1891q40 0 76 -15.5t62.5 -42t42 -62.5t15.5 -76t-15.5 -75.5t-42 -62t-62.5 -42t-76 -15.5t-75.5 15.5t-62 42t-42 62
t-15.5 75.5t15.5 76t42 62.5t62 42t75.5 15.5zM691 1572q15 7 24.5 23t11.5 37.5t-2 46.5t-16 51t-28.5 46t-34.5 32t-36.5 15.5t-33.5 -3.5t-24 -23t-11 -37.5t2.5 -47t16.5 -50.5q12 -26 28 -46t34 -32t36 -15.5t33 3.5z" />
    <glyph glyph-name="Uhungarumlaut" unicode="&#x170;" horiz-adv-x="1270" 
d="M1249 137q-15 -29 -37.5 -56t-51 -47.5t-60.5 -33t-66 -12.5q-55 0 -97 21t-70 56.5t-42 81.5t-14 97v118q-20 -74 -53 -142.5t-82 -122t-114.5 -85.5t-149.5 -32q-64 0 -110 23.5t-76 63.5t-44 92.5t-14 110.5v1104l207 74v-1104q0 -36 1 -80t12 -82t38 -64t78 -26
q57 0 101.5 34.5t79 90t58.5 125.5t39 139.5t22 133t7 106.5v653l207 74v-1237q0 -20 4 -40t14 -35.5t26 -25.5t40 -10q34 0 64.5 20t50.5 46zM492 1510l-25 35l233 279l117 -131zM758 1510l-25 35l234 279l116 -131z" />
    <glyph glyph-name="Uogonek" unicode="&#x172;" horiz-adv-x="1270" 
d="M1249 137q-14 -27 -34 -51.5t-44.5 -44.5t-53.5 -33.5t-59 -17.5q-33 -38 -43 -66.5t-8 -48.5q2 -23 14 -39q16 -16 34 -20q15 -4 35 1.5t41 32.5l23 -19q-20 -31 -39.5 -48.5t-34.5 -27.5q-18 -11 -34 -16q-22 -4 -48 2.5t-46.5 24.5t-28.5 48.5t6 74.5q5 15 16 32
q9 14 24.5 32t39.5 37q-49 4 -86 26.5t-62 57t-37.5 78.5t-12.5 92v118q-20 -74 -53 -142.5t-82 -122t-114.5 -85.5t-149.5 -32q-64 0 -110 23.5t-76 63.5t-44 92.5t-14 110.5v1104l207 74v-1104q0 -36 1 -80t12 -82t38 -64t78 -26q57 0 101.5 34.5t79 90t58.5 125.5
t39 139.5t22 133t7 106.5v653l207 74v-1237q0 -20 4 -40t14 -35.5t26 -25.5t40 -10q34 0 64.5 20t50.5 46z" />
    <glyph glyph-name="Wcircumflex" unicode="&#x174;" horiz-adv-x="1591" 
d="M526 -35l-508 1378l203 91l377 -1084l143 389l-188 510l203 88l352 -1038q56 124 110.5 246.5t108.5 247.5q26 61 46 123.5t20 132.5q0 54 -13.5 102t-37.5 91.5t-57.5 82t-72.5 72.5l152 188q37 -27 67.5 -67t52.5 -86t34 -95t12 -94q0 -88 -26 -170.5t-60 -163.5
q-103 -238 -207 -472t-209 -472l-256 692zM564 1460l-51 41l279 312l286 -271l-100 -106l-244 231z" />
    <glyph glyph-name="Wgrave" unicode="&#x1e80;" horiz-adv-x="1591" 
d="M526 -35l-508 1378l203 91l377 -1084l143 389l-188 510l203 88l352 -1038q56 124 110.5 246.5t108.5 247.5q26 61 46 123.5t20 132.5q0 54 -13.5 102t-37.5 91.5t-57.5 82t-72.5 72.5l152 188q37 -27 67.5 -67t52.5 -86t34 -95t12 -94q0 -88 -26 -170.5t-60 -163.5
q-103 -238 -207 -472t-209 -472l-256 692zM374 1601l117 133l233 -279l-26 -37z" />
    <glyph glyph-name="Wacute" unicode="&#x1e82;" horiz-adv-x="1591" 
d="M526 -35l-508 1378l203 91l377 -1084l143 389l-188 510l203 88l352 -1038q56 124 110.5 246.5t108.5 247.5q26 61 46 123.5t20 132.5q0 54 -13.5 102t-37.5 91.5t-57.5 82t-72.5 72.5l152 188q37 -27 67.5 -67t52.5 -86t34 -95t12 -94q0 -88 -26 -170.5t-60 -163.5
q-103 -238 -207 -472t-209 -472l-256 692zM731 1409l-25 35l233 279l117 -131z" />
    <glyph glyph-name="Wdieresis" unicode="&#x1e84;" horiz-adv-x="1591" 
d="M526 -35l-508 1378l203 91l377 -1084l143 389l-188 510l203 88l352 -1038q56 124 110.5 246.5t108.5 247.5q26 61 46 123.5t20 132.5q0 54 -13.5 102t-37.5 91.5t-57.5 82t-72.5 72.5l152 188q37 -27 67.5 -67t52.5 -86t34 -95t12 -94q0 -88 -26 -170.5t-60 -163.5
q-103 -238 -207 -472t-209 -472l-256 692zM648 1593q19 0 36 -7.5t30 -20.5t20.5 -30.5t7.5 -36.5t-7.5 -36t-20.5 -30t-30 -20.5t-36 -7.5q-20 0 -37 7.5t-30 20.5t-20 30t-7 36t7 36.5t20 30.5t30 20.5t37 7.5zM945 1593q19 0 36 -7.5t29.5 -20.5t19.5 -30.5t7 -36.5
t-7 -36t-19.5 -30t-29.5 -20.5t-36 -7.5q-20 0 -37 7.5t-30 20.5t-20 30t-7 36t7 36.5t20 30.5t30 20.5t37 7.5z" />
    <glyph glyph-name="Ycircumflex" unicode="&#x176;" horiz-adv-x="1264" 
d="M1073 53q0 -81 -20.5 -149t-59 -125t-94.5 -103.5t-127 -85.5q-18 -10 -41.5 -17t-48.5 -12t-49 -7.5t-45 -2.5q-81 0 -153 29t-134 82l168 148q15 -30 41 -62.5t59 -59t69.5 -44t72.5 -17.5q25 0 45 8q37 15 59 40.5t33.5 58t14.5 68.5t3 71v489q-20 -74 -53 -141.5
t-82 -119t-114.5 -82.5t-149.5 -31q-64 0 -110 24t-76 64t-44 92.5t-14 110.5v927q0 20 -4 40t-13.5 35.5t-25.5 25.5t-39 10q-34 0 -65 -20t-51 -46l-33 29q15 29 37.5 56t51 48t60.5 33.5t66 12.5q55 0 97 -21t70 -56.5t42 -81.5t14 -97v-820q0 -37 1 -81t12 -82.5
t38 -64.5t78 -26q57 0 101.5 34t79 88.5t58.5 123.5t39 138t22 131.5t7 105.5v653l207 74v-1395zM400 1498l-51 41l279 312l286 -271l-100 -106l-244 231z" />
    <glyph glyph-name="Ygrave" unicode="&#x1ef2;" horiz-adv-x="1264" 
d="M1073 53q0 -81 -20.5 -149t-59 -125t-94.5 -103.5t-127 -85.5q-18 -10 -41.5 -17t-48.5 -12t-49 -7.5t-45 -2.5q-81 0 -153 29t-134 82l168 148q15 -30 41 -62.5t59 -59t69.5 -44t72.5 -17.5q25 0 45 8q37 15 59 40.5t33.5 58t14.5 68.5t3 71v489q-20 -74 -53 -141.5
t-82 -119t-114.5 -82.5t-149.5 -31q-64 0 -110 24t-76 64t-44 92.5t-14 110.5v927q0 20 -4 40t-13.5 35.5t-25.5 25.5t-39 10q-34 0 -65 -20t-51 -46l-33 29q15 29 37.5 56t51 48t60.5 33.5t66 12.5q55 0 97 -21t70 -56.5t42 -81.5t14 -97v-820q0 -37 1 -81t12 -82.5
t38 -64.5t78 -26q57 0 101.5 34t79 88.5t58.5 123.5t39 138t22 131.5t7 105.5v653l207 74v-1395zM277 1641l117 133l233 -279l-26 -37z" />
    <glyph glyph-name="Zacute" unicode="&#x179;" horiz-adv-x="1159" 
d="M1116 1452q-85 -127 -160.5 -239.5t-147 -218.5t-141.5 -209t-143.5 -208.5t-152 -218t-168.5 -237.5q32 23 61.5 43t60 35t64.5 23.5t76 8.5q48 0 96.5 -8.5t96.5 -18t96.5 -18t97.5 -8.5q34 0 66.5 11t62 29t54.5 41.5t46 49.5l35 -26l-198 -324q-135 23 -266.5 44.5
t-264.5 41.5q-26 5 -51 7.5t-51 2.5q-56 0 -106.5 -14.5t-96.5 -46.5l-31 33q214 304 416 599.5t405 598.5h-215q-38 0 -96.5 0.5t-121 -1.5t-119.5 -8.5t-93 -21.5q-19 -8 -39 -20t-38 -27t-34 -31.5t-28 -32.5l-37 27l201 324h530q39 0 78.5 -1t78.5 3t76 15t70 34z
M625 1498l-25 35l233 279l117 -131z" />
    <glyph glyph-name="Zdotaccent" unicode="&#x17b;" horiz-adv-x="1159" 
d="M1116 1452q-85 -127 -160.5 -239.5t-147 -218.5t-141.5 -209t-143.5 -208.5t-152 -218t-168.5 -237.5q32 23 61.5 43t60 35t64.5 23.5t76 8.5q48 0 96.5 -8.5t96.5 -18t96.5 -18t97.5 -8.5q34 0 66.5 11t62 29t54.5 41.5t46 49.5l35 -26l-198 -324q-135 23 -266.5 44.5
t-264.5 41.5q-26 5 -51 7.5t-51 2.5q-56 0 -106.5 -14.5t-96.5 -46.5l-31 33q214 304 416 599.5t405 598.5h-215q-38 0 -96.5 0.5t-121 -1.5t-119.5 -8.5t-93 -21.5q-19 -8 -39 -20t-38 -27t-34 -31.5t-28 -32.5l-37 27l201 324h530q39 0 78.5 -1t78.5 3t76 15t70 34z
M579 1684q19 0 36 -7.5t30 -20.5t20.5 -30.5t7.5 -36.5t-7.5 -36t-20.5 -30t-30 -20.5t-36 -7.5q-20 0 -37 7.5t-30 20.5t-20 30t-7 36t7 36.5t20 30.5t30 20.5t37 7.5z" />
    <glyph glyph-name="AEacute" unicode="&#x1fc;" horiz-adv-x="1976" 
d="M1163 688q34 26 71.5 47.5t72.5 38.5q-47 8 -83 33.5t-61 62.5v-182zM1948 393q-44 -81 -106.5 -154t-139 -129t-165 -89t-185.5 -33q-75 0 -146 25t-126.5 71t-89.5 110.5t-34 143.5v16v277q-14 -64 -32 -137.5t-44 -146t-61 -139.5t-82.5 -118.5t-108.5 -82t-139 -30.5
q-95 0 -170 36t-127.5 99t-80 149.5t-27.5 187.5q0 120 37.5 240.5t104.5 231.5t158 206t199 165t227.5 109t242.5 37h12v-45q-105 -5 -202 -45.5t-181.5 -106t-154.5 -151.5t-119.5 -183t-77 -200t-27.5 -203q0 -39 5 -83.5t17 -89t31 -85t47.5 -72t66.5 -50t87 -18.5
q59 0 107 36t87 97t69.5 142t53.5 171t38.5 183.5t25 179.5t14 159.5t4.5 123.5l207 76v-70q34 56 86.5 101.5t113 77.5t126 49.5t127.5 17.5q81 0 149.5 -32.5t120.5 -94.5l-145 -106q-21 29 -45.5 54.5t-53 44t-61.5 29.5t-70 11q-46 0 -90 -16.5t-79 -46t-56.5 -70.5
t-21.5 -90q0 -51 22 -94.5t58 -75.5t82.5 -50t95.5 -18q54 0 104 18l14 -41q-81 -26 -161.5 -66.5t-144 -97.5t-103 -132t-39.5 -170q0 -55 16 -102t46.5 -82t75 -55t100.5 -20q58 0 130 23.5t141 62.5t126 89t86 102zM1141 1492l-25 35l233 279l117 -131z" />
    <glyph glyph-name="Oslashacute" unicode="&#x1fe;" 
d="M1073 1049l-545 -854q59 -54 131.5 -85.5t163.5 -31.5q64 0 114.5 22.5t89.5 61t66 89.5t44.5 107t25.5 114.5t8 111.5q0 54 -6 112.5t-18 118.5t-30.5 119t-43.5 115zM432 315l559 867q-31 40 -67.5 72.5t-80 55.5t-93.5 35.5t-107 12.5q-65 0 -115.5 -22.5t-89.5 -61
t-66 -89t-44 -106.5t-25 -114t-8 -111q0 -64 8 -134t24.5 -140t42.5 -138t62 -127zM375 -49l-125 82l67 106q-55 54 -98 120.5t-72.5 141t-45 154t-15.5 160.5q0 92 20 183t59 173.5t95 154t128 123.5t158.5 81.5t186.5 29.5q105 0 195 -33t166 -90l90 142l112 -78
l-102 -162q45 -53 79 -114.5t57.5 -129t35.5 -138.5t12 -142q0 -92 -20 -183.5t-58.5 -174t-94 -153.5t-127.5 -123.5t-158.5 -82t-186.5 -29.5q-83 0 -157.5 21t-139.5 59zM710 1537l-25 35l233 279l117 -131z" />
    <glyph glyph-name="amacron" unicode="&#x101;" horiz-adv-x="895" 
d="M891 119q-12 -26 -30 -49t-41.5 -41t-51 -28.5t-57.5 -10.5q-79 0 -113.5 43.5t-34.5 118.5v18q-18 -34 -40.5 -68t-51 -61t-63.5 -44t-78 -17q-65 0 -115 25t-84 67.5t-51 99.5t-17 121q0 87 30.5 173.5t86 154.5t133 110.5t172.5 42.5q38 0 76 -7t72.5 -22.5t63 -40.5
t46.5 -61l-149 -63q-12 19 -27.5 36.5t-34 30.5t-39.5 21t-44 8q-52 0 -92.5 -32t-69 -79t-43.5 -100t-15 -96q0 -38 7.5 -85.5t26.5 -89.5t50 -71t78 -29q37 0 64 16.5t46 43t31.5 61t19 70.5t9 71.5t2.5 63.5v69l182 64v-406q0 -20 10 -36.5t31 -16.5q25 0 45.5 18.5
t32.5 37.5zM205 837l72 157h413l-69 -157h-416z" />
    <glyph glyph-name="abreve" unicode="&#x103;" horiz-adv-x="895" 
d="M891 119q-12 -26 -30 -49t-41.5 -41t-51 -28.5t-57.5 -10.5q-79 0 -113.5 43.5t-34.5 118.5v18q-18 -34 -40.5 -68t-51 -61t-63.5 -44t-78 -17q-65 0 -115 25t-84 67.5t-51 99.5t-17 121q0 87 30.5 173.5t86 154.5t133 110.5t172.5 42.5q38 0 76 -7t72.5 -22.5t63 -40.5
t46.5 -61l-149 -63q-12 19 -27.5 36.5t-34 30.5t-39.5 21t-44 8q-52 0 -92.5 -32t-69 -79t-43.5 -100t-15 -96q0 -38 7.5 -85.5t26.5 -89.5t50 -71t78 -29q37 0 64 16.5t46 43t31.5 61t19 70.5t9 71.5t2.5 63.5v69l182 64v-406q0 -20 10 -36.5t31 -16.5q25 0 45.5 18.5
t32.5 37.5zM314 1206l29 -22q-16 -22 -22.5 -48.5t-6.5 -52.5q0 -27 7.5 -59.5t23.5 -60.5t40 -47t56 -19q43 0 69.5 27.5t26.5 70.5q0 37 -18 73.5t-47 59.5l131 84q57 -63 57 -151q0 -51 -18 -92.5t-49.5 -71.5t-75 -46t-93.5 -16q-41 0 -76 13.5t-60.5 37.5t-39.5 58
t-14 76q0 24 6 50t16.5 50.5t25 47t32.5 38.5z" />
    <glyph glyph-name="aogonek" unicode="&#x105;" horiz-adv-x="895" 
d="M891 119q-22 -48 -65.5 -85t-98.5 -43q-17 -29 -20.5 -50.5t-0.5 -35.5q4 -17 13 -29q16 -16 34 -20q15 -4 35 1.5t41 32.5l23 -19q-20 -31 -39.5 -48.5t-34.5 -27.5q-18 -11 -34 -16q-22 -4 -48 2.5t-46.5 24.5t-28.5 48.5t6 74.5q3 8 9 19q10 20 33 46
q-57 11 -81.5 52.5t-24.5 105.5v18q-18 -34 -40.5 -68t-51 -61t-63.5 -44t-78 -17q-65 0 -115 25t-84 67.5t-51 99.5t-17 121q0 87 30.5 173.5t86 154.5t133 110.5t172.5 42.5q38 0 76 -7t72.5 -22.5t63 -40.5t46.5 -61l-149 -63q-12 19 -27.5 36.5t-34 30.5t-39.5 21t-44 8
q-52 0 -92.5 -32t-69 -79t-43.5 -100t-15 -96q0 -38 7.5 -85.5t26.5 -89.5t50 -71t78 -29q37 0 64 16.5t46 43t31.5 61t19 70.5t9 71.5t2.5 63.5v69l182 64v-406q0 -20 10 -36.5t31 -16.5q25 0 45.5 18.5t32.5 37.5z" />
    <glyph glyph-name="cacute" unicode="&#x107;" horiz-adv-x="805" 
d="M780 217q-35 -45 -76.5 -87.5t-90 -75.5t-102.5 -53.5t-112 -20.5q-74 0 -136 26t-107 74t-70 116t-25 152q0 88 35.5 167t95 138.5t138.5 94t166 34.5q34 0 68.5 -6.5t66 -20t58 -36t44.5 -53.5l-143 -78q-10 24 -28.5 42t-41.5 30t-48.5 18t-49.5 6q-48 0 -86 -21.5
t-64.5 -56t-40.5 -78t-14 -88.5q0 -86 21 -152t58 -111t87 -68t109 -23q34 0 70 17t69.5 42.5t64 54.5t54.5 52zM391 834l-25 35l233 279l117 -131z" />
    <glyph glyph-name="ccircumflex" unicode="&#x109;" horiz-adv-x="805" 
d="M780 217q-35 -45 -76.5 -87.5t-90 -75.5t-102.5 -53.5t-112 -20.5q-74 0 -136 26t-107 74t-70 116t-25 152q0 88 35.5 167t95 138.5t138.5 94t166 34.5q34 0 68.5 -6.5t66 -20t58 -36t44.5 -53.5l-143 -78q-10 24 -28.5 42t-41.5 30t-48.5 18t-49.5 6q-48 0 -86 -21.5
t-64.5 -56t-40.5 -78t-14 -88.5q0 -86 21 -152t58 -111t87 -68t109 -23q34 0 70 17t69.5 42.5t64 54.5t54.5 52zM171 858l-51 41l279 312l286 -271l-100 -106l-244 231z" />
    <glyph glyph-name="cdotaccent" unicode="&#x10b;" horiz-adv-x="805" 
d="M780 217q-35 -45 -76.5 -87.5t-90 -75.5t-102.5 -53.5t-112 -20.5q-74 0 -136 26t-107 74t-70 116t-25 152q0 88 35.5 167t95 138.5t138.5 94t166 34.5q34 0 68.5 -6.5t66 -20t58 -36t44.5 -53.5l-143 -78q-10 24 -28.5 42t-41.5 30t-48.5 18t-49.5 6q-48 0 -86 -21.5
t-64.5 -56t-40.5 -78t-14 -88.5q0 -86 21 -152t58 -111t87 -68t109 -23q34 0 70 17t69.5 42.5t64 54.5t54.5 52zM402 1023q19 0 36 -7.5t30 -20.5t20.5 -30.5t7.5 -36.5t-7.5 -36t-20.5 -30t-30 -20.5t-36 -7.5q-20 0 -37 7.5t-30 20.5t-20 30t-7 36t7 36.5t20 30.5t30 20.5
t37 7.5z" />
    <glyph glyph-name="ccaron" unicode="&#x10d;" horiz-adv-x="805" 
d="M780 217q-35 -45 -76.5 -87.5t-90 -75.5t-102.5 -53.5t-112 -20.5q-74 0 -136 26t-107 74t-70 116t-25 152q0 88 35.5 167t95 138.5t138.5 94t166 34.5q34 0 68.5 -6.5t66 -20t58 -36t44.5 -53.5l-143 -78q-10 24 -28.5 42t-41.5 30t-48.5 18t-49.5 6q-48 0 -86 -21.5
t-64.5 -56t-40.5 -78t-14 -88.5q0 -86 21 -152t58 -111t87 -68t109 -23q34 0 70 17t69.5 42.5t64 54.5t54.5 52zM685 1146l-276 -311l-289 270l102 107l244 -232l170 207z" />
    <glyph glyph-name="dcaron" unicode="&#x10f;" horiz-adv-x="1052" 
d="M897 119q-12 -26 -31 -49t-42 -41t-50.5 -28.5t-56.5 -10.5q-79 0 -114.5 43.5t-35.5 118.5v18q-17 -34 -39 -68t-50.5 -61t-64 -44t-79.5 -17q-67 0 -117.5 26.5t-84.5 71t-51.5 103.5t-17.5 124q0 84 26 169t76 154t123 112.5t167 43.5q58 0 112 -28v614l185 64v-1287
q0 -20 9.5 -36.5t31.5 -16.5q23 0 43 18.5t32 37.5zM567 420v213q-23 23 -51.5 38t-62.5 15q-59 0 -100 -32t-67 -80t-38 -103.5t-12 -103.5q0 -38 7.5 -85.5t26 -89t49 -70t76.5 -28.5q37 0 64.5 16.5t46.5 43t31 61t18.5 70.5t9 71.5t2.5 63.5zM1007 1355q0 -27 -9 -51.5
t-25 -45.5t-36.5 -38.5t-42.5 -30.5l-25 22q12 11 23.5 29.5t14.5 35.5q-27 8 -44 29.5t-17 49.5q0 34 23 58t57 24q33 0 57 -24t24 -58z" />
    <glyph glyph-name="dcroat" unicode="&#x111;" horiz-adv-x="911" 
d="M897 119q-12 -26 -31 -49t-42 -41t-50.5 -28.5t-56.5 -10.5q-79 0 -114.5 43.5t-35.5 118.5v18q-17 -34 -39 -68t-50.5 -61t-64 -44t-79.5 -17q-67 0 -117.5 26.5t-84.5 71t-51.5 103.5t-17.5 124q0 84 26 169t76 154t123 112.5t167 43.5q58 0 112 -28v160h-179l43 101
h136v353l185 64v-417h127l-41 -101h-86v-769q0 -20 9.5 -36.5t31.5 -16.5q23 0 43 18.5t32 37.5zM567 420v213q-23 23 -51.5 38t-62.5 15q-59 0 -100 -32t-67 -80t-38 -103.5t-12 -103.5q0 -38 7.5 -85.5t26 -89t49 -70t76.5 -28.5q37 0 64.5 16.5t46.5 43t31 61t18.5 70.5
t9 71.5t2.5 63.5z" />
    <glyph glyph-name="emacron" unicode="&#x113;" horiz-adv-x="813" 
d="M778 195q-35 -45 -76.5 -84t-90 -68t-102.5 -46t-112 -17q-74 0 -136 26.5t-107 73t-70 110t-25 136.5q0 60 17 118t48 109t73.5 94.5t93.5 74.5t108 48.5t117 17.5q42 0 79.5 -10t66.5 -31.5t46 -55t17 -79.5q0 -38 -22.5 -80t-59 -84t-82.5 -82.5t-93.5 -75
t-91.5 -60.5t-77 -40q37 -46 86 -75t104 -29q35 0 71 13.5t69.5 34.5t64 46t54.5 47zM537 575q0 23 -7.5 44t-21.5 36.5t-33.5 25t-44.5 9.5q-45 0 -83 -31.5t-65.5 -77.5t-43 -97.5t-15.5 -90.5q0 -38 12 -78t33 -77q40 22 87 61t87.5 85.5t67.5 96.5t27 94zM174 844
l72 157h413l-69 -157h-416z" />
    <glyph glyph-name="ebreve" unicode="&#x115;" horiz-adv-x="813" 
d="M778 195q-35 -45 -76.5 -84t-90 -68t-102.5 -46t-112 -17q-74 0 -136 26.5t-107 73t-70 110t-25 136.5q0 60 17 118t48 109t73.5 94.5t93.5 74.5t108 48.5t117 17.5q42 0 79.5 -10t66.5 -31.5t46 -55t17 -79.5q0 -38 -22.5 -80t-59 -84t-82.5 -82.5t-93.5 -75
t-91.5 -60.5t-77 -40q37 -46 86 -75t104 -29q35 0 71 13.5t69.5 34.5t64 46t54.5 47zM537 575q0 23 -7.5 44t-21.5 36.5t-33.5 25t-44.5 9.5q-45 0 -83 -31.5t-65.5 -77.5t-43 -97.5t-15.5 -90.5q0 -38 12 -78t33 -77q40 22 87 61t87.5 85.5t67.5 96.5t27 94zM293 1220
l29 -22q-16 -22 -22.5 -48.5t-6.5 -52.5q0 -27 7.5 -59.5t23.5 -60.5t40 -47t56 -19q43 0 69.5 27.5t26.5 70.5q0 37 -18 73.5t-47 59.5l131 84q57 -63 57 -151q0 -51 -18 -92.5t-49.5 -71.5t-75 -46t-93.5 -16q-41 0 -76 13.5t-60.5 37.5t-39.5 58t-14 76q0 24 6 50
t16.5 50.5t25 47t32.5 38.5z" />
    <glyph glyph-name="edotaccent" unicode="&#x117;" horiz-adv-x="813" 
d="M778 195q-35 -45 -76.5 -84t-90 -68t-102.5 -46t-112 -17q-74 0 -136 26.5t-107 73t-70 110t-25 136.5q0 60 17 118t48 109t73.5 94.5t93.5 74.5t108 48.5t117 17.5q42 0 79.5 -10t66.5 -31.5t46 -55t17 -79.5q0 -38 -22.5 -80t-59 -84t-82.5 -82.5t-93.5 -75
t-91.5 -60.5t-77 -40q37 -46 86 -75t104 -29q35 0 71 13.5t69.5 34.5t64 46t54.5 47zM537 575q0 23 -7.5 44t-21.5 36.5t-33.5 25t-44.5 9.5q-45 0 -83 -31.5t-65.5 -77.5t-43 -97.5t-15.5 -90.5q0 -38 12 -78t33 -77q40 22 87 61t87.5 85.5t67.5 96.5t27 94zM426 1032
q19 0 36 -7.5t30 -20.5t20.5 -30.5t7.5 -36.5t-7.5 -36t-20.5 -30t-30 -20.5t-36 -7.5q-20 0 -37 7.5t-30 20.5t-20 30t-7 36t7 36.5t20 30.5t30 20.5t37 7.5z" />
    <glyph glyph-name="eogonek" unicode="&#x119;" horiz-adv-x="813" 
d="M778 195q-32 -41 -70 -77.5t-82 -65t-92.5 -47t-101.5 -23.5q-29 -36 -37.5 -63.5t-6.5 -45.5q2 -22 14 -37q16 -16 34 -20q15 -4 35 1.5t41 32.5l23 -19q-20 -31 -39.5 -48.5t-34.5 -27.5q-18 -11 -34 -16q-22 -4 -48 2.5t-46.5 24.5t-28.5 48.5t6 74.5q4 13 14 28
q8 13 21.5 29.5t33.5 34.5q-70 3 -129 30.5t-101.5 74t-66 108t-23.5 132.5q0 60 17 118t48 109t73.5 94.5t93.5 74.5t108 48.5t117 17.5q42 0 79.5 -10t66.5 -31.5t46 -55t17 -79.5q0 -38 -22.5 -80t-59 -84t-82.5 -82.5t-93.5 -75t-91.5 -60.5t-77 -40q37 -46 86 -75
t104 -29q35 0 71 13.5t69.5 34.5t64 46t54.5 47zM537 575q0 23 -7.5 44t-21.5 36.5t-33.5 25t-44.5 9.5q-45 0 -83 -31.5t-65.5 -77.5t-43 -97.5t-15.5 -90.5q0 -38 12 -78t33 -77q40 22 87 61t87.5 85.5t67.5 96.5t27 94z" />
    <glyph glyph-name="ecaron" unicode="&#x11b;" horiz-adv-x="813" 
d="M778 195q-35 -45 -76.5 -84t-90 -68t-102.5 -46t-112 -17q-74 0 -136 26.5t-107 73t-70 110t-25 136.5q0 60 17 118t48 109t73.5 94.5t93.5 74.5t108 48.5t117 17.5q42 0 79.5 -10t66.5 -31.5t46 -55t17 -79.5q0 -38 -22.5 -80t-59 -84t-82.5 -82.5t-93.5 -75
t-91.5 -60.5t-77 -40q37 -46 86 -75t104 -29q35 0 71 13.5t69.5 34.5t64 46t54.5 47zM537 575q0 23 -7.5 44t-21.5 36.5t-33.5 25t-44.5 9.5q-45 0 -83 -31.5t-65.5 -77.5t-43 -97.5t-15.5 -90.5q0 -38 12 -78t33 -77q40 22 87 61t87.5 85.5t67.5 96.5t27 94zM689 1150
l-276 -311l-289 270l102 107l244 -232l170 207z" />
    <glyph glyph-name="gcircumflex" unicode="&#x11d;" horiz-adv-x="850" 
d="M743 74q0 -59 -16 -120.5t-45.5 -120.5t-70.5 -111.5t-91.5 -91.5t-109 -62t-121.5 -23q-40 0 -76.5 13t-65.5 41l132 125q21 -28 49 -45t63 -17q51 0 83 19.5t51 52t27 74t10 85.5t0.5 86t-1.5 76v115q-18 -34 -40.5 -68t-51 -61t-63.5 -44t-78 -17q-65 0 -115 25
t-84 67.5t-51 99.5t-17 121q0 58 14 117.5t39.5 114.5t63 103t84 83.5t102.5 56t119 20.5q38 0 76 -9t72.5 -27.5t63 -45.5t46.5 -63l-149 -63q-12 19 -27.5 38.5t-34 35.5t-40 26t-44.5 10q-34 0 -63.5 -16t-54 -42t-43.5 -59.5t-32 -69.5t-19.5 -71t-6.5 -63
q0 -38 7.5 -85.5t26.5 -89.5t50 -71t78 -29q37 0 64 16.5t46 43t31.5 61t19 70.5t9 71.5t2.5 63.5v69l182 64v-479zM193 858l-51 41l279 312l286 -271l-100 -106l-244 231z" />
    <glyph glyph-name="gbreve" unicode="&#x11f;" horiz-adv-x="850" 
d="M743 74q0 -59 -16 -120.5t-45.5 -120.5t-70.5 -111.5t-91.5 -91.5t-109 -62t-121.5 -23q-40 0 -76.5 13t-65.5 41l132 125q21 -28 49 -45t63 -17q51 0 83 19.5t51 52t27 74t10 85.5t0.5 86t-1.5 76v115q-18 -34 -40.5 -68t-51 -61t-63.5 -44t-78 -17q-65 0 -115 25
t-84 67.5t-51 99.5t-17 121q0 58 14 117.5t39.5 114.5t63 103t84 83.5t102.5 56t119 20.5q38 0 76 -9t72.5 -27.5t63 -45.5t46.5 -63l-149 -63q-12 19 -27.5 38.5t-34 35.5t-40 26t-44.5 10q-34 0 -63.5 -16t-54 -42t-43.5 -59.5t-32 -69.5t-19.5 -71t-6.5 -63
q0 -38 7.5 -85.5t26.5 -89.5t50 -71t78 -29q37 0 64 16.5t46 43t31.5 61t19 70.5t9 71.5t2.5 63.5v69l182 64v-479zM292 1204l29 -22q-16 -22 -22.5 -48.5t-6.5 -52.5q0 -27 7.5 -59.5t23.5 -60.5t40 -47t56 -19q43 0 69.5 27.5t26.5 70.5q0 37 -18 73.5t-47 59.5l131 84
q57 -63 57 -151q0 -51 -18 -92.5t-49.5 -71.5t-75 -46t-93.5 -16q-41 0 -76 13.5t-60.5 37.5t-39.5 58t-14 76q0 24 6 50t16.5 50.5t25 47t32.5 38.5z" />
    <glyph glyph-name="gdotaccent" unicode="&#x121;" horiz-adv-x="850" 
d="M743 74q0 -59 -16 -120.5t-45.5 -120.5t-70.5 -111.5t-91.5 -91.5t-109 -62t-121.5 -23q-40 0 -76.5 13t-65.5 41l132 125q21 -28 49 -45t63 -17q51 0 83 19.5t51 52t27 74t10 85.5t0.5 86t-1.5 76v115q-18 -34 -40.5 -68t-51 -61t-63.5 -44t-78 -17q-65 0 -115 25
t-84 67.5t-51 99.5t-17 121q0 58 14 117.5t39.5 114.5t63 103t84 83.5t102.5 56t119 20.5q38 0 76 -9t72.5 -27.5t63 -45.5t46.5 -63l-149 -63q-12 19 -27.5 38.5t-34 35.5t-40 26t-44.5 10q-34 0 -63.5 -16t-54 -42t-43.5 -59.5t-32 -69.5t-19.5 -71t-6.5 -63
q0 -38 7.5 -85.5t26.5 -89.5t50 -71t78 -29q37 0 64 16.5t46 43t31.5 61t19 70.5t9 71.5t2.5 63.5v69l182 64v-479zM425 1030q19 0 36 -7.5t30 -20.5t20.5 -30.5t7.5 -36.5t-7.5 -36t-20.5 -30t-30 -20.5t-36 -7.5q-20 0 -37 7.5t-30 20.5t-20 30t-7 36t7 36.5t20 30.5
t30 20.5t37 7.5z" />
    <glyph glyph-name="gcommaaccent" unicode="&#x123;" horiz-adv-x="850" 
d="M743 74q0 -59 -16 -120.5t-45.5 -120.5t-70.5 -111.5t-91.5 -91.5t-109 -62t-121.5 -23q-40 0 -76.5 13t-65.5 41l132 125q21 -28 49 -45t63 -17q51 0 83 19.5t51 52t27 74t10 85.5t0.5 86t-1.5 76v115q-18 -34 -40.5 -68t-51 -61t-63.5 -44t-78 -17q-65 0 -115 25
t-84 67.5t-51 99.5t-17 121q0 58 14 117.5t39.5 114.5t63 103t84 83.5t102.5 56t119 20.5q38 0 76 -9t72.5 -27.5t63 -45.5t46.5 -63l-149 -63q-12 19 -27.5 38.5t-34 35.5t-40 26t-44.5 10q-34 0 -63.5 -16t-54 -42t-43.5 -59.5t-32 -69.5t-19.5 -71t-6.5 -63
q0 -38 7.5 -85.5t26.5 -89.5t50 -71t78 -29q37 0 64 16.5t46 43t31.5 61t19 70.5t9 71.5t2.5 63.5v69l182 64v-479zM505 913q0 -33 -24 -56.5t-57 -23.5q-34 0 -57 23.5t-23 56.5q0 28 9 52.5t25 45.5t36 38.5t43 31.5l25 -23q-12 -12 -23.5 -30t-14.5 -36q27 -7 44 -29
t17 -50z" />
    <glyph glyph-name="hcircumflex" unicode="&#x125;" horiz-adv-x="883" 
d="M870 117q-11 -26 -29.5 -49t-42 -41t-51 -28.5t-57.5 -10.5q-78 0 -113.5 43.5t-35.5 118.5v407q0 8 -1 17.5t-4.5 18t-9.5 14t-16 5.5q-26 0 -49 -21.5t-42 -58t-35.5 -83.5t-29.5 -98t-22.5 -102t-16.5 -96t-10.5 -79t-3.5 -51l-184 -64v1411l184 64v-1082
q6 36 19 82.5t32 94.5t44.5 95t57.5 83t70.5 58.5t83.5 22.5q46 0 70 -20.5t34.5 -52t11.5 -69.5t1 -73v-428q0 -20 9.5 -36.5t31.5 -16.5q25 0 45 18.5t33 36.5zM210 1474l-51 41l279 312l286 -271l-100 -106l-244 231z" />
    <glyph glyph-name="hbar" unicode="&#x127;" horiz-adv-x="883" 
d="M870 117q-11 -26 -29.5 -49t-42 -41t-51 -28.5t-57.5 -10.5q-78 0 -113.5 43.5t-35.5 118.5v407q0 8 -1 17.5t-4.5 18t-9.5 14t-16 5.5q-26 0 -49 -21.5t-42 -58t-35.5 -83.5t-29.5 -98t-22.5 -102t-16.5 -96t-10.5 -79t-3.5 -51l-184 -64v957h-129l43 101h86v353l184 64
v-417h178l-41 -101h-137v-564q6 36 19 82.5t32 94.5t44.5 95t57.5 83t70.5 58.5t83.5 22.5q46 0 70 -20.5t34.5 -52t11.5 -69.5t1 -73v-428q0 -20 9.5 -36.5t31.5 -16.5q25 0 45 18.5t33 36.5z" />
    <glyph glyph-name="itilde" unicode="&#x129;" horiz-adv-x="465" 
d="M449 117q-23 -49 -53.5 -75t-58.5 -38q-33 -14 -67 -16q-44 0 -73 14t-46 37t-23.5 52t-6.5 59v561l184 63v-629q0 -24 11 -38t28.5 -14.5t38 12.5t39.5 42zM87 860l-39 -20q-21 23 -30 46t-12 43q-4 23 -1 44q9 54 38 89t91 38q31 1 56 -10.5t45.5 -28t37 -34
t31.5 -27.5q15 -11 31.5 -10t28 13.5t15 36.5t-8.5 60l38 16q24 -32 31 -63.5t6 -56.5q-1 -30 -10 -56q-14 -35 -35 -56t-46 -29.5t-51.5 -4.5t-51.5 21q-26 18 -47 39t-39.5 37t-35 23.5t-34.5 -1.5q-15 -10 -22 -25q-6 -13 -5.5 -33.5t19.5 -50.5z" />
    <glyph glyph-name="imacron" unicode="&#x12b;" horiz-adv-x="465" 
d="M449 117q-23 -49 -53.5 -75t-58.5 -38q-33 -14 -67 -16q-44 0 -73 14t-46 37t-23.5 52t-6.5 59v561l184 63v-629q0 -24 11 -38t28.5 -14.5t38 12.5t39.5 42zM-9 839l72 157h413l-69 -157h-416z" />
    <glyph glyph-name="ibreve" unicode="&#x12d;" horiz-adv-x="465" 
d="M449 117q-23 -49 -53.5 -75t-58.5 -38q-33 -14 -67 -16q-44 0 -73 14t-46 37t-23.5 52t-6.5 59v561l184 63v-629q0 -24 11 -38t28.5 -14.5t38 12.5t39.5 42zM99 1208l29 -22q-16 -22 -22.5 -48.5t-6.5 -52.5q0 -27 7.5 -59.5t23.5 -60.5t40 -47t56 -19q43 0 69.5 27.5
t26.5 70.5q0 37 -18 73.5t-47 59.5l131 84q57 -63 57 -151q0 -51 -18 -92.5t-49.5 -71.5t-75 -46t-93.5 -16q-41 0 -76 13.5t-60.5 37.5t-39.5 58t-14 76q0 24 6 50t16.5 50.5t25 47t32.5 38.5z" />
    <glyph glyph-name="iogonek" unicode="&#x12f;" horiz-adv-x="465" 
d="M311 1305l-53 -365l-98 -31l-60 324zM449 117q-23 -49 -53.5 -75t-58.5 -38q-33 -14 -67 -16q-44 0 -73 14t-46 37t-23.5 52t-6.5 59v561l184 63v-629q0 -24 11 -38t28.5 -14.5t38 12.5t39.5 42zM235 18l16 -18q-38 -41 -50 -72t-11 -51q1 -25 15 -41q16 -16 34 -20
q15 -4 35 1.5t41 32.5l23 -19q-20 -31 -39.5 -48.5t-34.5 -27.5q-18 -11 -34 -16q-22 -4 -48 2.5t-46.5 24.5t-28.5 48.5t6 74.5q9 21 25 43q14 19 37 42t60 44z" />
    <glyph glyph-name="ij" unicode="&#x133;" horiz-adv-x="895" 
d="M311 1305l-53 -365l-98 -31l-60 324zM449 117q-23 -49 -53.5 -75t-58.5 -38q-33 -14 -67 -16q-44 0 -73 14t-46 37t-23.5 52t-6.5 59v561l184 63v-629q0 -24 11 -38t28.5 -14.5t38 12.5t39.5 42zM784 1305l-55 -365l-96 -31l-59 324zM776 82q0 -70 -16.5 -132t-45 -116
t-67.5 -100.5t-84 -83.5q-65 -50 -134 -77q-29 -12 -62 -19.5t-66.5 -7.5t-68 10t-66.5 34l113 142q52 -42 97.5 -51.5t79.5 -4.5q40 6 72 27q28 21 42 62.5t18.5 92.5t4 105.5t-0.5 102.5v645l184 63v-692z" />
    <glyph glyph-name="jcircumflex" unicode="&#x135;" horiz-adv-x="430" 
d="M311 82q0 -70 -16.5 -132t-45 -116t-67.5 -100.5t-84 -83.5q-65 -50 -134 -77q-29 -12 -62 -19.5t-66.5 -7.5t-68 10t-66.5 34l113 142q52 -42 97.5 -51.5t79.5 -4.5q40 6 72 27q28 21 42 62.5t18.5 92.5t4 105.5t-0.5 102.5v645l184 63v-692zM-15 858l-51 41l279 312
l286 -271l-100 -106l-244 231z" />
    <glyph glyph-name="kcommaaccent" unicode="&#x137;" horiz-adv-x="868" 
d="M846 111q-15 -26 -37 -49.5t-48.5 -40.5t-56.5 -27t-61 -10q-39 0 -81 29t-82 69.5t-76 83t-64 70.5l-16 -9q-5 -18 -9 -45t-7 -56t-4.5 -56.5t-2.5 -46.5l-184 -64v1411l184 64v-1110q11 37 27 85.5t37.5 100t49.5 101.5t62 89.5t75 63.5t89 24q29 0 52.5 -10.5
t40 -28.5t25.5 -42t9 -52q0 -57 -28 -109t-70.5 -97t-92 -81t-92.5 -61q14 -12 32 -32.5t37.5 -43.5t41 -47t42.5 -43t42.5 -31t40.5 -12q29 0 53 13t41 34zM578 582q0 17 -15 32t-31 15q-20 0 -40.5 -20t-39.5 -51t-36.5 -69t-31.5 -74t-24.5 -66.5t-15.5 -45.5
q14 10 36.5 30t48.5 45.5t52.5 54t48 56t35 52t13.5 41.5zM515 -167q0 -27 -9 -51.5t-25 -45.5t-36.5 -38.5t-42.5 -30.5l-26 21q13 12 24 30.5t15 35.5q-27 8 -44.5 29.5t-17.5 49.5q0 33 23.5 57.5t56.5 24.5q34 0 58 -24.5t24 -57.5z" />
    <glyph glyph-name="kgreenlandic" unicode="&#x138;" horiz-adv-x="868" 
d="M846 111q-15 -26 -37 -49.5t-48.5 -40.5t-56.5 -27t-61 -10q-39 0 -81 29t-82 69.5t-76 83t-64 70.5l-16 -9q-5 -18 -9 -45t-7 -56t-4.5 -56.5t-2.5 -46.5l-184 -64v785l184 64v-484q11 37 27 85.5t37.5 100t49.5 101.5t62 89.5t75 63.5t89 24q29 0 52.5 -10.5t40 -28.5
t25.5 -42t9 -52q0 -57 -28 -109t-70.5 -97t-92 -81t-92.5 -61q14 -12 32 -32.5t37.5 -43.5t41 -47t42.5 -43t42.5 -31t40.5 -12q29 0 53 13t41 34zM578 582q0 17 -15 32t-31 15q-20 0 -40.5 -20t-39.5 -51t-36.5 -69t-31.5 -74t-24.5 -66.5t-15.5 -45.5q14 10 36.5 30
t48.5 45.5t52.5 54t48 56t35 52t13.5 41.5z" />
    <glyph glyph-name="lacute" unicode="&#x13a;" horiz-adv-x="469" 
d="M453 117q-12 -26 -30.5 -49t-41.5 -41t-50.5 -28.5t-56.5 -10.5q-78 0 -113.5 43.5t-35.5 118.5v1220l184 64v-1289q0 -20 9 -36.5t32 -16.5t43.5 18.5t32.5 36.5zM213 1461l-25 35l233 279l117 -131z" />
    <glyph glyph-name="lcommaaccent" unicode="&#x13c;" horiz-adv-x="469" 
d="M453 117q-12 -26 -30.5 -49t-41.5 -41t-50.5 -28.5t-56.5 -10.5q-78 0 -113.5 43.5t-35.5 118.5v1220l184 64v-1289q0 -20 9 -36.5t32 -16.5t43.5 18.5t32.5 36.5zM315 -167q0 -27 -9 -51.5t-25 -45.5t-36.5 -38.5t-42.5 -30.5l-26 21q13 12 24 30.5t15 35.5
q-27 8 -44.5 29.5t-17.5 49.5q0 33 23.5 57.5t56.5 24.5q34 0 58 -24.5t24 -57.5z" />
    <glyph glyph-name="ldotaccent" unicode="&#x140;" horiz-adv-x="791" 
d="M453 117q-12 -26 -30.5 -49t-41.5 -41t-50.5 -28.5t-56.5 -10.5q-78 0 -113.5 43.5t-35.5 118.5v1220l184 64v-1289q0 -20 9 -36.5t32 -16.5t43.5 18.5t32.5 36.5zM693 731q0 -24 -9.5 -44.5t-25.5 -36.5t-37 -25t-45 -9t-44.5 9t-36.5 25t-25 36.5t-9 44.5t9 45.5t25 37
t36.5 25t44.5 9.5t45 -9.5t37 -25t25.5 -37t9.5 -45.5z" />
    <glyph glyph-name="lcaron" unicode="&#x13e;" horiz-adv-x="600" 
d="M453 117q-12 -26 -30.5 -49t-41.5 -41t-50.5 -28.5t-56.5 -10.5q-78 0 -113.5 43.5t-35.5 118.5v1220l184 64v-1289q0 -20 9 -36.5t32 -16.5t43.5 18.5t32.5 36.5zM555 1355q0 -27 -9 -51.5t-25 -45.5t-36.5 -38.5t-42.5 -30.5l-25 22q12 11 23.5 29.5t14.5 35.5
q-27 8 -44 29.5t-17 49.5q0 34 23 58t57 24q33 0 57 -24t24 -58z" />
    <glyph glyph-name="nacute" unicode="&#x144;" horiz-adv-x="946" 
d="M934 117q-12 -26 -31 -49t-42.5 -41t-50.5 -28.5t-56 -10.5q-79 0 -114.5 43.5t-35.5 118.5v407q0 7 -0.5 16.5t-3.5 18t-8 14.5t-14 6q-28 0 -56.5 -34t-55 -88t-49 -121t-39.5 -132.5t-26.5 -122.5t-9.5 -91l-182 -64v672q0 20 -10 36.5t-31 16.5q-25 0 -45.5 -18.5
t-32.5 -36.5l-27 30q12 25 30.5 48.5t42 41.5t51 28.5t57.5 10.5q78 0 112.5 -43.5t34.5 -117.5v-326q9 41 24.5 93.5t37.5 106.5t49.5 105.5t60.5 92t72 65t84 24.5q47 0 71 -20.5t34.5 -52t11.5 -69.5t1 -73v-428q0 -20 10 -36.5t31 -16.5q23 0 43.5 18.5t32.5 36.5z
M521 836l-25 35l233 279l117 -131z" />
    <glyph glyph-name="ncommaaccent" unicode="&#x146;" horiz-adv-x="946" 
d="M934 117q-12 -26 -31 -49t-42.5 -41t-50.5 -28.5t-56 -10.5q-79 0 -114.5 43.5t-35.5 118.5v407q0 7 -0.5 16.5t-3.5 18t-8 14.5t-14 6q-28 0 -56.5 -34t-55 -88t-49 -121t-39.5 -132.5t-26.5 -122.5t-9.5 -91l-182 -64v672q0 20 -10 36.5t-31 16.5q-25 0 -45.5 -18.5
t-32.5 -36.5l-27 30q12 25 30.5 48.5t42 41.5t51 28.5t57.5 10.5q78 0 112.5 -43.5t34.5 -117.5v-326q9 41 24.5 93.5t37.5 106.5t49.5 105.5t60.5 92t72 65t84 24.5q47 0 71 -20.5t34.5 -52t11.5 -69.5t1 -73v-428q0 -20 10 -36.5t31 -16.5q23 0 43.5 18.5t32.5 36.5z
M554 -167q0 -27 -9 -51.5t-25 -45.5t-36.5 -38.5t-42.5 -30.5l-26 21q13 12 24 30.5t15 35.5q-27 8 -44.5 29.5t-17.5 49.5q0 33 23.5 57.5t56.5 24.5q34 0 58 -24.5t24 -57.5z" />
    <glyph glyph-name="ncaron" unicode="&#x148;" horiz-adv-x="946" 
d="M934 117q-12 -26 -31 -49t-42.5 -41t-50.5 -28.5t-56 -10.5q-79 0 -114.5 43.5t-35.5 118.5v407q0 7 -0.5 16.5t-3.5 18t-8 14.5t-14 6q-28 0 -56.5 -34t-55 -88t-49 -121t-39.5 -132.5t-26.5 -122.5t-9.5 -91l-182 -64v672q0 20 -10 36.5t-31 16.5q-25 0 -45.5 -18.5
t-32.5 -36.5l-27 30q12 25 30.5 48.5t42 41.5t51 28.5t57.5 10.5q78 0 112.5 -43.5t34.5 -117.5v-326q9 41 24.5 93.5t37.5 106.5t49.5 105.5t60.5 92t72 65t84 24.5q47 0 71 -20.5t34.5 -52t11.5 -69.5t1 -73v-428q0 -20 10 -36.5t31 -16.5q23 0 43.5 18.5t32.5 36.5z
M755 1148l-276 -311l-289 270l102 107l244 -232l170 207z" />
    <glyph glyph-name="napostrophe" unicode="&#x149;" horiz-adv-x="1137" 
d="M216 1086q0 -27 -9 -51.5t-25 -45.5t-36.5 -38.5t-42.5 -30.5l-25 22q12 11 23.5 29.5t14.5 35.5q-27 8 -44 29.5t-17 49.5q0 34 23 58t57 24q33 0 57 -24t24 -58zM1125 117q-12 -26 -31 -49t-42.5 -41t-50.5 -28.5t-56 -10.5q-79 0 -114.5 43.5t-35.5 118.5v407
q0 7 -0.5 16.5t-3.5 18t-8 14.5t-14 6q-28 0 -56.5 -34t-55 -88t-49 -121t-39.5 -132.5t-26.5 -122.5t-9.5 -91l-182 -64v672q0 20 -10 36.5t-31 16.5q-25 0 -45.5 -18.5t-32.5 -36.5l-27 30q12 25 30.5 48.5t42 41.5t51 28.5t57.5 10.5q78 0 112.5 -43.5t34.5 -117.5v-326
q9 41 24.5 93.5t37.5 106.5t49.5 105.5t60.5 92t72 65t84 24.5q47 0 71 -20.5t34.5 -52t11.5 -69.5t1 -73v-428q0 -20 10 -36.5t31 -16.5q23 0 43.5 18.5t32.5 36.5z" />
    <glyph glyph-name="eng" unicode="&#x14b;" horiz-adv-x="908" 
d="M787 82q0 -70 -16.5 -132t-45 -116t-67.5 -100.5t-84 -83.5q-65 -50 -134 -77q-29 -12 -62 -19.5t-66.5 -7.5t-68 10t-66.5 34l113 142q52 -42 97.5 -51.5t79.5 -4.5q40 6 72 27q28 21 42 62.5t18.5 92.5t4 105.5t-0.5 102.5l1 491q0 7 -0.5 16.5t-3.5 18t-8 14.5t-14 6
q-28 0 -56.5 -34t-55 -88t-49 -121t-39.5 -132.5t-26.5 -122.5t-9.5 -91l-182 -64v672q0 20 -10 36.5t-31 16.5q-25 0 -45.5 -18.5t-32.5 -36.5l-27 30q12 25 30.5 48.5t42 41.5t51 28.5t57.5 10.5q78 0 112.5 -43.5t34.5 -117.5v-326q9 41 24.5 93.5t37.5 106.5t49.5 105.5
t60.5 92t72 65t84 24.5q47 0 71 -20.5t34.5 -52t11.5 -69.5t1 -73z" />
    <glyph glyph-name="omacron" unicode="&#x14d;" horiz-adv-x="856" 
d="M412 -23q-74 0 -138.5 26.5t-112 73.5t-75 110.5t-27.5 138.5q0 85 28 159.5t77.5 134.5t117 104t146.5 69l29 -35q-45 -33 -84 -75.5t-68 -92t-46 -104t-17 -111.5q0 -48 14 -101t42 -97t70.5 -72.5t98.5 -28.5q50 0 86.5 18t60.5 49t36 72.5t12 87.5q0 54 -21 110.5
t-57.5 104.5t-85.5 80t-105 37q35 40 77 74t85 65q58 -19 102.5 -56t75 -85t46.5 -104.5t16 -114.5q0 -79 -27.5 -157t-78 -140.5t-121 -101t-156.5 -38.5zM185 844l72 157h413l-69 -157h-416z" />
    <glyph glyph-name="obreve" unicode="&#x14f;" horiz-adv-x="856" 
d="M412 -23q-74 0 -138.5 26.5t-112 73.5t-75 110.5t-27.5 138.5q0 85 28 159.5t77.5 134.5t117 104t146.5 69l29 -35q-45 -33 -84 -75.5t-68 -92t-46 -104t-17 -111.5q0 -48 14 -101t42 -97t70.5 -72.5t98.5 -28.5q50 0 86.5 18t60.5 49t36 72.5t12 87.5q0 54 -21 110.5
t-57.5 104.5t-85.5 80t-105 37q35 40 77 74t85 65q58 -19 102.5 -56t75 -85t46.5 -104.5t16 -114.5q0 -79 -27.5 -157t-78 -140.5t-121 -101t-156.5 -38.5zM295 1218l29 -22q-16 -22 -22.5 -48.5t-6.5 -52.5q0 -27 7.5 -59.5t23.5 -60.5t40 -47t56 -19q43 0 69.5 27.5
t26.5 70.5q0 37 -18 73.5t-47 59.5l131 84q57 -63 57 -151q0 -51 -18 -92.5t-49.5 -71.5t-75 -46t-93.5 -16q-41 0 -76 13.5t-60.5 37.5t-39.5 58t-14 76q0 24 6 50t16.5 50.5t25 47t32.5 38.5z" />
    <glyph glyph-name="ohungarumlaut" unicode="&#x151;" horiz-adv-x="856" 
d="M412 -23q-74 0 -138.5 26.5t-112 73.5t-75 110.5t-27.5 138.5q0 85 28 159.5t77.5 134.5t117 104t146.5 69l29 -35q-45 -33 -84 -75.5t-68 -92t-46 -104t-17 -111.5q0 -48 14 -101t42 -97t70.5 -72.5t98.5 -28.5q50 0 86.5 18t60.5 49t36 72.5t12 87.5q0 54 -21 110.5
t-57.5 104.5t-85.5 80t-105 37q35 40 77 74t85 65q58 -19 102.5 -56t75 -85t46.5 -104.5t16 -114.5q0 -79 -27.5 -157t-78 -140.5t-121 -101t-156.5 -38.5zM278 842l-25 35l233 279l117 -131zM544 842l-25 35l234 279l116 -131z" />
    <glyph glyph-name="racute" unicode="&#x155;" horiz-adv-x="686" 
d="M651 109q-18 -28 -44 -50.5t-57 -38.5t-65 -25t-67 -9q-44 0 -75.5 16.5t-51.5 43.5t-29.5 63t-9.5 75q0 51 15.5 109.5t42 115.5t60.5 106t72 81q-35 -23 -76.5 -36t-84.5 -13q-31 0 -54 5t-51 19l-104 -217l-43 17l108 221q-17 12 -36.5 30.5t-28.5 36.5l139 156
q9 -27 25 -54.5t37.5 -49t48 -35.5t57.5 -14q53 0 103 19.5t93 47.5l27 -27q-38 -35 -76.5 -77.5t-69.5 -90.5t-50 -101t-19 -107q0 -31 8.5 -69.5t26.5 -73t45 -58t65 -23.5q26 0 50.5 9.5t44.5 23.5zM389 816l-25 35l233 279l117 -131z" />
    <glyph glyph-name="rcommaaccent" unicode="&#x157;" horiz-adv-x="686" 
d="M651 109q-18 -28 -44 -50.5t-57 -38.5t-65 -25t-67 -9q-44 0 -75.5 16.5t-51.5 43.5t-29.5 63t-9.5 75q0 51 15.5 109.5t42 115.5t60.5 106t72 81q-35 -23 -76.5 -36t-84.5 -13q-31 0 -54 5t-51 19l-104 -217l-43 17l108 221q-17 12 -36.5 30.5t-28.5 36.5l139 156
q9 -27 25 -54.5t37.5 -49t48 -35.5t57.5 -14q53 0 103 19.5t93 47.5l27 -27q-38 -35 -76.5 -77.5t-69.5 -90.5t-50 -101t-19 -107q0 -31 8.5 -69.5t26.5 -73t45 -58t65 -23.5q26 0 50.5 9.5t44.5 23.5zM376 -167q0 -27 -9 -51.5t-25 -45.5t-36.5 -38.5t-42.5 -30.5l-26 21
q13 12 24 30.5t15 35.5q-27 8 -44.5 29.5t-17.5 49.5q0 33 23.5 57.5t56.5 24.5q34 0 58 -24.5t24 -57.5z" />
    <glyph glyph-name="rcaron" unicode="&#x159;" horiz-adv-x="686" 
d="M651 109q-18 -28 -44 -50.5t-57 -38.5t-65 -25t-67 -9q-44 0 -75.5 16.5t-51.5 43.5t-29.5 63t-9.5 75q0 51 15.5 109.5t42 115.5t60.5 106t72 81q-35 -23 -76.5 -36t-84.5 -13q-31 0 -54 5t-51 19l-104 -217l-43 17l108 221q-17 12 -36.5 30.5t-28.5 36.5l139 156
q9 -27 25 -54.5t37.5 -49t48 -35.5t57.5 -14q53 0 103 19.5t93 47.5l27 -27q-38 -35 -76.5 -77.5t-69.5 -90.5t-50 -101t-19 -107q0 -31 8.5 -69.5t26.5 -73t45 -58t65 -23.5q26 0 50.5 9.5t44.5 23.5zM625 1141l-276 -311l-289 270l102 107l244 -232l170 207z" />
    <glyph glyph-name="sacute" unicode="&#x15b;" horiz-adv-x="602" 
d="M549 276q0 -62 -23 -116t-62.5 -94t-94 -63t-117.5 -23q-27 0 -58.5 5t-62.5 15t-58.5 25t-45.5 36l118 154q12 -19 29.5 -41.5t39 -41.5t46 -31.5t49.5 -12.5q29 0 54.5 10t44.5 28.5t30 43.5t11 55q0 40 -27.5 73.5t-65 65t-78 65t-65.5 73.5l-104 -152l-39 29l120 166
q-14 29 -22 61t-8 64q0 27 9 57t26 55t41.5 41.5t56.5 16.5q31 0 52.5 -19t21.5 -53q0 -18 -6 -36t-15 -36t-20 -34.5t-21 -30.5q24 -34 52 -59t55 -47t52 -44t43.5 -50t30 -65t11.5 -90zM322 750q0 14 -9.5 21t-21.5 7q-17 0 -24 -11.5t-7 -25.5q0 -20 6.5 -39t16.5 -36
q4 7 10.5 18t13 23.5t11 24t4.5 18.5zM297 907l-25 35l233 279l117 -131z" />
    <glyph glyph-name="scircumflex" unicode="&#x15d;" horiz-adv-x="602" 
d="M549 276q0 -62 -23 -116t-62.5 -94t-94 -63t-117.5 -23q-27 0 -58.5 5t-62.5 15t-58.5 25t-45.5 36l118 154q12 -19 29.5 -41.5t39 -41.5t46 -31.5t49.5 -12.5q29 0 54.5 10t44.5 28.5t30 43.5t11 55q0 40 -27.5 73.5t-65 65t-78 65t-65.5 73.5l-104 -152l-39 29l120 166
q-14 29 -22 61t-8 64q0 27 9 57t26 55t41.5 41.5t56.5 16.5q31 0 52.5 -19t21.5 -53q0 -18 -6 -36t-15 -36t-20 -34.5t-21 -30.5q24 -34 52 -59t55 -47t52 -44t43.5 -50t30 -65t11.5 -90zM322 750q0 14 -9.5 21t-21.5 7q-17 0 -24 -11.5t-7 -25.5q0 -20 6.5 -39t16.5 -36
q4 7 10.5 18t13 23.5t11 24t4.5 18.5zM69 883l-51 41l279 312l286 -271l-100 -106l-244 231z" />
    <glyph glyph-name="scedilla" unicode="&#x15f;" horiz-adv-x="602" 
d="M549 276q0 -56 -19 -106t-53 -89t-80 -65t-101 -33l-33 -55q14 8 28.5 13t26.5 7q14 3 28 3q18 0 35.5 -7t31.5 -20.5t22.5 -35t8.5 -49.5t-11.5 -49.5t-29 -36.5t-39 -22.5t-41.5 -7.5q-21 1 -39 8q-16 6 -33.5 19.5t-29.5 39.5l23 16q7 -12 15.5 -18t16.5 -9
q9 -4 17 -4q23 0 40.5 18t17.5 46q0 26 -17 45t-46 19q-10 0 -19 -2q-8 -2 -15.5 -4.5t-9.5 -7.5l-23 19l42 72h-11q-27 0 -58.5 5t-62.5 15t-58.5 25t-45.5 36l118 154q12 -19 29.5 -41.5t39 -41.5t46 -31.5t49.5 -12.5q29 0 54.5 10t44.5 28.5t30 43.5t11 55
q0 40 -27.5 73.5t-65 65t-78 65t-65.5 73.5l-104 -152l-39 29l120 166q-14 29 -22 61t-8 64q0 27 9 57t26 55t41.5 41.5t56.5 16.5q31 0 52.5 -19t21.5 -53q0 -18 -6 -36t-15 -36t-20 -34.5t-21 -30.5q24 -34 52 -59t55 -47t52 -44t43.5 -50t30 -65t11.5 -90zM322 750
q0 14 -9.5 21t-21.5 7q-17 0 -24 -11.5t-7 -25.5q0 -20 6.5 -39t16.5 -36q4 7 10.5 18t13 23.5t11 24t4.5 18.5z" />
    <glyph glyph-name="tcommaaccent" unicode="&#x163;" horiz-adv-x="537" 
d="M471 117q-23 -49 -53 -75t-59 -38q-33 -14 -68 -16q-45 0 -73.5 14t-45 37t-23 52t-6.5 59v524h-106l43 100h63v354l183 64v-418h190l-41 -100h-149v-529q0 -24 11 -38t28 -14.5t38 12.5t41 42zM327 -167q0 -27 -9 -51.5t-25 -45.5t-36.5 -38.5t-42.5 -30.5l-26 21
q13 12 24 30.5t15 35.5q-27 8 -44.5 29.5t-17.5 49.5q0 33 23.5 57.5t56.5 24.5q34 0 58 -24.5t24 -57.5z" />
    <glyph glyph-name="tcaron" unicode="&#x165;" horiz-adv-x="708" 
d="M471 117q-23 -49 -53 -75t-59 -38q-33 -14 -68 -16q-45 0 -73.5 14t-45 37t-23 52t-6.5 59v524h-106l43 100h63v354l183 64v-418h190l-41 -100h-149v-529q0 -24 11 -38t28 -14.5t38 12.5t41 42zM663 1212q0 -27 -9 -51.5t-25 -45.5t-36.5 -38.5t-42.5 -30.5l-25 22
q12 11 23.5 29.5t14.5 35.5q-27 8 -44 29.5t-17 49.5q0 34 23 58t57 24q33 0 57 -24t24 -58z" />
    <glyph glyph-name="tbar" unicode="&#x167;" horiz-adv-x="537" 
d="M504 594l-41 -101h-137v-348q0 -24 11 -38t28 -14.5t38 12.5t41 42l27 -30q-23 -49 -53 -75t-59 -38q-33 -14 -68 -16q-45 0 -73.5 14t-45 37t-23 52t-6.5 59v343h-115l43 101h72v80h-106l43 100h63v354l183 64v-418h190l-41 -100h-149v-80h178z" />
    <glyph glyph-name="utilde" unicode="&#x169;" horiz-adv-x="924" 
d="M909 117q-23 -49 -54 -75t-59 -38q-33 -14 -67 -16q-45 0 -73.5 14t-45.5 37t-23.5 52t-6.5 59v319q-8 -36 -20.5 -86t-30.5 -104.5t-42 -108t-55.5 -95.5t-71 -68.5t-88.5 -26.5q-41 0 -64.5 15.5t-35 44t-14 68t-2.5 87.5v434q0 24 -11 38t-28.5 14.5t-38.5 -12.5
t-41 -42l-27 30q23 48 53 74.5t59 38.5q33 14 68 16q45 0 73.5 -14t45 -36.5t23 -51.5t6.5 -59v-414q0 -39 14 -51t36.5 3.5t50 57t55.5 109.5q18 65 35 134q14 59 28.5 130t22.5 137l184 64v-650q0 -24 11 -38t28 -14.5t37.5 12.5t40.5 42zM316 857l-39 -20q-21 23 -30 46
t-12 43q-4 23 -1 44q9 54 38 89t91 38q31 1 56 -10.5t45.5 -28t37 -34t31.5 -27.5q15 -11 31.5 -10t28 13.5t15 36.5t-8.5 60l38 16q24 -32 31 -63.5t6 -56.5q-1 -30 -10 -56q-14 -35 -35 -56t-46 -29.5t-51.5 -4.5t-51.5 21q-26 18 -47 39t-39.5 37t-35 23.5t-34.5 -1.5
q-15 -10 -22 -25q-6 -13 -5.5 -33.5t19.5 -50.5z" />
    <glyph glyph-name="umacron" unicode="&#x16b;" horiz-adv-x="924" 
d="M909 117q-23 -49 -54 -75t-59 -38q-33 -14 -67 -16q-45 0 -73.5 14t-45.5 37t-23.5 52t-6.5 59v319q-8 -36 -20.5 -86t-30.5 -104.5t-42 -108t-55.5 -95.5t-71 -68.5t-88.5 -26.5q-41 0 -64.5 15.5t-35 44t-14 68t-2.5 87.5v434q0 24 -11 38t-28.5 14.5t-38.5 -12.5
t-41 -42l-27 30q23 48 53 74.5t59 38.5q33 14 68 16q45 0 73.5 -14t45 -36.5t23 -51.5t6.5 -59v-414q0 -39 14 -51t36.5 3.5t50 57t55.5 109.5q18 65 35 134q14 59 28.5 130t22.5 137l184 64v-650q0 -24 11 -38t28 -14.5t37.5 12.5t40.5 42zM219 839l72 157h413l-69 -157
h-416z" />
    <glyph glyph-name="ubreve" unicode="&#x16d;" horiz-adv-x="924" 
d="M909 117q-23 -49 -54 -75t-59 -38q-33 -14 -67 -16q-45 0 -73.5 14t-45.5 37t-23.5 52t-6.5 59v319q-8 -36 -20.5 -86t-30.5 -104.5t-42 -108t-55.5 -95.5t-71 -68.5t-88.5 -26.5q-41 0 -64.5 15.5t-35 44t-14 68t-2.5 87.5v434q0 24 -11 38t-28.5 14.5t-38.5 -12.5
t-41 -42l-27 30q23 48 53 74.5t59 38.5q33 14 68 16q45 0 73.5 -14t45 -36.5t23 -51.5t6.5 -59v-414q0 -39 14 -51t36.5 3.5t50 57t55.5 109.5q18 65 35 134q14 59 28.5 130t22.5 137l184 64v-650q0 -24 11 -38t28 -14.5t37.5 12.5t40.5 42zM329 1207l29 -22
q-16 -22 -22.5 -48.5t-6.5 -52.5q0 -27 7.5 -59.5t23.5 -60.5t40 -47t56 -19q43 0 69.5 27.5t26.5 70.5q0 37 -18 73.5t-47 59.5l131 84q57 -63 57 -151q0 -51 -18 -92.5t-49.5 -71.5t-75 -46t-93.5 -16q-41 0 -76 13.5t-60.5 37.5t-39.5 58t-14 76q0 24 6 50t16.5 50.5
t25 47t32.5 38.5z" />
    <glyph glyph-name="uring" unicode="&#x16f;" horiz-adv-x="924" 
d="M909 117q-23 -49 -54 -75t-59 -38q-33 -14 -67 -16q-45 0 -73.5 14t-45.5 37t-23.5 52t-6.5 59v319q-8 -36 -20.5 -86t-30.5 -104.5t-42 -108t-55.5 -95.5t-71 -68.5t-88.5 -26.5q-41 0 -64.5 15.5t-35 44t-14 68t-2.5 87.5v434q0 24 -11 38t-28.5 14.5t-38.5 -12.5
t-41 -42l-27 30q23 48 53 74.5t59 38.5q33 14 68 16q45 0 73.5 -14t45 -36.5t23 -51.5t6.5 -59v-414q0 -39 14 -51t36.5 3.5t50 57t55.5 109.5q18 65 35 134q14 59 28.5 130t22.5 137l184 64v-650q0 -24 11 -38t28 -14.5t37.5 12.5t40.5 42zM461 1225q40 0 76 -15.5
t62.5 -42t42 -62.5t15.5 -76t-15.5 -75.5t-42 -62t-62.5 -42t-76 -15.5t-75.5 15.5t-62 42t-42 62t-15.5 75.5t15.5 76t42 62.5t62 42t75.5 15.5zM518 906q15 7 24.5 23t11.5 37.5t-2 46.5t-16 51t-28.5 46t-34.5 32t-36.5 15.5t-33.5 -3.5t-24 -23t-11 -37.5t2.5 -47
t16.5 -50.5q12 -26 28 -46t34 -32t36 -15.5t33 3.5z" />
    <glyph glyph-name="uhungarumlaut" unicode="&#x171;" horiz-adv-x="924" 
d="M909 117q-23 -49 -54 -75t-59 -38q-33 -14 -67 -16q-45 0 -73.5 14t-45.5 37t-23.5 52t-6.5 59v319q-8 -36 -20.5 -86t-30.5 -104.5t-42 -108t-55.5 -95.5t-71 -68.5t-88.5 -26.5q-41 0 -64.5 15.5t-35 44t-14 68t-2.5 87.5v434q0 24 -11 38t-28.5 14.5t-38.5 -12.5
t-41 -42l-27 30q23 48 53 74.5t59 38.5q33 14 68 16q45 0 73.5 -14t45 -36.5t23 -51.5t6.5 -59v-414q0 -39 14 -51t36.5 3.5t50 57t55.5 109.5q18 65 35 134q14 59 28.5 130t22.5 137l184 64v-650q0 -24 11 -38t28 -14.5t37.5 12.5t40.5 42zM340 846l-25 35l233 279
l117 -131zM606 846l-25 35l234 279l116 -131z" />
    <glyph glyph-name="uogonek" unicode="&#x173;" horiz-adv-x="924" 
d="M909 117q-17 -35 -37.5 -58t-41.5 -37t-40.5 -20.5t-33.5 -9.5q-34 -39 -44 -68t-8 -49q2 -23 14 -39q16 -16 34 -20q15 -4 35 1.5t41 32.5l23 -19q-20 -31 -39.5 -48.5t-34.5 -27.5q-18 -11 -34 -16q-22 -4 -48 2.5t-46.5 24.5t-28.5 48.5t6 74.5q5 15 16 32
q9 14 24.5 31.5t38.5 36.5q-37 4 -61 19t-38.5 37t-20 49.5t-5.5 55.5v319q-8 -36 -20.5 -86t-30.5 -104.5t-42 -108t-55.5 -95.5t-71 -68.5t-88.5 -26.5q-41 0 -64.5 15.5t-35 44t-14 68t-2.5 87.5v434q0 24 -11 38t-28.5 14.5t-38.5 -12.5t-41 -42l-27 30q23 48 53 74.5
t59 38.5q33 14 68 16q45 0 73.5 -14t45 -36.5t23 -51.5t6.5 -59v-414q0 -39 14 -51t36.5 3.5t50 57t55.5 109.5q18 65 35 134q14 59 28.5 130t22.5 137l184 64v-650q0 -24 11 -38t28 -14.5t37.5 12.5t40.5 42z" />
    <glyph glyph-name="wcircumflex" unicode="&#x175;" horiz-adv-x="1118" 
d="M1065 649q0 -31 -7.5 -68.5t-21.5 -66.5l-233 -500q-6 -11 -16.5 -14.5t-22.5 -3.5q-14 0 -27 5t-18 19l-156 551l-139 -544q-8 -17 -22.5 -26t-32.5 -9q-13 0 -24.5 5t-14.5 19l-176 562q-4 12 -10.5 25.5t-16 25t-21 19t-26.5 7.5q-20 0 -36.5 -11t-29.5 -23l-20 26
q15 28 38 52.5t51 43.5t59.5 30t64.5 11q28 0 47 -16t32 -39t21.5 -49t14.5 -47q30 -94 59.5 -189t58.5 -188l99 401l-25 80l168 56l164 -582l94 215q6 15 10 38.5t4 39.5q0 60 -30.5 103t-81.5 69l114 158q56 -28 82.5 -75.5t26.5 -109.5zM384 853l-51 41l279 312l286 -271
l-100 -106l-244 231z" />
    <glyph glyph-name="wgrave" unicode="&#x1e81;" horiz-adv-x="1118" 
d="M1065 649q0 -31 -7.5 -68.5t-21.5 -66.5l-233 -500q-6 -11 -16.5 -14.5t-22.5 -3.5q-14 0 -27 5t-18 19l-156 551l-139 -544q-8 -17 -22.5 -26t-32.5 -9q-13 0 -24.5 5t-14.5 19l-176 562q-4 12 -10.5 25.5t-16 25t-21 19t-26.5 7.5q-20 0 -36.5 -11t-29.5 -23l-20 26
q15 28 38 52.5t51 43.5t59.5 30t64.5 11q28 0 47 -16t32 -39t21.5 -49t14.5 -47q30 -94 59.5 -189t58.5 -188l99 401l-25 80l168 56l164 -582l94 215q6 15 10 38.5t4 39.5q0 60 -30.5 103t-81.5 69l114 158q56 -28 82.5 -75.5t26.5 -109.5zM265 1023l117 133l233 -279
l-26 -37z" />
    <glyph glyph-name="wacute" unicode="&#x1e83;" horiz-adv-x="1118" 
d="M1065 649q0 -31 -7.5 -68.5t-21.5 -66.5l-233 -500q-6 -11 -16.5 -14.5t-22.5 -3.5q-14 0 -27 5t-18 19l-156 551l-139 -544q-8 -17 -22.5 -26t-32.5 -9q-13 0 -24.5 5t-14.5 19l-176 562q-4 12 -10.5 25.5t-16 25t-21 19t-26.5 7.5q-20 0 -36.5 -11t-29.5 -23l-20 26
q15 28 38 52.5t51 43.5t59.5 30t64.5 11q28 0 47 -16t32 -39t21.5 -49t14.5 -47q30 -94 59.5 -189t58.5 -188l99 401l-25 80l168 56l164 -582l94 215q6 15 10 38.5t4 39.5q0 60 -30.5 103t-81.5 69l114 158q56 -28 82.5 -75.5t26.5 -109.5zM598 836l-25 35l233 279l117 -131
z" />
    <glyph glyph-name="wdieresis" unicode="&#x1e85;" horiz-adv-x="1118" 
d="M1065 649q0 -31 -7.5 -68.5t-21.5 -66.5l-233 -500q-6 -11 -16.5 -14.5t-22.5 -3.5q-14 0 -27 5t-18 19l-156 551l-139 -544q-8 -17 -22.5 -26t-32.5 -9q-13 0 -24.5 5t-14.5 19l-176 562q-4 12 -10.5 25.5t-16 25t-21 19t-26.5 7.5q-20 0 -36.5 -11t-29.5 -23l-20 26
q15 28 38 52.5t51 43.5t59.5 30t64.5 11q28 0 47 -16t32 -39t21.5 -49t14.5 -47q30 -94 59.5 -189t58.5 -188l99 401l-25 80l168 56l164 -582l94 215q6 15 10 38.5t4 39.5q0 60 -30.5 103t-81.5 69l114 158q56 -28 82.5 -75.5t26.5 -109.5zM462 1032q19 0 36 -7.5t30 -20.5
t20.5 -30.5t7.5 -36.5t-7.5 -36t-20.5 -30t-30 -20.5t-36 -7.5q-20 0 -37 7.5t-30 20.5t-20 30t-7 36t7 36.5t20 30.5t30 20.5t37 7.5zM759 1032q19 0 36 -7.5t29.5 -20.5t19.5 -30.5t7 -36.5t-7 -36t-19.5 -30t-29.5 -20.5t-36 -7.5q-20 0 -37 7.5t-30 20.5t-20 30t-7 36
t7 36.5t20 30.5t30 20.5t37 7.5z" />
    <glyph glyph-name="ycircumflex" unicode="&#x177;" horiz-adv-x="883" 
d="M766 82q0 -72 -18 -140.5t-49.5 -129t-74.5 -111t-93.5 -87t-106.5 -57t-113 -20.5q-43 0 -81 14.5t-72 38.5l112 142q15 -12 33.5 -25t38.5 -23.5t41.5 -17t42.5 -6.5q38 0 64.5 23t43.5 59t27 81.5t14.5 90.5t5.5 85.5t1 66.5v403q-8 -35 -21 -84.5t-32.5 -104
t-44.5 -108t-56.5 -96.5t-70 -69.5t-83.5 -26.5q-46 0 -69.5 20.5t-34 52t-11.5 69.5t-1 73v432q0 18 -10 35.5t-31 17.5q-25 0 -45.5 -18.5t-32.5 -36.5l-27 30q12 25 30.5 48.5t42 41.5t51 28.5t57.5 10.5q78 0 112.5 -43.5t34.5 -117.5v-412q0 -6 0.5 -15.5t3.5 -18
t9 -15t16 -6.5q19 0 39 22t38 51t31 58t19 43q18 43 32 94t24.5 104.5t18 106t11.5 100.5l184 64v-717zM210 860l-51 41l279 312l286 -271l-100 -106l-244 231z" />
    <glyph glyph-name="ygrave" unicode="&#x1ef3;" horiz-adv-x="883" 
d="M766 82q0 -72 -18 -140.5t-49.5 -129t-74.5 -111t-93.5 -87t-106.5 -57t-113 -20.5q-43 0 -81 14.5t-72 38.5l112 142q15 -12 33.5 -25t38.5 -23.5t41.5 -17t42.5 -6.5q38 0 64.5 23t43.5 59t27 81.5t14.5 90.5t5.5 85.5t1 66.5v403q-8 -35 -21 -84.5t-32.5 -104
t-44.5 -108t-56.5 -96.5t-70 -69.5t-83.5 -26.5q-46 0 -69.5 20.5t-34 52t-11.5 69.5t-1 73v432q0 18 -10 35.5t-31 17.5q-25 0 -45.5 -18.5t-32.5 -36.5l-27 30q12 25 30.5 48.5t42 41.5t51 28.5t57.5 10.5q78 0 112.5 -43.5t34.5 -117.5v-412q0 -6 0.5 -15.5t3.5 -18
t9 -15t16 -6.5q19 0 39 22t38 51t31 58t19 43q18 43 32 94t24.5 104.5t18 106t11.5 100.5l184 64v-717zM106 1021l117 133l233 -279l-26 -37z" />
    <glyph glyph-name="zacute" unicode="&#x17a;" horiz-adv-x="770" 
d="M205 139q19 13 44 21.5t51.5 14t53 7.5t49.5 2q35 0 77.5 -4t76.5 -4q45 0 88.5 7t85.5 24l-125 -205q-33 -12 -69 -12q-29 0 -59 5t-61 11.5t-61.5 11.5t-58.5 5q-57 0 -112 -11.5t-109 -29.5l-43 24l499 619q-29 -11 -61 -19q-28 -7 -62.5 -12.5t-72.5 -5.5
q-23 0 -43.5 1.5t-42 3.5t-45 3.5t-51.5 1.5q-16 0 -34 -2.5t-34 -5.5q-18 -4 -37 -8l127 192q31 0 58.5 -2t54.5 -4t54.5 -4t59.5 -2q72 0 143.5 7.5t139.5 27.5l25 -33zM425 839l-25 35l233 279l117 -131z" />
    <glyph glyph-name="zdotaccent" unicode="&#x17c;" horiz-adv-x="770" 
d="M205 139q19 13 44 21.5t51.5 14t53 7.5t49.5 2q35 0 77.5 -4t76.5 -4q45 0 88.5 7t85.5 24l-125 -205q-33 -12 -69 -12q-29 0 -59 5t-61 11.5t-61.5 11.5t-58.5 5q-57 0 -112 -11.5t-109 -29.5l-43 24l499 619q-29 -11 -61 -19q-28 -7 -62.5 -12.5t-72.5 -5.5
q-23 0 -43.5 1.5t-42 3.5t-45 3.5t-51.5 1.5q-16 0 -34 -2.5t-34 -5.5q-18 -4 -37 -8l127 192q31 0 58.5 -2t54.5 -4t54.5 -4t59.5 -2q72 0 143.5 7.5t139.5 27.5l25 -33zM385 1023q19 0 36 -7.5t30 -20.5t20.5 -30.5t7.5 -36.5t-7.5 -36t-20.5 -30t-30 -20.5t-36 -7.5
q-20 0 -37 7.5t-30 20.5t-20 30t-7 36t7 36.5t20 30.5t30 20.5t37 7.5z" />
    <glyph glyph-name="aeacute" unicode="&#x1fd;" horiz-adv-x="1356" 
d="M1079 575q0 23 -7.5 44t-21 36.5t-33.5 25t-44 9.5q-45 0 -83 -32t-65.5 -78t-43 -97t-15.5 -90q0 -42 12.5 -81.5t32.5 -73.5q37 21 84 59t87.5 84.5t68.5 97t28 96.5zM629 567l80 41q24 39 57.5 72t77 57t97 37.5t118.5 13.5q41 0 79 -10.5t67 -32t46 -55t17 -78.5
q0 -38 -22.5 -80t-59 -84t-83 -82.5t-93.5 -75t-90.5 -60.5t-75.5 -40q34 -43 82.5 -73.5t105.5 -30.5q35 0 71 13.5t69.5 34t63.5 45.5t54 48l33 -32q-35 -45 -77.5 -84t-91 -68t-102.5 -46t-112 -17q-57 0 -108.5 17.5t-93.5 49t-73.5 76t-48.5 98.5q-15 -42 -43.5 -85
t-65.5 -77.5t-82 -56.5t-93 -22q-57 0 -106.5 20t-86 54.5t-57.5 82t-21 103.5q0 116 39.5 215.5t107 172.5t155.5 114.5t186 41.5q56 0 102.5 -16.5t89.5 -54.5l-118 -86q-7 26 -22 46q-13 17 -35.5 31.5t-57.5 12.5q-64 -3 -112 -45.5t-80.5 -103.5t-49 -130.5
t-16.5 -126.5q0 -29 5.5 -67t19.5 -72t39.5 -57t64.5 -23q37 0 75.5 23t70.5 57.5t53 76t24 77.5q3 27 7.5 49t9 48t7.5 60t3 84zM744 853l-25 35l233 279l117 -131z" />
    <glyph glyph-name="oslashacute" unicode="&#x1ff;" horiz-adv-x="856" 
d="M592 508l-248 -385q25 -22 55.5 -34.5t67.5 -12.5q50 0 86.5 18t60.5 49t36 72.5t12 87.5q0 51 -19 104.5t-51 100.5zM207 -88l-103 68l62 94q-50 46 -78.5 111t-28.5 141q0 85 28 159.5t77.5 134.5t117 104t146.5 69l29 -35q-45 -33 -84 -75.5t-68 -92t-46 -104
t-17 -111.5q0 -34 6.5 -72t21.5 -72l238 361q-54 37 -115 43q35 40 77 74t85 65q30 -9 57 -24l60 88l92 -64l-64 -98q47 -53 71 -121.5t24 -140.5q0 -79 -27.5 -157t-78 -140.5t-121 -101t-156.5 -38.5q-39 0 -75.5 7.5t-68.5 21.5zM439 864l-25 35l233 279l117 -131z" />
    <glyph glyph-name="Scommaaccent" unicode="&#x218;" horiz-adv-x="1106" 
d="M1065 1233l-168 -203q-22 66 -57 126t-83 105t-109 72t-136 27q-54 0 -100 -19.5t-80.5 -54t-54 -81.5t-19.5 -101q0 -56 21 -105t56 -88.5t80.5 -68.5t94.5 -45q49 -17 103 -38t106 -49t99 -62.5t83 -77.5t57 -95.5t21 -114.5q0 -90 -39.5 -161.5t-103.5 -120.5
t-146.5 -75t-167.5 -26q-58 0 -117.5 17t-114 46.5t-102 68.5t-82.5 84l162 186q15 -48 52.5 -102t87.5 -100t107.5 -76.5t111.5 -30.5q31 0 64 16t60.5 41.5t45.5 55.5t18 59q0 44 -18 83.5t-47.5 74.5t-68 64.5t-80 53t-83 41t-76.5 27.5q-69 21 -134.5 60t-116.5 94
t-82 123.5t-31 146.5q0 67 21 127t58 111t87 92.5t108 70t121 44t127 15.5q140 0 260 -62.5t205 -174.5zM634 -167q0 -27 -9 -51.5t-25 -45.5t-36.5 -38.5t-42.5 -30.5l-26 21q13 12 24 30.5t15 35.5q-27 8 -44.5 29.5t-17.5 49.5q0 33 23.5 57.5t56.5 24.5q34 0 58 -24.5
t24 -57.5z" />
    </font>
</defs>
</svg>
